fira-sans_regular.sfdir
StartChar: exclam
Encoding: 33 33 2122
Width: 241
Flags: MW
HStem: -12 139<100.5 140> 669 20G<68 170 170 170>
VStem: 51 139<38.5 77> 73.5 91.5
LayerCount: 2
Back
Fore
SplineSet
170 689 m 1xd0
 160 230 l 1
 79 230 l 1
 68 689 l 1
 170 689 l 1xd0
120 127 m 0xe0
 160 127 190 96 190 58 c 0
 190 19 160 -12 120 -12 c 0
 81 -12 51 19 51 58 c 0
 51 96 81 127 120 127 c 0xe0
EndSplineSet
EndChar
StartChar: quotedbl
Encoding: 34 34 2129
Width: 399
Flags: MW
HStem: 427 262<75 75 75 144 255 324 255 255>
VStem: 67.5 84 247.5 84
LayerCount: 2
Back
Fore
SplineSet
75 427 m 1
 60 689 l 1
 159 689 l 1
 144 427 l 1
 75 427 l 1
255 427 m 1
 240 689 l 1
 339 689 l 1
 324 427 l 1
 255 427 l 1
EndSplineSet
EndChar
StartChar: numbersign
Encoding: 35 35 2124
Width: 518
Flags: MW
HStem: 0 21G<58 136 58 58 290 368 290 290> 163 69<15 79 15 89 167 311 15 157 399 466> 447 70<52 117 52 126 52 195 204 349 436 503>
VStem: 15 488<163 447 232 447>
LayerCount: 2
Back
Fore
SplineSet
503 447 m 1
 427 447 l 1
 399 232 l 1
 466 232 l 1
 466 163 l 1
 389 163 l 1
 368 0 l 1
 290 0 l 1
 311 163 l 1
 157 163 l 1
 136 0 l 1
 58 0 l 1
 79 163 l 1
 15 163 l 1
 15 232 l 1
 89 232 l 1
 117 447 l 1
 52 447 l 1
 52 517 l 1
 126 517 l 1
 146 669 l 1
 224 669 l 1
 204 517 l 1
 358 517 l 1
 378 669 l 1
 456 669 l 1
 436 517 l 1
 503 517 l 1
 503 447 l 1
321 232 m 1
 349 447 l 1
 195 447 l 1
 167 232 l 1
 321 232 l 1
EndSplineSet
Substitution2: "'onum' Oldstyle Figures lookup 25 subtable" numbersign.osf
Substitution2: "'tnum' Tabular Numbers lookup 24 subtable" numbersign.tf
AlternateSubs2: "'aalt' Access All Alternates lookup 1 subtable" numbersign.tf numbersign.osf
EndChar

StartChar: quotesingle
Encoding: 39 39 992
Width: 219
Flags: MW
HStem: 427 262<75 144 75 75> 669 20G<60 159 159 159>
VStem: 67.5 84
LayerCount: 2
Fore
SplineSet
60 689 m 1x60
 159 689 l 1
 144 427 l 1
 75 427 l 1xa0
 60 689 l 1x60
EndSplineSet
EndChar
StartChar: parenleft
Encoding: 40 40 2154
Width: 324
Flags: MW
HStem: -145 990<226 226>
VStem: 40 96<243 457.5 243 468.5>
LayerCount: 2
Back
Fore
SplineSet
226 845 m 1
 284 805 l 1
 194 672 136 565 136 350 c 0
 136 136 194 28 284 -105 c 1
 226 -145 l 1
 128 -6 40 113 40 350 c 0
 40 587 128 706 226 845 c 1
EndSplineSet
Substitution2: "'case' Case-Sensitive Forms lookup 28 subtable" parenleft.case
Substitution2: "'dnom' Denominators lookup 16 subtable" parenleft.dnom
Substitution2: "'numr' Numerators lookup 15 subtable" parenleft.numr
Substitution2: "'sups' Superscript lookup 14 subtable" uni207D
Substitution2: "'subs' Subscript lookup 13 subtable" uni208D
AlternateSubs2: "'aalt' Access All Alternates lookup 1 subtable" uni208D uni207D parenleft.numr parenleft.dnom parenleft.case
EndChar
StartChar: parenright
Encoding: 41 41 2155
Width: 324
Flags: MW
HStem: -145 990<98 98>
VStem: 188 96<243 457.5>
LayerCount: 2
Back
Fore
SplineSet
98 845 m 1
 196 706 284 587 284 350 c 0
 284 113 196 -6 98 -145 c 1
 40 -105 l 1
 130 28 188 136 188 350 c 0
 188 565 130 672 40 805 c 1
 98 845 l 1
EndSplineSet
Substitution2: "'case' Case-Sensitive Forms lookup 28 subtable" parenright.case
Substitution2: "'dnom' Denominators lookup 16 subtable" parenright.dnom
Substitution2: "'numr' Numerators lookup 15 subtable" parenright.numr
Substitution2: "'sups' Superscript lookup 14 subtable" uni207E
Substitution2: "'subs' Subscript lookup 13 subtable" uni208E
AlternateSubs2: "'aalt' Access All Alternates lookup 1 subtable" uni208E uni207E parenright.numr parenright.dnom parenright.case
EndChar
StartChar: plus
Encoding: 43 43 2296
Width: 499
GlyphClass: 2
Flags: MW
HStem: 293 76<62 207 62 207 291 437>
VStem: 207 84<144 293 144 293 369 519>
LayerCount: 2
Back
Fore
SplineSet
291 519 m 1
 291 369 l 1
 437 369 l 1
 437 293 l 1
 291 293 l 1
 291 144 l 1
 207 144 l 1
 207 293 l 1
 62 293 l 1
 62 369 l 1
 207 369 l 1
 207 519 l 1
 291 519 l 1
EndSplineSet
Substitution2: "'onum' Oldstyle Figures lookup 25 subtable" plus.osf
Substitution2: "'tnum' Tabular Numbers lookup 24 subtable" plus.tf
Substitution2: "'dnom' Denominators lookup 16 subtable" plus.dnom
Substitution2: "'numr' Numerators lookup 15 subtable" plus.numr
Substitution2: "'sups' Superscript lookup 14 subtable" uni207A
Substitution2: "'subs' Subscript lookup 13 subtable" uni208A
AlternateSubs2: "'aalt' Access All Alternates lookup 1 subtable" uni208A uni207A plus.numr plus.dnom plus.tf plus.osf
EndChar
StartChar: hyphen
Encoding: 45 45 2166
Width: 403
Flags: MW
HStem: 274 78<60 343 60 343>
VStem: 60 283<274 352 274 352>
LayerCount: 2
Back
Fore
SplineSet
60 274 m 1
 60 352 l 1
 343 352 l 1
 343 274 l 1
 60 274 l 1
EndSplineSet
Substitution2: "'case' Case-Sensitive Forms lookup 28 subtable" hyphen.case
Substitution2: "'aalt' Access All Alternates lookup 0 subtable" hyphen.case
EndChar
StartChar: slash
Encoding: 47 47 2132
Width: 520
Flags: MW
HStem: -104 911<184 337>
VStem: 105 310
LayerCount: 2
Back
Fore
SplineSet
337 807 m 1
 415 789 l 1
 184 -104 l 1
 105 -85 l 1
 337 807 l 1
EndSplineSet
Substitution2: "'frac' Diagonal Fractions lookup 17 subtable" fraction
Substitution2: "'aalt' Access All Alternates lookup 0 subtable" fraction
EndChar
StartChar: zero
Encoding: 48 48 2011
Width: 558
Flags: MW
HStem: -12 73<237 320.5 237 354> 606 73<237 320.5>
VStem: 55 96<235.5 432 235.5 445> 407 96<235.5 432>
LayerCount: 2
Back
Fore
SplineSet
279 679 m 0
 429 679 503 555 503 334 c 0
 503 112 429 -12 279 -12 c 0
 129 -12 55 112 55 334 c 0
 55 556 129 679 279 679 c 0
279 606 m 0
 195 606 151 530 151 334 c 0
 151 137 195 61 279 61 c 0
 362 61 407 137 407 334 c 0
 407 530 362 606 279 606 c 0
EndSplineSet
Substitution2: "'zero' Slashed Zero lookup 31 subtable" zero.zero
Substitution2: "'onum' Oldstyle Figures lookup 25 subtable" zero.osf
Substitution2: "'tnum' Tabular Numbers lookup 24 subtable" zero.tf
Substitution2: "'frac' Diagonal Fractions lookup 18 subtable" zero.numr
Substitution2: "'dnom' Denominators lookup 16 subtable" zero.dnom
Substitution2: "'numr' Numerators lookup 15 subtable" zero.numr
Substitution2: "'sups' Superscript lookup 14 subtable" uni2070
Substitution2: "'subs' Subscript lookup 13 subtable" uni2080
AlternateSubs2: "'aalt' Access All Alternates lookup 1 subtable" uni2080 uni2070 zero.numr zero.dnom zero.tf zero.osf zero.zero
EndChar
StartChar: one
Encoding: 49 49 2012
Width: 433
Flags: MW
HStem: 0 21G<231 323 231 231> 521 20G<35 35>
VStem: 231 92<0 571 571 571>
LayerCount: 2
Back
Fore
SplineSet
323 669 m 1
 323 0 l 1
 231 0 l 1
 231 571 l 1
 75 476 l 1
 35 541 l 1
 242 669 l 1
 323 669 l 1
EndSplineSet
Substitution2: "'onum' Oldstyle Figures lookup 25 subtable" one.osf
Substitution2: "'tnum' Tabular Numbers lookup 24 subtable" one.tf
Substitution2: "'frac' Diagonal Fractions lookup 18 subtable" one.numr
Substitution2: "'dnom' Denominators lookup 16 subtable" one.dnom
Substitution2: "'numr' Numerators lookup 15 subtable" one.numr
Substitution2: "'sups' Superscript lookup 14 subtable" uni00B9
Substitution2: "'subs' Subscript lookup 13 subtable" uni2081
AlternateSubs2: "'aalt' Access All Alternates lookup 1 subtable" uni2081 uni00B9 one.numr one.dnom one.tf one.osf
EndChar

StartChar: two
Encoding: 50 50 879
Width: 495
Flags: MW
HStem: 0 77<144 434> 558 20G<25 25> 603 76<195 255.5>
VStem: 333 96<437.5 527>
LayerCount: 2
Fore
SplineSet
228 679 m 0
 351 679 429 600 429 496 c 0
 429 371 349 282 144 77 c 1
 445 77 l 1
 434 0 l 1
 39 0 l 1
 39 73 l 1
 275 319 333 383 333 492 c 0
 333 562 288 603 223 603 c 0
 167 603 130 581 87 530 c 1
 25 578 l 1
 79 645 144 679 228 679 c 0
EndSplineSet
Substitution2: "'onum' Oldstyle Figures lookup 22 subtable" two.osf
Substitution2: "'tnum' Tabular Numbers lookup 21 subtable" two.tf
Substitution2: "'frac' Diagonal Fractions lookup 16 subtable" two.numr
Substitution2: "'dnom' Denominators lookup 14 subtable" two.dnom
Substitution2: "'numr' Numerators lookup 13 subtable" two.numr
Substitution2: "'sups' Superscript lookup 12 subtable" twosuperior
Substitution2: "'subs' Subscript lookup 11 subtable" twoinferior
AlternateSubs2: "'aalt' Access All Alternates lookup 1 subtable" twoinferior twosuperior two.numr two.dnom two.tf two.osf
EndChar
StartChar: three
Encoding: 51 51 2014
Width: 499
Flags: MW
HStem: -12 75<186 255 186 285.5> 314 71<176 210 210 215 165 210> 605 74<193.5 253.5>
VStem: 331 92<466.5 534.5> 348 96<154.5 240>
LayerCount: 2
Back
Fore
SplineSet
225 679 m 0xf0
 353 679 423 599 423 509 c 0xf0
 423 424 368 373 293 355 c 1
 377 347 444 294 444 193 c 0
 444 76 355 -12 216 -12 c 0
 136 -12 66 17 15 78 c 1
 70 129 l 1
 114 83 159 63 213 63 c 0
 297 63 348 115 348 194 c 0xe8
 348 286 296 314 215 314 c 2
 165 314 l 1
 176 385 l 1
 210 385 l 2
 276 385 331 425 331 503 c 0
 331 566 287 605 220 605 c 0
 167 605 127 587 82 545 c 1
 34 600 l 1
 91 653 153 679 225 679 c 0xf0
EndSplineSet
Substitution2: "'onum' Oldstyle Figures lookup 25 subtable" three.osf
Substitution2: "'tnum' Tabular Numbers lookup 24 subtable" three.tf
Substitution2: "'frac' Diagonal Fractions lookup 18 subtable" three.numr
Substitution2: "'dnom' Denominators lookup 16 subtable" three.dnom
Substitution2: "'numr' Numerators lookup 15 subtable" three.numr
Substitution2: "'sups' Superscript lookup 14 subtable" uni00B3
Substitution2: "'subs' Subscript lookup 13 subtable" uni2083
AlternateSubs2: "'aalt' Access All Alternates lookup 1 subtable" uni2083 uni00B3 three.numr three.dnom three.tf three.osf
EndChar
StartChar: four
Encoding: 52 52 2015
Width: 532
Flags: MW
HStem: 0 21G<326 415 326 326> 165 73<137 326 415 502>
VStem: 326 89<0 165 0 165>
LayerCount: 2
Back
Fore
SplineSet
502 238 m 1
 502 165 l 1
 415 165 l 1
 415 0 l 1
 326 0 l 1
 326 165 l 1
 40 165 l 1
 40 231 l 1
 241 679 l 1
 318 647 l 1
 137 238 l 1
 327 238 l 1
 335 418 l 1
 415 418 l 1
 415 238 l 1
 502 238 l 1
EndSplineSet
Substitution2: "'onum' Oldstyle Figures lookup 25 subtable" four.osf
Substitution2: "'tnum' Tabular Numbers lookup 24 subtable" four.tf
Substitution2: "'frac' Diagonal Fractions lookup 18 subtable" four.numr
Substitution2: "'dnom' Denominators lookup 16 subtable" four.dnom
Substitution2: "'numr' Numerators lookup 15 subtable" four.numr
Substitution2: "'sups' Superscript lookup 14 subtable" uni2074
Substitution2: "'subs' Subscript lookup 13 subtable" uni2084
AlternateSubs2: "'aalt' Access All Alternates lookup 1 subtable" uni2084 uni2074 four.numr four.dnom four.tf four.osf
EndChar

StartChar: five
Encoding: 53 53 882
Width: 501
Flags: MW
HStem: -12 75<194 265 194 293.5> 355 71<248 272.5> 597 72<159 420 159 159>
VStem: 71 88<400 597 400 669 400 669> 360 96<167 267.5>
LayerCount: 2
Fore
SplineSet
420 597 m 1
 159 597 l 1
 159 400 l 1
 194 418 230 426 266 426 c 0
 379 426 456 347 456 214 c 0
 456 81 363 -12 224 -12 c 0
 139 -12 78 20 26 73 c 1
 82 127 l 1
 122 84 165 63 223 63 c 0
 307 63 360 118 360 216 c 0
 360 319 307 355 238 355 c 0
 202 355 175 347 143 332 c 1
 71 332 l 1
 71 669 l 1
 433 669 l 1
 420 597 l 1
EndSplineSet
Substitution2: "'onum' Oldstyle Figures lookup 22 subtable" five.osf
Substitution2: "'tnum' Tabular Numbers lookup 21 subtable" five.tf
Substitution2: "'frac' Diagonal Fractions lookup 16 subtable" five.numr
Substitution2: "'dnom' Denominators lookup 14 subtable" five.dnom
Substitution2: "'numr' Numerators lookup 13 subtable" five.numr
Substitution2: "'sups' Superscript lookup 12 subtable" fivesuperior
Substitution2: "'subs' Subscript lookup 11 subtable" fiveinferior
AlternateSubs2: "'aalt' Access All Alternates lookup 1 subtable" fiveinferior fivesuperior five.numr five.dnom five.tf five.osf
EndChar
StartChar: seven
Encoding: 55 55 2018
Width: 444
Flags: MW
HStem: -10 21G<164 164> 594 75<25 321 25 414>
VStem: 25 389<600 669 600 669 600 669>
LayerCount: 2
Back
Fore
SplineSet
414 669 m 1
 414 600 l 1
 164 -10 l 1
 80 18 l 1
 321 594 l 1
 25 594 l 1
 25 669 l 1
 414 669 l 1
EndSplineSet
Substitution2: "'onum' Oldstyle Figures lookup 25 subtable" seven.osf
Substitution2: "'tnum' Tabular Numbers lookup 24 subtable" seven.tf
Substitution2: "'frac' Diagonal Fractions lookup 18 subtable" seven.numr
Substitution2: "'dnom' Denominators lookup 16 subtable" seven.dnom
Substitution2: "'numr' Numerators lookup 15 subtable" seven.numr
Substitution2: "'sups' Superscript lookup 14 subtable" uni2077
Substitution2: "'subs' Subscript lookup 13 subtable" uni2087
AlternateSubs2: "'aalt' Access All Alternates lookup 1 subtable" uni2087 uni2077 seven.numr seven.dnom seven.tf seven.osf
EndChar
StartChar: nine
Encoding: 57 57 2020
Width: 525
Flags: MW
HStem: 243 72<216.5 264> 606 73<222 302.5>
VStem: 45 93<408 504 408 528> 382 93
LayerCount: 2
Back
Fore
SplineSet
259 679 m 0
 403 679 475 576 475 419 c 0
 475 142 365 49 119 -22 c 1
 98 47 l 1
 266 95 373 172 380 323 c 1
 351 278 298 243 230 243 c 0
 126 243 45 325 45 458 c 0
 45 598 143 679 259 679 c 0
249 315 m 0
 306 315 349 347 382 398 c 1
 385 549 344 606 261 606 c 0
 183 606 138 552 138 456 c 0
 138 360 184 315 249 315 c 0
EndSplineSet
Substitution2: "'onum' Oldstyle Figures lookup 25 subtable" nine.osf
Substitution2: "'tnum' Tabular Numbers lookup 24 subtable" nine.tf
Substitution2: "'frac' Diagonal Fractions lookup 18 subtable" nine.numr
Substitution2: "'dnom' Denominators lookup 16 subtable" nine.dnom
Substitution2: "'numr' Numerators lookup 15 subtable" nine.numr
Substitution2: "'sups' Superscript lookup 14 subtable" uni2079
Substitution2: "'subs' Subscript lookup 13 subtable" uni2089
AlternateSubs2: "'aalt' Access All Alternates lookup 1 subtable" uni2089 uni2079 nine.numr nine.dnom nine.tf nine.osf
EndChar

StartChar: less
Encoding: 60 60 1101
Width: 500
Flags: MW
HStem: 115 436<417 417>
VStem: 50 73<333 333 333 380 333 380>
LayerCount: 2
Fore
SplineSet
450 475 m 1
 123 333 l 1
 450 189 l 1
 417 115 l 1
 50 286 l 1
 50 380 l 1
 417 551 l 1
 450 475 l 1
EndSplineSet
Substitution2: "'onum' Oldstyle Figures lookup 22 subtable" less.osf
Substitution2: "'tnum' Tabular Numbers lookup 21 subtable" less.tf
AlternateSubs2: "'aalt' Access All Alternates lookup 1 subtable" less.tf less.osf
EndChar
StartChar: equal
Encoding: 61 61 2251
Width: 500
GlyphClass: 2
Flags: MW
HStem: 196 77<62 438 62 438> 389 77<62 438 62 438>
VStem: 62 376<196 273 196 273 389 466 196 466>
LayerCount: 2
Back
Fore
SplineSet
62 389 m 1
 62 466 l 1
 438 466 l 1
 438 389 l 1
 62 389 l 1
62 196 m 1
 62 273 l 1
 438 273 l 1
 438 196 l 1
 62 196 l 1
EndSplineSet
Substitution2: "'onum' Oldstyle Figures lookup 25 subtable" equal.osf
Substitution2: "'tnum' Tabular Numbers lookup 24 subtable" equal.tf
Substitution2: "'dnom' Denominators lookup 16 subtable" equal.dnom
Substitution2: "'numr' Numerators lookup 15 subtable" equal.numr
Substitution2: "'sups' Superscript lookup 14 subtable" uni207C
AlternateSubs2: "'aalt' Access All Alternates lookup 1 subtable" uni207C equal.numr equal.dnom equal.tf equal.osf
EndChar
StartChar: greater
Encoding: 62 62 2254
Width: 500
GlyphClass: 2
Flags: MW
HStem: 115 436<83 83>
VStem: 377 73<333 333>
LayerCount: 2
Back
Fore
SplineSet
83 551 m 1
 450 380 l 1
 450 286 l 1
 83 115 l 1
 50 189 l 1
 377 333 l 1
 50 475 l 1
 83 551 l 1
EndSplineSet
Substitution2: "'onum' Oldstyle Figures lookup 25 subtable" greater.osf
Substitution2: "'tnum' Tabular Numbers lookup 24 subtable" greater.tf
AlternateSubs2: "'aalt' Access All Alternates lookup 1 subtable" greater.tf greater.osf
EndChar
StartChar: B
Encoding: 66 66 36
Width: 608
GlyphClass: 2
Flags: MW
HStem: 0 76<195 290 195 290> 324 73<195 299 299 308 195 299> 614 75<195 263 263 273 195 195>
VStem: 100 95<76 324 397 614> 436 97<472.5 550.5> 463 100<146 244.5>
AnchorPoint: "Anchor-14" 0 0 basechar 0
AnchorPoint: "Anchor-13" 0 0 basechar 0
AnchorPoint: "Anchor-12" 301 689 basechar 0
AnchorPoint: "Anchor-11" 0 0 basechar 0
AnchorPoint: "Anchor-10" 310 0 basechar 0
LayerCount: 2
Back
Fore
SplineSet
404 364 m 1xf4
 484 350 563 313 563 196 c 0xf4
 563 50 450 0 290 0 c 2
 100 0 l 1
 100 689 l 1
 263 689 l 2
 433 689 533 635 533 515 c 0xf8
 533 430 471 378 404 364 c 1xf4
273 614 m 2
 195 614 l 1
 195 397 l 1
 299 397 l 2
 376 397 436 435 436 508 c 0xf8
 436 593 375 614 273 614 c 2
290 76 m 2xf4
 390 76 463 96 463 196 c 0
 463 293 391 324 308 324 c 2
 195 324 l 1
 195 76 l 1
 290 76 l 2xf4
EndSplineSet
Substitution2: "'c2sc' Capitals to Small Capitals lookup 26 subtable" b.sc
Substitution2: "'aalt' Access All Alternates lookup 0 subtable" b.sc
Position2: "'cpsp' Capital Spacing lookup 0 subtable" dx=5 dy=0 dh=10 dv=0
EndChar

StartChar: F
Encoding: 70 70 34
Width: 491
GlyphClass: 2
Flags: MW
HStem: 0 21G<100 195 100 100> 303 75<195 420 195 420> 613 76<195 455 195 195>
VStem: 100 95<0 303 378 613>
LayerCount: 2
Fore
SplineSet
455 613 m 1
 195 613 l 1
 195 378 l 1
 420 378 l 1
 420 303 l 1
 195 303 l 1
 195 0 l 1
 100 0 l 1
 100 689 l 1
 466 689 l 1
 455 613 l 1
EndSplineSet
Substitution2: "'c2sc' Capitals to Small Capitals lookup 23 subtable" f.sc
Substitution2: "'aalt' Access All Alternates lookup 0 subtable" f.sc
Position2: "'cpsp' Capital Spacing lookup 0 subtable" dx=5 dy=0 dh=10 dv=0
EndChar
StartChar: G
Encoding: 71 71 98
Width: 631
GlyphClass: 2
Flags: MW
HStem: -12 78<283.5 367 283.5 385.5> 305 77<353 475 353 353> 623 78<304.5 385>
VStem: 55 101<246 446.5 246 461> 475 94<98 305 305 305>
AnchorPoint: "Anchor-14" 0 0 basechar 0
AnchorPoint: "Anchor-13" 0 0 basechar 0
AnchorPoint: "Anchor-12" 355 689 basechar 0
AnchorPoint: "Anchor-11" 0 0 basechar 0
AnchorPoint: "Anchor-10" 343 0 basechar 0
LayerCount: 2
Back
Fore
SplineSet
352 701 m 0
 445 701 502 674 561 625 c 1
 505 567 l 1
 457 606 416 623 354 623 c 0
 255 623 156 548 156 345 c 0
 156 147 223 66 344 66 c 0
 390 66 436 75 475 98 c 1
 475 305 l 1
 353 305 l 1
 342 382 l 1
 569 382 l 1
 569 49 l 1
 506 12 434 -12 337 -12 c 0
 166 -12 55 107 55 345 c 0
 55 577 197 701 352 701 c 0
EndSplineSet
Substitution2: "'c2sc' Capitals to Small Capitals lookup 26 subtable" g.sc
Substitution2: "'aalt' Access All Alternates lookup 0 subtable" g.sc
Position2: "'cpsp' Capital Spacing lookup 0 subtable" dx=5 dy=0 dh=10 dv=0
EndChar

StartChar: I
Encoding: 73 73 43
Width: 296
GlyphClass: 2
Flags: MW
HStem: 0 21G<100 196 100 100> 669 20G<100 196 196 196>
VStem: 100 96<0 689>
AnchorPoint: "Anchor-11" 0 0 basechar 0
AnchorPoint: "Anchor-10" 90 689 basechar 0
AnchorPoint: "Anchor-9" 148 689 basechar 0
AnchorPoint: "Anchor-8" 206 0 basechar 0
LayerCount: 2
Fore
SplineSet
196 0 m 1
 100 0 l 1
 100 689 l 1
 196 689 l 1
 196 0 l 1
EndSplineSet
Substitution2: "'c2sc' Capitals to Small Capitals lookup 23 subtable" i.sc
Substitution2: "'aalt' Access All Alternates lookup 0 subtable" i.sc
Position2: "'cpsp' Capital Spacing lookup 0 subtable" dx=5 dy=0 dh=10 dv=0
EndChar

StartChar: J
Encoding: 74 74 54
Width: 305
GlyphClass: 2
Flags: MW
HStem: 669 20G<115 210 210 210>
VStem: 115 95<100 689>
AnchorPoint: "Anchor-11" 0 0 basechar 0
AnchorPoint: "Anchor-10" 0 0 basechar 0
AnchorPoint: "Anchor-9" 163 689 basechar 0
AnchorPoint: "Anchor-8" 0 0 basechar 0
LayerCount: 2
Fore
SplineSet
210 96 m 2
 210 -48 141 -102 30 -137 c 1
 5 -68 l 1
 96 -32 115 8 115 100 c 2
 115 689 l 1
 210 689 l 1
 210 96 l 2
EndSplineSet
Substitution2: "'c2sc' Capitals to Small Capitals lookup 23 subtable" j.sc
Substitution2: "'aalt' Access All Alternates lookup 0 subtable" j.sc
Position2: "'cpsp' Capital Spacing lookup 0 subtable" dx=5 dy=0 dh=10 dv=0
EndChar

StartChar: K
Encoding: 75 75 56
Width: 589
GlyphClass: 2
Flags: MW
HStem: 0 21G<100 195 100 100 472 472 472 589> 669 20G<100 195 195 195 462 570 570 570>
VStem: 100 95<0 689>
AnchorPoint: "Anchor-11" 315 0 basechar 0
AnchorPoint: "Anchor-10" 0 0 basechar 0
AnchorPoint: "Anchor-9" 328 689 basechar 0
AnchorPoint: "Anchor-8" 0 0 basechar 0
LayerCount: 2
Fore
SplineSet
195 0 m 1
 100 0 l 1
 100 689 l 1
 195 689 l 1
 195 0 l 1
309 374 m 1
 589 0 l 1
 472 0 l 1
 200 368 l 1
 462 689 l 1
 570 689 l 1
 309 374 l 1
EndSplineSet
Substitution2: "'c2sc' Capitals to Small Capitals lookup 23 subtable" k.sc
Substitution2: "'aalt' Access All Alternates lookup 0 subtable" k.sc
Position2: "'cpsp' Capital Spacing lookup 0 subtable" dx=5 dy=0 dh=10 dv=0
EndChar

StartChar: L
Encoding: 76 76 58
Width: 498
GlyphClass: 2
Flags: MW
HStem: 0 83<195 467> 669 20G<100 195 195 195>
VStem: 100 95<83 83 83 689>
AnchorPoint: "Anchor-11" 284 0 basechar 0
AnchorPoint: "Anchor-10" 0 0 basechar 0
AnchorPoint: "Anchor-9" 148 689 basechar 0
AnchorPoint: "Anchor-8" 0 0 basechar 0
LayerCount: 2
Fore
SplineSet
195 83 m 1
 478 83 l 1
 467 0 l 1
 100 0 l 1
 100 689 l 1
 195 689 l 1
 195 83 l 1
EndSplineSet
Substitution2: "'c2sc' Capitals to Small Capitals lookup 23 subtable" l.sc
Substitution2: "'aalt' Access All Alternates lookup 0 subtable" l.sc
Position2: "'cpsp' Capital Spacing lookup 0 subtable" dx=5 dy=0 dh=10 dv=0
EndChar

StartChar: T
Encoding: 84 84 96
Width: 517
GlyphClass: 2
Flags: MW
HStem: 0 21G<211 306 211 211> 608 81<15 211 15 507 306 497 306 306>
VStem: 211 95<0 608 0 608>
AnchorPoint: "Anchor-11" 259 0 basechar 0
AnchorPoint: "Anchor-10" 0 0 basechar 0
AnchorPoint: "Anchor-9" 259 689 basechar 0
AnchorPoint: "Anchor-8" 0 0 basechar 0
LayerCount: 2
Fore
SplineSet
497 608 m 1
 306 608 l 1
 306 0 l 1
 211 0 l 1
 211 608 l 1
 15 608 l 1
 15 689 l 1
 507 689 l 1
 497 608 l 1
EndSplineSet
Substitution2: "'c2sc' Capitals to Small Capitals lookup 23 subtable" t.sc
Substitution2: "'aalt' Access All Alternates lookup 0 subtable" t.sc
Position2: "'cpsp' Capital Spacing lookup 0 subtable" dx=5 dy=0 dh=10 dv=0
EndChar

StartChar: V
Encoding: 86 86 112
Width: 556
GlyphClass: 2
Flags: MW
HStem: 0 21G<228 330 228 228> 0 103<281 281 281 330 228 281> 669 20G<6 108 108 108 454 550 550 550>
VStem: 6 544<689 689>
LayerCount: 2
Fore
SplineSet
330 0 m 1xb0
 228 0 l 1
 6 689 l 1
 108 689 l 1
 281 103 l 1x70
 454 689 l 1
 550 689 l 1
 330 0 l 1xb0
EndSplineSet
Substitution2: "'c2sc' Capitals to Small Capitals lookup 23 subtable" v.sc
Substitution2: "'aalt' Access All Alternates lookup 0 subtable" v.sc
Position2: "'cpsp' Capital Spacing lookup 0 subtable" dx=5 dy=0 dh=10 dv=0
EndChar
StartChar: W
Encoding: 87 87 294
Width: 826
GlyphClass: 2
Flags: MW
HStem: 0 83<229 229 229 284 165 229> 577 112<412 412> 669 20G<25 118 118 118 362 463 463 463 714 801 801 801>
VStem: 25 776<689 689>
AnchorPoint: "Anchor-14" 0 0 basechar 0
AnchorPoint: "Anchor-13" 0 0 basechar 0
AnchorPoint: "Anchor-12" 413 689 basechar 0
AnchorPoint: "Anchor-11" 0 0 basechar 0
AnchorPoint: "Anchor-10" 0 0 basechar 0
LayerCount: 2
Back
Fore
SplineSet
801 689 m 1xb0
 661 0 l 1
 539 0 l 1
 412 577 l 1xd0
 284 0 l 1
 165 0 l 1
 25 689 l 1
 118 689 l 1
 229 83 l 1
 362 689 l 1
 463 689 l 1
 599 83 l 1
 714 689 l 1
 801 689 l 1xb0
EndSplineSet
Substitution2: "'c2sc' Capitals to Small Capitals lookup 26 subtable" w.sc
Substitution2: "'aalt' Access All Alternates lookup 0 subtable" w.sc
Position2: "'cpsp' Capital Spacing lookup 0 subtable" dx=5 dy=0 dh=10 dv=0
EndChar

StartChar: X
Encoding: 88 88 118
Width: 540
GlyphClass: 2
Flags: MW
HStem: 0 21G<5 107 5 5 427 535 427 427> 669 20G<23 131 131 131 410 512 512 512>
VStem: 5 530<0 0>
LayerCount: 2
Fore
SplineSet
535 0 m 1
 427 0 l 1
 268 305 l 1
 107 0 l 1
 5 0 l 1
 212 367 l 1
 23 689 l 1
 131 689 l 1
 270 430 l 1
 410 689 l 1
 512 689 l 1
 325 372 l 1
 535 0 l 1
EndSplineSet
Substitution2: "'c2sc' Capitals to Small Capitals lookup 23 subtable" x.sc
Substitution2: "'aalt' Access All Alternates lookup 0 subtable" x.sc
Position2: "'cpsp' Capital Spacing lookup 0 subtable" dx=5 dy=0 dh=10 dv=0
EndChar

StartChar: Z
Encoding: 90 90 124
Width: 522
GlyphClass: 2
Flags: MW
HStem: 0 81<136 466> 609 80<66 374 66 477>
VStem: 30 447<0 81 76 81>
AnchorPoint: "Anchor-11" 0 0 basechar 0
AnchorPoint: "Anchor-10" 0 0 basechar 0
AnchorPoint: "Anchor-9" 272 689 basechar 0
AnchorPoint: "Anchor-8" 0 0 basechar 0
LayerCount: 2
Fore
SplineSet
477 612 m 1
 136 81 l 1
 477 81 l 1
 466 0 l 1
 30 0 l 1
 30 76 l 1
 374 609 l 1
 66 609 l 1
 66 689 l 1
 477 689 l 1
 477 612 l 1
EndSplineSet
Substitution2: "'c2sc' Capitals to Small Capitals lookup 23 subtable" z.sc
Substitution2: "'aalt' Access All Alternates lookup 0 subtable" z.sc
Position2: "'cpsp' Capital Spacing lookup 0 subtable" dx=5 dy=0 dh=10 dv=0
EndChar

StartChar: bracketleft
Encoding: 91 91 1005
Width: 322
Flags: MW
HStem: -116 76<152 272 152 272> 739 77<152 272 152 152>
VStem: 65 87<-40 739 -40 816 -40 816>
LayerCount: 2
Fore
SplineSet
272 739 m 1
 152 739 l 1
 152 -40 l 1
 272 -40 l 1
 272 -116 l 1
 65 -116 l 1
 65 816 l 1
 272 816 l 1
 272 739 l 1
EndSplineSet
Substitution2: "'case' Case-Sensitive Forms lookup 25 subtable" bracketleft.case
Substitution2: "'aalt' Access All Alternates lookup 0 subtable" bracketleft.case
EndChar

StartChar: backslash
Encoding: 92 92 979
Width: 520
Flags: MW
HStem: -104 911<183 336>
VStem: 105 310
LayerCount: 2
Fore
SplineSet
415 -85 m 1
 336 -104 l 1
 105 789 l 1
 183 807 l 1
 415 -85 l 1
EndSplineSet
EndChar
StartChar: bracketright
Encoding: 93 93 2143
Width: 322
Flags: MW
HStem: -116 76<50 170 50 257 50 170> 739 77<50 170 50 257>
VStem: 170 87<-40 739 739 739>
LayerCount: 2
Back
Fore
SplineSet
257 816 m 1
 257 -116 l 1
 50 -116 l 1
 50 -40 l 1
 170 -40 l 1
 170 739 l 1
 50 739 l 1
 50 816 l 1
 257 816 l 1
EndSplineSet
Substitution2: "'case' Case-Sensitive Forms lookup 28 subtable" bracketright.case
Substitution2: "'aalt' Access All Alternates lookup 0 subtable" bracketright.case
EndChar

StartChar: asciicircum
Encoding: 94 94 1228
Width: 540
Flags: MW
HStem: 527 313<40 311 40 311 229 500 229 402>
VStem: 40 460<527 527>
LayerCount: 2
Fore
SplineSet
500 527 m 1
 402 527 l 1
 269 760 l 1
 137 527 l 1
 40 527 l 1
 229 840 l 1
 311 840 l 1
 500 527 l 1
EndSplineSet
EndChar

StartChar: underscore
Encoding: 95 95 995
Width: 520
Flags: MW
HStem: -142 79<17 503 17 503>
VStem: 17 486<-142 -63 -142 -63>
LayerCount: 2
Fore
SplineSet
17 -63 m 1
 503 -63 l 1
 503 -142 l 1
 17 -142 l 1
 17 -63 l 1
EndSplineSet
EndChar

StartChar: grave
Encoding: 96 96 1257
Width: 300
Flags: MW
HStem: 638 163
VStem: 30 240<687 724>
LayerCount: 2
Fore
SplineSet
270 687 m 1
 242 638 l 1
 30 724 l 1
 71 801 l 1
 270 687 l 1
EndSplineSet
Substitution2: "'case' Case-Sensitive Forms lookup 25 subtable" grave.case
Substitution2: "'smcp' Lowercase to Small Capitals lookup 24 subtable" grave.sc
Substitution2: "'c2sc' Capitals to Small Capitals lookup 23 subtable" grave.sc
AlternateSubs2: "'aalt' Access All Alternates lookup 1 subtable" grave.sc grave.case
EndChar

StartChar: a
Encoding: 97 97 134
Width: 544
GlyphClass: 2
Flags: MW
HStem: -12 69<204 245> 260 61<277 289 289 358> 464 75<235.5 284.5>
VStem: 45 98<121 188 121 203.5> 358 92<139 260 260 260 321 360 360 364>
AnchorPoint: "Anchor-11" 0 0 basechar 0
AnchorPoint: "Anchor-10" 0 0 basechar 0
AnchorPoint: "Anchor-9" 261 527 basechar 0
AnchorPoint: "Anchor-8" 483 -12 basechar 0
LayerCount: 2
Fore
SplineSet
450 123 m 2
 450 77 467 62 494 52 c 1
 473 -12 l 1
 420 -6 386 15 370 67 c 1
 333 12 277 -12 213 -12 c 0
 108 -12 45 53 45 147 c 0
 45 260 130 321 277 321 c 2
 358 321 l 1
 358 360 l 2
 358 436 321 464 248 464 c 0
 209 464 160 454 106 436 c 1
 83 503 l 1
 148 527 206 539 265 539 c 0
 392 539 450 474 450 364 c 2
 450 123 l 2
234 57 m 0
 288 57 328 84 358 139 c 1
 358 260 l 1
 289 260 l 2
 192 260 143 224 143 152 c 0
 143 90 174 57 234 57 c 0
EndSplineSet
Substitution2: "Single Substitution lookup 30 subtable" ordfeminine
Substitution2: "'smcp' Lowercase to Small Capitals lookup 24 subtable" a.sc
AlternateSubs2: "'aalt' Access All Alternates lookup 1 subtable" ordfeminine a.sc
EndChar
StartChar: e
Encoding: 101 101 410
Width: 550
GlyphClass: 2
Flags: MW
HStem: -12 75<259 323 259 326.5> 232 68<155 402 155 491 155 402> 466 73<243 319.5>
VStem: 57 98<232 232 232 300 232 340> 402 91<300 306 306 357.5>
AnchorPoint: "Anchor-14" 0 0 basechar 0
AnchorPoint: "Anchor-13" 0 0 basechar 0
AnchorPoint: "Anchor-12" 279 527 basechar 0
AnchorPoint: "Anchor-11" 399 6 basechar 0
AnchorPoint: "Anchor-10" 293 0 basechar 0
LayerCount: 2
Back
Fore
SplineSet
493 279 m 0
 493 261 492 244 491 232 c 1
 155 232 l 1
 164 110 221 63 297 63 c 0
 349 63 388 77 434 109 c 1
 474 54 l 1
 422 13 363 -12 290 -12 c 0
 143 -12 57 91 57 258 c 0
 57 422 140 539 276 539 c 0
 418 539 493 440 493 279 c 0
402 300 m 1
 402 306 l 2
 402 409 361 466 278 466 c 0
 208 466 162 417 155 300 c 1
 402 300 l 1
EndSplineSet
Substitution2: "'smcp' Lowercase to Small Capitals lookup 27 subtable" e.sc
Substitution2: "'aalt' Access All Alternates lookup 0 subtable" e.sc
EndChar
StartChar: f
Encoding: 102 102 448
Width: 335
GlyphClass: 2
Flags: MW
HStem: 0 21G<104 196 104 104> 456 71<10 104 10 104 196 314> 676 74<245 287.5>
VStem: 104 92<0 456 0 456 527 599 599 600>
AnchorPoint: "Anchor-14" 0 0 basechar 0
AnchorPoint: "Anchor-13" 0 0 basechar 0
AnchorPoint: "Anchor-12" 260 739 basechar 0
AnchorPoint: "Anchor-11" 0 0 basechar 0
AnchorPoint: "Anchor-10" 150 0 basechar 0
LayerCount: 2
Back
Fore
SplineSet
274 676 m 0
 216 676 196 651 196 600 c 2
 196 527 l 1
 324 527 l 1
 314 456 l 1
 196 456 l 1
 196 0 l 1
 104 0 l 1
 104 456 l 1
 10 456 l 1
 10 527 l 1
 104 527 l 1
 104 599 l 2
 104 687 162 750 269 750 c 0
 319 750 353 741 395 723 c 1
 366 656 l 1
 332 671 301 676 274 676 c 0
EndSplineSet
Substitution2: "'smcp' Lowercase to Small Capitals lookup 27 subtable" f.sc
Substitution2: "'aalt' Access All Alternates lookup 0 subtable" f.sc
EndChar
StartChar: h
Encoding: 104 104 469
Width: 586
GlyphClass: 2
Flags: MW
HStem: 0 21G<95 187 95 95 404 496 404 404> 467 72<310 345> 728 20G<187 187>
VStem: 95 92<0 375 0 454 454 738 738 738> 404 92<0 365 365 378 0 404.5>
AnchorPoint: "Anchor-14" 292 264 basechar 0
AnchorPoint: "Anchor-13" 0 0 basechar 0
AnchorPoint: "Anchor-12" 292 739 basechar 0
AnchorPoint: "Anchor-11" 0 0 basechar 0
AnchorPoint: "Anchor-10" 296 0 basechar 0
LayerCount: 2
Back
Fore
SplineSet
343 539 m 0
 439 539 496 477 496 378 c 2
 496 0 l 1
 404 0 l 1
 404 365 l 2
 404 444 370 467 320 467 c 0
 263 467 222 430 187 375 c 1
 187 0 l 1
 95 0 l 1
 95 738 l 1
 187 748 l 1
 187 454 l 1
 225 506 277 539 343 539 c 0
EndSplineSet
Substitution2: "'smcp' Lowercase to Small Capitals lookup 27 subtable" h.sc
Substitution2: "'aalt' Access All Alternates lookup 0 subtable" h.sc
EndChar

StartChar: k
Encoding: 107 107 191
Width: 512
GlyphClass: 2
Flags: MW
HStem: 0 21G<95 187 95 95 402 402 402 512> 507 20G<387 490 490 490> 719 20G<95 95> 730 20G<187 187>
VStem: 95 92<0 739 739 739>
AnchorPoint: "Anchor-11" 255 0 basechar 0
AnchorPoint: "Anchor-10" 0 0 basechar 0
AnchorPoint: "Anchor-9" 0 0 basechar 0
AnchorPoint: "Anchor-8" 0 0 basechar 0
LayerCount: 2
Fore
SplineSet
187 0 m 1xd8
 95 0 l 1
 95 739 l 1xe8
 187 750 l 1
 187 0 l 1xd8
296 294 m 1
 512 0 l 1
 402 0 l 1
 193 288 l 1
 387 527 l 1
 490 527 l 1
 296 294 l 1
EndSplineSet
Substitution2: "'smcp' Lowercase to Small Capitals lookup 24 subtable" k.sc
Substitution2: "'aalt' Access All Alternates lookup 0 subtable" k.sc
EndChar
StartChar: s
Encoding: 115 115 623
Width: 467
GlyphClass: 2
Flags: MW
HStem: -12 74<193.5 256.5 193.5 277.5> 466 73<211 265.5>
VStem: 48 96<375.5 418 375.5 436> 335 97<117 168>
AnchorPoint: "Anchor-14" 0 0 basechar 0
AnchorPoint: "Anchor-13" 0 0 basechar 0
AnchorPoint: "Anchor-12" 245 527 basechar 0
AnchorPoint: "Anchor-11" 0 0 basechar 0
AnchorPoint: "Anchor-10" 235 0 basechar 0
LayerCount: 2
Back
Fore
SplineSet
238 539 m 0
 312 539 367 517 417 479 c 1
 378 421 l 1
 331 451 290 466 241 466 c 0
 181 466 144 439 144 397 c 0
 144 354 172 334 257 312 c 0
 368 284 432 240 432 148 c 0
 432 38 331 -12 224 -12 c 0
 135 -12 71 17 25 57 c 1
 74 113 l 1
 116 81 165 62 222 62 c 0
 291 62 335 92 335 142 c 0
 335 194 309 214 207 241 c 0
 93 271 48 320 48 394 c 0
 48 478 129 539 238 539 c 0
EndSplineSet
Substitution2: "'smcp' Lowercase to Small Capitals lookup 27 subtable" s.sc
Substitution2: "'sups' Superscript lookup 14 subtable" uni02E2
AlternateSubs2: "'aalt' Access All Alternates lookup 1 subtable" uni02E2 s.sc
EndChar
StartChar: t
Encoding: 116 116 638
Width: 361
GlyphClass: 2
Flags: MW
HStem: -12 76<233 265.5> 456 71<9 101 9 101 193 308>
VStem: 101 92<138 142 142 456 527 646 646 646>
AnchorPoint: "Anchor-14" 180 264 basechar 0
AnchorPoint: "Anchor-13" 189 748 basechar 0
AnchorPoint: "Anchor-12" 147 646 basechar 0
AnchorPoint: "Anchor-11" 0 0 basechar 0
AnchorPoint: "Anchor-10" 234 0 basechar 0
LayerCount: 2
Back
Fore
SplineSet
326 87 m 1
 361 24 l 1
 326 0 288 -12 243 -12 c 0
 154 -12 101 40 101 138 c 2
 101 456 l 1
 9 456 l 1
 9 527 l 1
 101 527 l 1
 101 646 l 1
 193 657 l 1
 193 527 l 1
 318 527 l 1
 308 456 l 1
 193 456 l 1
 193 142 l 2
 193 89 210 64 256 64 c 0
 279 64 300 71 326 87 c 1
EndSplineSet
Substitution2: "'smcp' Lowercase to Small Capitals lookup 27 subtable" t.sc
Substitution2: "'aalt' Access All Alternates lookup 0 subtable" t.sc
EndChar
StartChar: v
Encoding: 118 118 690
Width: 492
GlyphClass: 2
Flags: MW
HStem: 0 21G<192 303 192 192> 0 82<248 248 248 303 192 248> 507 20G<10 110 110 110 385 482 482 482>
VStem: 10 472<527 527>
AnchorPoint: "Anchor-14" 0 0 basechar 0
AnchorPoint: "Anchor-13" 0 0 basechar 0
AnchorPoint: "Anchor-12" 248 527 basechar 0
AnchorPoint: "Anchor-11" 0 0 basechar 0
AnchorPoint: "Anchor-10" 248 0 basechar 0
LayerCount: 2
Back
Fore
SplineSet
482 527 m 1xb0
 303 0 l 1
 192 0 l 1
 10 527 l 1
 110 527 l 1
 248 82 l 1x70
 385 527 l 1
 482 527 l 1xb0
EndSplineSet
Substitution2: "'smcp' Lowercase to Small Capitals lookup 27 subtable" v.sc
Substitution2: "'aalt' Access All Alternates lookup 0 subtable" v.sc
EndChar
StartChar: w
Encoding: 119 119 694
Width: 717
GlyphClass: 2
Flags: MW
HStem: 0 64<207 207 207 265> 444 83<360 360> 507 20G<20 112 112 112 311 414 414 414 609 697 697 697>
VStem: 20 677<527 527>
AnchorPoint: "Anchor-14" 0 0 basechar 0
AnchorPoint: "Anchor-13" 0 0 basechar 0
AnchorPoint: "Anchor-12" 359 527 basechar 0
AnchorPoint: "Anchor-11" 0 0 basechar 0
AnchorPoint: "Anchor-10" 359 0 basechar 0
LayerCount: 2
Back
Fore
SplineSet
697 527 m 1xb0
 577 0 l 1
 452 0 l 1
 360 444 l 1xd0
 265 0 l 1
 143 0 l 1
 20 527 l 1
 112 527 l 1
 207 64 l 1
 311 527 l 1
 414 527 l 1
 513 64 l 1
 609 527 l 1
 697 527 l 1xb0
EndSplineSet
Substitution2: "'smcp' Lowercase to Small Capitals lookup 27 subtable" w.sc
Substitution2: "'aalt' Access All Alternates lookup 0 subtable" w.sc
EndChar
StartChar: x
Encoding: 120 120 702
Width: 485
GlyphClass: 2
Flags: MW
HStem: 0 21G<5 109 5 5 369 480 369 369> 507 20G<26 134 134 134 355 459 459 459>
VStem: 5 475<0 0>
AnchorPoint: "Anchor-14" 0 0 basechar 0
AnchorPoint: "Anchor-13" 0 0 basechar 0
AnchorPoint: "Anchor-12" 245 527 basechar 0
AnchorPoint: "Anchor-11" 0 0 basechar 0
AnchorPoint: "Anchor-10" 239 0 basechar 0
LayerCount: 2
Back
Fore
SplineSet
297 282 m 1
 480 0 l 1
 369 0 l 1
 240 223 l 1
 109 0 l 1
 5 0 l 1
 189 278 l 1
 26 527 l 1
 134 527 l 1
 244 334 l 1
 355 527 l 1
 459 527 l 1
 297 282 l 1
EndSplineSet
Substitution2: "'smcp' Lowercase to Small Capitals lookup 27 subtable" x.sc
Substitution2: "'sups' Superscript lookup 14 subtable" uni02E3
AlternateSubs2: "'aalt' Access All Alternates lookup 1 subtable" uni02E3 x.sc
EndChar
StartChar: z
Encoding: 122 122 716
Width: 437
GlyphClass: 2
Flags: MW
HStem: 0 77<129 396> 449 78<48 299 48 404>
VStem: 25 382<0 77 69 77>
AnchorPoint: "Anchor-14" 0 0 basechar 0
AnchorPoint: "Anchor-13" 0 0 basechar 0
AnchorPoint: "Anchor-12" 219 527 basechar 0
AnchorPoint: "Anchor-11" 0 0 basechar 0
AnchorPoint: "Anchor-10" 215 0 basechar 0
LayerCount: 2
Back
Fore
SplineSet
404 527 m 1
 404 457 l 1
 129 77 l 1
 407 77 l 1
 396 0 l 1
 25 0 l 1
 25 69 l 1
 299 449 l 1
 48 449 l 1
 48 527 l 1
 404 527 l 1
EndSplineSet
Substitution2: "'smcp' Lowercase to Small Capitals lookup 27 subtable" z.sc
Substitution2: "'aalt' Access All Alternates lookup 0 subtable" z.sc
EndChar
StartChar: bar
Encoding: 124 124 2370
Width: 403
GlyphClass: 2
Flags: MW
HStem: -102 909<160 243 160 243>
VStem: 160 83<-102 807 -102 807>
LayerCount: 2
Back
Fore
SplineSet
243 807 m 1
 243 -102 l 1
 160 -102 l 1
 160 807 l 1
 243 807 l 1
EndSplineSet
EndChar

StartChar: asciitilde
Encoding: 126 126 1087
Width: 488
Flags: MW
HStem: 250 73<304 341.5 304 355.5> 312 72<148 185.5>
VStem: 35 418<287 341>
LayerCount: 2
Fore
SplineSet
172 384 m 0x60
 249 384 283 323 325 323 c 0
 358 323 376 345 392 373 c 1
 453 341 l 1
 432 300 392 250 319 250 c 0xa0
 239 250 205 312 166 312 c 0
 130 312 112 284 96 256 c 1
 35 287 l 1
 56 328 97 384 172 384 c 0x60
EndSplineSet
Substitution2: "'onum' Oldstyle Figures lookup 22 subtable" asciitilde.osf
Substitution2: "'tnum' Tabular Numbers lookup 21 subtable" asciitilde.tf
AlternateSubs2: "'aalt' Access All Alternates lookup 1 subtable" asciitilde.tf asciitilde.osf
EndChar
StartChar: yen
Encoding: 165 165 2238
Width: 536
GlyphClass: 2
Flags: MW
HStem: 0 194<82 315 82 221> 133 61<82 221 82 221 315 453> 284 62<82 196 82 221 82 196 340 453>
VStem: 221 94<0 133 0 133 194 284>
LayerCount: 2
Back
Fore
SplineSet
531 669 m 1x70
 340 346 l 1
 453 346 l 1
 453 284 l 1
 315 284 l 1
 315 194 l 1
 453 194 l 1
 453 133 l 1
 315 133 l 1x70
 315 0 l 1
 221 0 l 1xb0
 221 133 l 1
 82 133 l 1
 82 194 l 1
 221 194 l 1
 221 284 l 1
 82 284 l 1
 82 346 l 1
 196 346 l 1
 5 669 l 1
 107 669 l 1
 271 374 l 1
 434 669 l 1
 531 669 l 1x70
EndSplineSet
Substitution2: "'onum' Oldstyle Figures lookup 25 subtable" yen.osf
Substitution2: "'tnum' Tabular Numbers lookup 24 subtable" yen.tf
AlternateSubs2: "'aalt' Access All Alternates lookup 1 subtable" yen.tf yen.osf
EndChar

StartChar: dieresis
Encoding: 168 168 1255
Width: 385
Flags: MW
HStem: 654 114<71.5 104 281 313.5>
VStem: 30 115<695 727> 240 115<695 727>
AnchorPoint: "Anchor-12" 193 677 basemark 0
LayerCount: 2
Fore
SplineSet
88 768 m 0
 120 768 145 743 145 711 c 0
 145 679 120 654 88 654 c 0
 55 654 30 679 30 711 c 0
 30 743 55 768 88 768 c 0
297 768 m 0
 330 768 355 743 355 711 c 0
 355 679 330 654 297 654 c 0
 265 654 240 679 240 711 c 0
 240 743 265 768 297 768 c 0
EndSplineSet
Substitution2: "'case' Case-Sensitive Forms lookup 25 subtable" dieresis.case
Substitution2: "'smcp' Lowercase to Small Capitals lookup 24 subtable" dieresis.sc
Substitution2: "'c2sc' Capitals to Small Capitals lookup 23 subtable" dieresis.sc
AlternateSubs2: "'aalt' Access All Alternates lookup 1 subtable" dieresis.sc dieresis.case
EndChar

StartChar: logicalnot
Encoding: 172 172 1103
Width: 500
Flags: MW
HStem: 284 77<62 355 62 438>
VStem: 355 83<141 284 284 284>
LayerCount: 2
Fore
SplineSet
438 141 m 1
 355 141 l 1
 355 284 l 1
 62 284 l 1
 62 361 l 1
 438 361 l 1
 438 141 l 1
EndSplineSet
Substitution2: "'onum' Oldstyle Figures lookup 22 subtable" logicalnot.osf
Substitution2: "'tnum' Tabular Numbers lookup 21 subtable" logicalnot.tf
AlternateSubs2: "'aalt' Access All Alternates lookup 1 subtable" logicalnot.tf logicalnot.osf
EndChar

StartChar: softhyphen
Encoding: 173 173 1026
Width: 403
Flags: MW
HStem: 274 78<60 343 60 343>
VStem: 60 283<274 352 274 352>
LayerCount: 2
Fore
SplineSet
60 352 m 1
 343 352 l 1
 343 274 l 1
 60 274 l 1
 60 352 l 1
EndSplineSet
Substitution2: "'case' Case-Sensitive Forms lookup 25 subtable" softhyphen.case
Substitution2: "'aalt' Access All Alternates lookup 0 subtable" softhyphen.case
EndChar
StartChar: uni00AD
Encoding: 173 173 2168
Width: 403
Flags: MW
HStem: 274 78<60 343 60 343>
VStem: 60 283<274 352 274 352>
LayerCount: 2
Back
Fore
SplineSet
60 274 m 1
 60 352 l 1
 343 352 l 1
 343 274 l 1
 60 274 l 1
EndSplineSet
Substitution2: "'case' Case-Sensitive Forms lookup 28 subtable" uni00AD.case
Substitution2: "'aalt' Access All Alternates lookup 0 subtable" uni00AD.case
EndChar
StartChar: macron
Encoding: 175 175 2535
Width: 333
Flags: MW
HStem: 667 69<30 303 30 303>
VStem: 30 273<667 736 667 736>
LayerCount: 2
Back
Fore
SplineSet
303 667 m 1
 30 667 l 1
 30 736 l 1
 303 736 l 1
 303 667 l 1
EndSplineSet
Substitution2: "Single Substitution lookup 41 subtable" macron.case
Substitution2: "'case' Case-Sensitive Forms lookup 28 subtable" macron.case
Substitution2: "'smcp' Lowercase to Small Capitals lookup 27 subtable" macron.sc
Substitution2: "'c2sc' Capitals to Small Capitals lookup 26 subtable" macron.sc
AlternateSubs2: "'aalt' Access All Alternates lookup 1 subtable" macron.sc macron.case
EndChar
StartChar: degree
Encoding: 176 176 2379
Width: 523
GlyphClass: 2
Flags: MW
HStem: 381 62<196.5 242 196.5 261> 638 63<196.5 242>
VStem: 55 77<507.5 574.5 507.5 592.5> 306 77<507 573>
LayerCount: 2
Back
Fore
SplineSet
219 381 m 0
 136 381 55 438 55 541 c 0
 55 644 136 701 219 701 c 0
 303 701 383 643 383 540 c 0
 383 437 303 381 219 381 c 0
219 443 m 0
 265 443 306 474 306 540 c 0
 306 606 265 638 219 638 c 0
 174 638 132 608 132 541 c 0
 132 474 174 443 219 443 c 0
EndSplineSet
Substitution2: "'onum' Oldstyle Figures lookup 25 subtable" degree.osf
Substitution2: "'tnum' Tabular Numbers lookup 24 subtable" degree.tf
AlternateSubs2: "'aalt' Access All Alternates lookup 1 subtable" degree.tf degree.osf
EndChar
StartChar: acute
Encoding: 180 180 2511
Width: 300
Flags: MW
HStem: 638 163
VStem: 30 240<687 724>
LayerCount: 2
Back
Fore
SplineSet
229 801 m 1
 270 724 l 1
 58 638 l 1
 30 687 l 1
 229 801 l 1
EndSplineSet
Substitution2: "Single Substitution lookup 41 subtable" acute.case
Substitution2: "'case' Case-Sensitive Forms lookup 28 subtable" acute.case
Substitution2: "'smcp' Lowercase to Small Capitals lookup 27 subtable" acute.sc
Substitution2: "'c2sc' Capitals to Small Capitals lookup 26 subtable" acute.sc
Substitution2: "'locl' Localized Forms in Latin lookup 7 subtable" acute.loclPLK
AlternateSubs2: "'aalt' Access All Alternates lookup 1 subtable" acute.loclPLK acute.sc acute.case
EndChar

StartChar: paragraph
Encoding: 182 182 1220
Width: 734
Flags: MW
HStem: -215 21G<314 314 511 511> -202 21G<397 397 594 594> 615 73<260.5 511 260.5 397>
VStem: 314 83<-202 282 282 282> 511 83<-202 615 615 615>
LayerCount: 2
Fore
SplineSet
594 689 m 1x78
 594 -202 l 1x78
 511 -215 l 1xb8
 511 615 l 1
 397 615 l 1
 397 -202 l 1x78
 314 -215 l 1xb8
 314 282 l 1
 157 290 90 374 90 485 c 0
 90 615 185 688 336 688 c 2
 594 689 l 1x78
EndSplineSet
EndChar

StartChar: cedilla
Encoding: 184 184 1253
Width: 275
Flags: MW
HStem: -241 60<105 132 105 155> -217 21G<30 30> -99 115<93 111>
VStem: 93 59<16 16> 168 77<-155.5 -127.5>
LayerCount: 2
Fore
SplineSet
152 -56 m 1x78
 220 -62 245 -100 245 -141 c 0
 245 -207 189 -241 121 -241 c 0xa8
 83 -241 50 -232 30 -217 c 1x68
 55 -165 l 1
 74 -175 92 -181 118 -181 c 0
 146 -181 168 -170 168 -141 c 0
 168 -114 143 -99 79 -99 c 1xa8
 93 16 l 1
 152 16 l 1
 152 -56 l 1x78
EndSplineSet
Substitution2: "'case' Case-Sensitive Forms lookup 25 subtable" cedilla.case
Substitution2: "'smcp' Lowercase to Small Capitals lookup 24 subtable" cedilla.sc
Substitution2: "'c2sc' Capitals to Small Capitals lookup 23 subtable" cedilla.sc
AlternateSubs2: "'aalt' Access All Alternates lookup 1 subtable" cedilla.sc cedilla.case
EndChar
StartChar: Aacute
Encoding: 193 193 3
Width: 573
GlyphClass: 2
Flags: MW
HStem: 0 21G<6 102 6 6 467 567 467 467> 173 77<177 392 177 415 154 392> 610 79<285 285> 669 20G<227 347 347 347>
VStem: 6 561<0 0>
AnchorPoint: "Anchor-14" 0 0 basechar 0
AnchorPoint: "Anchor-13" 0 0 basechar 0
AnchorPoint: "Anchor-12" 289 911 basechar 0
AnchorPoint: "Anchor-11" 537 0 basechar 0
AnchorPoint: "Anchor-10" 287 0 basechar 0
LayerCount: 2
Back
Fore
SplineSet
407 834 m 1xd8
 191 755 l 1
 167 804 l 1
 367 911 l 1
 407 834 l 1xd8
467 0 m 1
 415 173 l 1
 154 173 l 1
 102 0 l 1
 6 0 l 1
 227 689 l 1
 347 689 l 1
 567 0 l 1
 467 0 l 1
177 250 m 1
 392 250 l 1
 285 610 l 1xe8
 177 250 l 1
EndSplineSet
Substitution2: "'c2sc' Capitals to Small Capitals lookup 26 subtable" aacute.sc
Substitution2: "'aalt' Access All Alternates lookup 0 subtable" aacute.sc
Position2: "'cpsp' Capital Spacing lookup 0 subtable" dx=5 dy=0 dh=10 dv=0
EndChar

StartChar: Acircumflex
Encoding: 194 194 4
Width: 573
GlyphClass: 2
Flags: MW
HStem: 0 21G<6 102 6 6 467 467 467 567> 173 77<177 392 177 415 154 392> 610 79<285 285> 669 20G<227 347 347 347> 840 74<287 287>
VStem: 6 561<0 0>
AnchorPoint: "Anchor-11" 0 0 basechar 0
AnchorPoint: "Anchor-10" 140 689 basechar 0
AnchorPoint: "Anchor-9" 287 689 basechar 0
AnchorPoint: "Anchor-8" 537 0 basechar 0
LayerCount: 2
Fore
SplineSet
161 759 m 1xdc
 121 804 l 1
 257 914 l 1
 318 914 l 1
 453 804 l 1
 414 759 l 1
 287 840 l 1
 161 759 l 1xdc
415 173 m 1
 154 173 l 1
 102 0 l 1
 6 0 l 1
 227 689 l 1
 347 689 l 1
 567 0 l 1
 467 0 l 1
 415 173 l 1
392 250 m 1
 285 610 l 1xec
 177 250 l 1
 392 250 l 1
EndSplineSet
Substitution2: "'c2sc' Capitals to Small Capitals lookup 23 subtable" acircumflex.sc
Substitution2: "'aalt' Access All Alternates lookup 0 subtable" acircumflex.sc
Position2: "'cpsp' Capital Spacing lookup 0 subtable" dx=5 dy=0 dh=10 dv=0
EndChar
StartChar: Atilde
Encoding: 195 195 32
Width: 573
GlyphClass: 2
Flags: MW
HStem: 0 21G<6 102 6 6 467 567 467 467> 173 77<177 392 177 415 154 392> 610 79<285 285> 669 20G<227 347 347 347> 782 70<326.5 355 326.5 367.5> 830 70<217.5 247>
VStem: 6 561<0 0>
AnchorPoint: "Anchor-14" 0 0 basechar 0
AnchorPoint: "Anchor-13" 0 0 basechar 0
AnchorPoint: "Anchor-12" 289 900 basechar 0
AnchorPoint: "Anchor-11" 537 0 basechar 0
AnchorPoint: "Anchor-10" 287 0 basechar 0
LayerCount: 2
Back
Fore
SplineSet
229 830 m 0xd6
 206 830 192 814 176 784 c 1
 120 812 l 1
 143 861 179 900 229 900 c 0xd6
 285 900 308 852 345 852 c 0
 365 852 380 866 398 896 c 1
 454 868 l 1
 428 811 390 782 345 782 c 0xda
 292 782 265 830 229 830 c 0xd6
467 0 m 1
 415 173 l 1
 154 173 l 1
 102 0 l 1
 6 0 l 1
 227 689 l 1
 347 689 l 1
 567 0 l 1
 467 0 l 1
177 250 m 1
 392 250 l 1
 285 610 l 1xe6
 177 250 l 1
EndSplineSet
Substitution2: "'c2sc' Capitals to Small Capitals lookup 26 subtable" atilde.sc
Substitution2: "'aalt' Access All Alternates lookup 0 subtable" atilde.sc
Position2: "'cpsp' Capital Spacing lookup 0 subtable" dx=5 dy=0 dh=10 dv=0
EndChar

StartChar: Adieresis
Encoding: 196 196 5
Width: 573
GlyphClass: 2
Flags: MW
HStem: 0 21G<6 102 6 6 467 467 467 567> 173 77<177 392 177 415 154 392> 610 79<285 285> 669 20G<227 347 347 347> 780 114<165.5 198 375 407.5>
VStem: 124 115<821 853> 334 115<821 853>
AnchorPoint: "Anchor-11" 0 0 basechar 0
AnchorPoint: "Anchor-10" 140 689 basechar 0
AnchorPoint: "Anchor-9" 287 803 basechar 0
AnchorPoint: "Anchor-8" 537 0 basechar 0
LayerCount: 2
Fore
SplineSet
182 780 m 0xde
 149 780 124 805 124 837 c 0
 124 869 149 894 182 894 c 0
 214 894 239 869 239 837 c 0
 239 805 214 780 182 780 c 0xde
391 780 m 0
 359 780 334 805 334 837 c 0
 334 869 359 894 391 894 c 0
 424 894 449 869 449 837 c 0
 449 805 424 780 391 780 c 0
415 173 m 1
 154 173 l 1
 102 0 l 1
 6 0 l 1
 227 689 l 1
 347 689 l 1
 567 0 l 1
 467 0 l 1
 415 173 l 1
392 250 m 1
 285 610 l 1xee
 177 250 l 1
 392 250 l 1
EndSplineSet
Substitution2: "'c2sc' Capitals to Small Capitals lookup 23 subtable" adieresis.sc
Substitution2: "'aalt' Access All Alternates lookup 0 subtable" adieresis.sc
Position2: "'cpsp' Capital Spacing lookup 0 subtable" dx=5 dy=0 dh=10 dv=0
EndChar

StartChar: Aring
Encoding: 197 197 9
Width: 573
GlyphClass: 2
Flags: MW
HStem: 0 21G<6 102 6 6 467 467 467 567> 173 77<177 392 177 415 154 392> 610 79<285 285> 669 20G<227 347 347 347> 750 50<270.5 303 270.5 320.5> 912 50<270.5 303.5>
VStem: 173 61<838.5 873.5 838.5 885.5> 340 61<838.5 873.5>
AnchorPoint: "Anchor-11" 0 0 basechar 0
AnchorPoint: "Anchor-10" 140 689 basechar 0
AnchorPoint: "Anchor-9" 287 689 basechar 0
AnchorPoint: "Anchor-8" 537 0 basechar 0
LayerCount: 2
Fore
SplineSet
287 750 m 0xdf
 220 750 173 797 173 856 c 0
 173 915 220 962 287 962 c 0
 354 962 401 915 401 856 c 0
 401 797 354 750 287 750 c 0xdf
287 912 m 0
 254 912 234 891 234 856 c 0
 234 821 254 800 287 800 c 0
 319 800 340 821 340 856 c 0
 340 891 320 912 287 912 c 0
415 173 m 1
 154 173 l 1
 102 0 l 1
 6 0 l 1
 227 689 l 1
 347 689 l 1
 567 0 l 1
 467 0 l 1
 415 173 l 1
392 250 m 1
 285 610 l 1xef
 177 250 l 1
 392 250 l 1
EndSplineSet
Substitution2: "'c2sc' Capitals to Small Capitals lookup 23 subtable" aring.sc
Substitution2: "'aalt' Access All Alternates lookup 0 subtable" aring.sc
Position2: "'cpsp' Capital Spacing lookup 0 subtable" dx=5 dy=0 dh=10 dv=0
EndChar
StartChar: AE
Encoding: 198 198 33
Width: 816
GlyphClass: 2
Flags: MW
HStem: 0 76<535 762 535 762> 173 77<179 400 179 418 150 400> 311 76<476 712 476 476> 613 76<316 316 401 710 401 401>
VStem: -12 774<0 76>
AnchorPoint: "Anchor-14" 0 0 basechar 0
AnchorPoint: "Anchor-13" 0 0 basechar 0
AnchorPoint: "Anchor-12" 474 689 basechar 0
AnchorPoint: "Anchor-11" 0 0 basechar 0
AnchorPoint: "Anchor-10" 0 0 basechar 0
LayerCount: 2
Back
Fore
SplineSet
535 76 m 1
 762 76 l 1
 762 0 l 1
 458 0 l 1
 418 173 l 1
 150 173 l 1
 85 0 l 1
 -12 0 l 1
 262 689 l 1
 721 689 l 1
 710 613 l 1
 401 613 l 1
 457 387 l 1
 712 387 l 1
 712 311 l 1
 476 311 l 1
 535 76 l 1
179 250 m 1
 400 250 l 1
 316 613 l 1
 179 250 l 1
EndSplineSet
Substitution2: "'c2sc' Capitals to Small Capitals lookup 26 subtable" ae.sc
Substitution2: "'aalt' Access All Alternates lookup 0 subtable" ae.sc
Position2: "'cpsp' Capital Spacing lookup 0 subtable" dx=5 dy=0 dh=10 dv=0
EndChar
StartChar: Ccedilla
Encoding: 199 199 47
Width: 560
GlyphClass: 2
Flags: MW
HStem: -241 60<329 356 329 379> -99 167<303 335> -11 79<314 314> -10 78<376 376> 623 78<295 371>
VStem: 55 101<245.5 449 245.5 461.5> 308.5 67.5 392 77<-155.5 -127.5>
AnchorPoint: "Anchor-14" 341 346 basechar 0
AnchorPoint: "Anchor-13" 0 0 basechar 0
AnchorPoint: "Anchor-12" 347 689 basechar 0
AnchorPoint: "Anchor-11" 0 0 basechar 0
AnchorPoint: "Anchor-10" 364 -241 basechar 0
LayerCount: 2
Back
Fore
SplineSet
540 65 m 1x9c
 508 31 452 -3 376 -10 c 1x9e
 376 -56 l 1xce
 444 -62 469 -100 469 -141 c 0
 469 -207 413 -241 345 -241 c 0
 307 -241 274 -232 254 -217 c 1
 279 -165 l 1
 298 -175 316 -181 342 -181 c 0
 370 -181 392 -170 392 -141 c 0xcd
 392 -114 367 -99 303 -99 c 1xce
 314 -11 l 1xac
 162 3 55 127 55 345 c 0
 55 578 185 701 341 701 c 0
 428 701 477 677 532 633 c 1
 480 572 l 1
 437 607 395 623 347 623 c 0
 243 623 156 553 156 345 c 0
 156 146 239 68 346 68 c 0
 411 68 453 97 492 126 c 1
 540 65 l 1x9c
EndSplineSet
Substitution2: "'c2sc' Capitals to Small Capitals lookup 26 subtable" ccedilla.sc
Substitution2: "'aalt' Access All Alternates lookup 0 subtable" ccedilla.sc
Position2: "'cpsp' Capital Spacing lookup 0 subtable" dx=5 dy=0 dh=10 dv=0
EndChar

StartChar: Eacute
Encoding: 201 201 25
Width: 535
GlyphClass: 2
Flags: MW
HStem: 0 76<195 481 195 481> 312 76<195 427 195 427> 613 76<195 462 195 195>
VStem: 100 95<76 312 388 613>
AnchorPoint: "Anchor-11" 291 0 basechar 0
AnchorPoint: "Anchor-10" 90 689 basechar 0
AnchorPoint: "Anchor-9" 290 689 basechar 0
AnchorPoint: "Anchor-8" 451 0 basechar 0
LayerCount: 2
Fore
SplineSet
412 834 m 1
 196 755 l 1
 172 804 l 1
 372 911 l 1
 412 834 l 1
462 613 m 1
 195 613 l 1
 195 388 l 1
 427 388 l 1
 427 312 l 1
 195 312 l 1
 195 76 l 1
 481 76 l 1
 481 0 l 1
 100 0 l 1
 100 689 l 1
 473 689 l 1
 462 613 l 1
EndSplineSet
Substitution2: "'c2sc' Capitals to Small Capitals lookup 23 subtable" eacute.sc
Substitution2: "'aalt' Access All Alternates lookup 0 subtable" eacute.sc
Position2: "'cpsp' Capital Spacing lookup 0 subtable" dx=5 dy=0 dh=10 dv=0
EndChar
StartChar: Ecircumflex
Encoding: 202 202 72
Width: 535
GlyphClass: 2
Flags: MW
HStem: 0 76<195 481 195 481> 312 76<195 427 195 427> 613 76<195 462 195 195>
VStem: 100 95<76 312 388 613>
AnchorPoint: "Anchor-14" 0 0 basechar 0
AnchorPoint: "Anchor-13" 402 786 basechar 0
AnchorPoint: "Anchor-12" 290 914 basechar 0
AnchorPoint: "Anchor-11" 451 0 basechar 0
AnchorPoint: "Anchor-10" 291 0 basechar 0
LayerCount: 2
Back
Fore
SplineSet
416 759 m 1
 289 840 l 1
 163 759 l 1
 123 804 l 1
 259 914 l 1
 320 914 l 1
 455 804 l 1
 416 759 l 1
473 689 m 1
 462 613 l 1
 195 613 l 1
 195 388 l 1
 427 388 l 1
 427 312 l 1
 195 312 l 1
 195 76 l 1
 481 76 l 1
 481 0 l 1
 100 0 l 1
 100 689 l 1
 473 689 l 1
EndSplineSet
Substitution2: "'c2sc' Capitals to Small Capitals lookup 26 subtable" ecircumflex.sc
Substitution2: "'aalt' Access All Alternates lookup 0 subtable" ecircumflex.sc
Position2: "'cpsp' Capital Spacing lookup 0 subtable" dx=5 dy=0 dh=10 dv=0
EndChar

StartChar: Igrave
Encoding: 204 204 50
Width: 296
GlyphClass: 2
Flags: MW
HStem: 0 21G<100 196 100 100> 669 20G<100 196 196 196>
VStem: 100 96<0 689>
AnchorPoint: "Anchor-11" 0 0 basechar 0
AnchorPoint: "Anchor-10" 90 689 basechar 0
AnchorPoint: "Anchor-9" 148 689 basechar 0
AnchorPoint: "Anchor-8" 206 0 basechar 0
LayerCount: 2
Fore
SplineSet
258 804 m 1
 234 755 l 1
 18 834 l 1
 57 911 l 1
 258 804 l 1
196 0 m 1
 100 0 l 1
 100 689 l 1
 196 689 l 1
 196 0 l 1
EndSplineSet
Substitution2: "'c2sc' Capitals to Small Capitals lookup 23 subtable" igrave.sc
Substitution2: "'aalt' Access All Alternates lookup 0 subtable" igrave.sc
Position2: "'cpsp' Capital Spacing lookup 0 subtable" dx=5 dy=0 dh=10 dv=0
EndChar
StartChar: Iacute
Encoding: 205 205 120
Width: 295
GlyphClass: 2
Flags: MW
HStem: 0 21G<100 195 100 100> 669 20G<100 195 195 195>
VStem: 100 95<0 689 0 689>
AnchorPoint: "Anchor-14" 0 0 basechar 0
AnchorPoint: "Anchor-13" 0 0 basechar 0
AnchorPoint: "Anchor-12" 149 911 basechar 0
AnchorPoint: "Anchor-11" 205 0 basechar 0
AnchorPoint: "Anchor-10" 147 0 basechar 0
LayerCount: 2
Back
Fore
SplineSet
227 911 m 1
 267 834 l 1
 51 755 l 1
 27 804 l 1
 227 911 l 1
195 689 m 1
 195 0 l 1
 100 0 l 1
 100 689 l 1
 195 689 l 1
EndSplineSet
Substitution2: "'c2sc' Capitals to Small Capitals lookup 26 subtable" iacute.sc
Substitution2: "'aalt' Access All Alternates lookup 0 subtable" iacute.sc
Position2: "'cpsp' Capital Spacing lookup 0 subtable" dx=5 dy=0 dh=10 dv=0
EndChar

StartChar: Icircumflex
Encoding: 206 206 47
Width: 296
GlyphClass: 2
Flags: MW
HStem: 0 21G<100 196 100 100> 669 20G<100 196 196 196> 840 74<148 148>
VStem: 100 96<0 689>
AnchorPoint: "Anchor-11" 0 0 basechar 0
AnchorPoint: "Anchor-10" 90 689 basechar 0
AnchorPoint: "Anchor-9" 148 689 basechar 0
AnchorPoint: "Anchor-8" 206 0 basechar 0
LayerCount: 2
Fore
SplineSet
148 840 m 1
 22 759 l 1
 -18 804 l 1
 118 914 l 1
 179 914 l 1
 314 804 l 1
 275 759 l 1
 148 840 l 1
196 0 m 1
 100 0 l 1
 100 689 l 1
 196 689 l 1
 196 0 l 1
EndSplineSet
Substitution2: "'c2sc' Capitals to Small Capitals lookup 23 subtable" icircumflex.sc
Substitution2: "'aalt' Access All Alternates lookup 0 subtable" icircumflex.sc
Position2: "'cpsp' Capital Spacing lookup 0 subtable" dx=5 dy=0 dh=10 dv=0
EndChar

StartChar: Idieresis
Encoding: 207 207 48
Width: 296
GlyphClass: 2
Flags: MW
HStem: 0 21G<100 196 100 100> 669 20G<100 196 196 196> 780 114<26.5 59 236 268.5>
VStem: -15 115<821 853> 100 96<0 689> 195 115<821 853>
AnchorPoint: "Anchor-11" 0 0 basechar 0
AnchorPoint: "Anchor-10" 90 689 basechar 0
AnchorPoint: "Anchor-9" 148 803 basechar 0
AnchorPoint: "Anchor-8" 206 0 basechar 0
LayerCount: 2
Fore
SplineSet
43 894 m 0xf4
 75 894 100 869 100 837 c 0
 100 805 75 780 43 780 c 0
 10 780 -15 805 -15 837 c 0
 -15 869 10 894 43 894 c 0xf4
252 894 m 0
 285 894 310 869 310 837 c 0
 310 805 285 780 252 780 c 0
 220 780 195 805 195 837 c 0
 195 869 220 894 252 894 c 0
196 0 m 1xe8
 100 0 l 1
 100 689 l 1
 196 689 l 1
 196 0 l 1xe8
EndSplineSet
Substitution2: "'c2sc' Capitals to Small Capitals lookup 23 subtable" idieresis.sc
Substitution2: "'aalt' Access All Alternates lookup 0 subtable" idieresis.sc
Position2: "'cpsp' Capital Spacing lookup 0 subtable" dx=5 dy=0 dh=10 dv=0
EndChar

StartChar: Ntilde
Encoding: 209 209 70
Width: 683
GlyphClass: 2
Flags: MW
HStem: 0 21G<100 189 100 100 456 583 456 456> 0 103<507 507 507 583 456 507> 585 104<176 176> 669 20G<100 224 224 224 494 583 583 583> 782 70<392.5 421 392.5 435> 830 70<283.5 313>
VStem: 100 89<0 316 0 689> 494 89<313 689>
AnchorPoint: "Anchor-11" 343 0 basechar 0
AnchorPoint: "Anchor-10" 0 0 basechar 0
AnchorPoint: "Anchor-9" 353 689 basechar 0
AnchorPoint: "Anchor-8" 0 0 basechar 0
LayerCount: 2
Fore
SplineSet
414 782 m 0x9b
 355 782 331 830 295 830 c 0
 272 830 258 814 242 784 c 1
 186 812 l 1
 209 861 245 900 296 900 c 0x97
 350 900 374 852 411 852 c 0
 431 852 446 866 464 896 c 1
 520 868 l 1
 494 811 456 782 414 782 c 0x9b
583 0 m 1x97
 456 0 l 1
 176 585 l 1xa7
 181 528 189 444 189 316 c 2
 189 0 l 1
 100 0 l 1
 100 689 l 1
 224 689 l 1
 507 103 l 1x57
 505 119 494 229 494 313 c 2
 494 689 l 1
 583 689 l 1
 583 0 l 1x97
EndSplineSet
Substitution2: "'c2sc' Capitals to Small Capitals lookup 23 subtable" ntilde.sc
Substitution2: "'aalt' Access All Alternates lookup 0 subtable" ntilde.sc
Position2: "'cpsp' Capital Spacing lookup 0 subtable" dx=5 dy=0 dh=10 dv=0
EndChar

StartChar: Otilde
Encoding: 213 213 81
Width: 692
GlyphClass: 2
Flags: MW
HStem: -12 78<290 404 290 432.5> 623 78<288.5 405> 782 70<389.5 418 389.5 432> 830 70<280.5 310>
VStem: 55 101<243.5 442.5 243.5 456.5> 536 101<244 443>
AnchorPoint: "Anchor-11" 0 0 basechar 0
AnchorPoint: "Anchor-10" 113 689 basechar 0
AnchorPoint: "Anchor-9" 350 689 basechar 0
AnchorPoint: "Anchor-8" 0 0 basechar 0
LayerCount: 2
Fore
SplineSet
411 782 m 0xec
 352 782 328 830 292 830 c 0
 269 830 255 814 239 784 c 1
 183 812 l 1
 206 861 242 900 293 900 c 0xdc
 347 900 371 852 408 852 c 0
 428 852 443 866 461 896 c 1
 517 868 l 1
 491 811 453 782 411 782 c 0xec
346 701 m 0
 519 701 637 576 637 344 c 0
 637 116 519 -12 346 -12 c 0
 174 -12 55 112 55 343 c 0
 55 570 174 701 346 701 c 0
346 623 m 0
 231 623 156 542 156 343 c 0
 156 144 234 66 346 66 c 0
 462 66 536 144 536 344 c 0
 536 542 464 623 346 623 c 0
EndSplineSet
Substitution2: "'c2sc' Capitals to Small Capitals lookup 23 subtable" otilde.sc
Substitution2: "'aalt' Access All Alternates lookup 0 subtable" otilde.sc
Position2: "'cpsp' Capital Spacing lookup 0 subtable" dx=5 dy=0 dh=10 dv=0
EndChar
StartChar: multiply
Encoding: 215 215 2266
Width: 500
GlyphClass: 2
Flags: MW
HStem: 129 357<128 128 128 372>
VStem: 72 356<185 185 185 429>
LayerCount: 2
Back
Fore
SplineSet
372 486 m 1
 428 429 l 1
 306 307 l 1
 428 185 l 1
 372 129 l 1
 250 251 l 1
 128 129 l 1
 72 185 l 1
 194 307 l 1
 72 429 l 1
 128 486 l 1
 250 363 l 1
 372 486 l 1
EndSplineSet
Substitution2: "'onum' Oldstyle Figures lookup 25 subtable" multiply.osf
Substitution2: "'tnum' Tabular Numbers lookup 24 subtable" multiply.tf
AlternateSubs2: "'aalt' Access All Alternates lookup 1 subtable" multiply.tf multiply.osf
EndChar

StartChar: Uacute
Encoding: 218 218 102
Width: 662
GlyphClass: 2
Flags: MW
HStem: -12 80<281 379.5 281 407.5> 669 20G<90 185 185 185 476 572 572 572>
VStem: 90 95<221 228 228 689> 476 96<228 689>
AnchorPoint: "Anchor-11" 0 0 basechar 0
AnchorPoint: "Anchor-10" 0 0 basechar 0
AnchorPoint: "Anchor-9" 331 689 basechar 0
AnchorPoint: "Anchor-8" 428 0 basechar 0
LayerCount: 2
Fore
SplineSet
453 834 m 1
 237 755 l 1
 213 804 l 1
 413 911 l 1
 453 834 l 1
572 221 m 2
 572 84 485 -12 330 -12 c 0
 173 -12 90 84 90 221 c 2
 90 689 l 1
 185 689 l 1
 185 228 l 2
 185 121 232 68 330 68 c 0
 429 68 476 121 476 228 c 2
 476 689 l 1
 572 689 l 1
 572 221 l 2
EndSplineSet
Substitution2: "'c2sc' Capitals to Small Capitals lookup 23 subtable" uacute.sc
Substitution2: "'aalt' Access All Alternates lookup 0 subtable" uacute.sc
Position2: "'cpsp' Capital Spacing lookup 0 subtable" dx=5 dy=0 dh=10 dv=0
EndChar
StartChar: Ucircumflex
Encoding: 219 219 267
Width: 662
GlyphClass: 2
Flags: MW
HStem: -12 80<281 379.5 281 407.5> 669 20G<90 185 185 185 476 572 572 572>
VStem: 90 95<221 228 228 689> 476 96<228 689>
AnchorPoint: "Anchor-14" 0 0 basechar 0
AnchorPoint: "Anchor-13" 443 786 basechar 0
AnchorPoint: "Anchor-12" 331 914 basechar 0
AnchorPoint: "Anchor-11" 428 0 basechar 0
AnchorPoint: "Anchor-10" 331 0 basechar 0
LayerCount: 2
Back
Fore
SplineSet
457 759 m 1
 330 840 l 1
 204 759 l 1
 164 804 l 1
 300 914 l 1
 361 914 l 1
 496 804 l 1
 457 759 l 1
572 689 m 1
 572 221 l 2
 572 84 485 -12 330 -12 c 0
 173 -12 90 84 90 221 c 2
 90 689 l 1
 185 689 l 1
 185 228 l 2
 185 121 232 68 330 68 c 0
 429 68 476 121 476 228 c 2
 476 689 l 1
 572 689 l 1
EndSplineSet
Substitution2: "'c2sc' Capitals to Small Capitals lookup 26 subtable" ucircumflex.sc
Substitution2: "'aalt' Access All Alternates lookup 0 subtable" ucircumflex.sc
Position2: "'cpsp' Capital Spacing lookup 0 subtable" dx=5 dy=0 dh=10 dv=0
EndChar
StartChar: Yacute
Encoding: 221 221 303
Width: 550
GlyphClass: 2
Flags: MW
HStem: 0 21G<227 323 227 227> 669 20G<5 110 110 110 446 545 545 545>
VStem: 227 96<0 264 264 264>
AnchorPoint: "Anchor-14" 0 0 basechar 0
AnchorPoint: "Anchor-13" 0 0 basechar 0
AnchorPoint: "Anchor-12" 277 911 basechar 0
AnchorPoint: "Anchor-11" 0 0 basechar 0
AnchorPoint: "Anchor-10" 275 0 basechar 0
LayerCount: 2
Back
Fore
SplineSet
355 911 m 1
 395 834 l 1
 179 755 l 1
 155 804 l 1
 355 911 l 1
545 689 m 1
 323 265 l 1
 323 0 l 1
 227 0 l 1
 227 264 l 1
 5 689 l 1
 110 689 l 1
 278 348 l 1
 446 689 l 1
 545 689 l 1
EndSplineSet
Substitution2: "'c2sc' Capitals to Small Capitals lookup 26 subtable" yacute.sc
Substitution2: "'aalt' Access All Alternates lookup 0 subtable" yacute.sc
Position2: "'cpsp' Capital Spacing lookup 0 subtable" dx=5 dy=0 dh=10 dv=0
EndChar
StartChar: germandbls
Encoding: 223 223 634
Width: 593
GlyphClass: 2
Flags: MW
HStem: -12 74<351.5 393 350 421.5> 0 21G<95 187 95 95> 678 72<260.5 320.5>
VStem: 95 92<0 539 0 605.5> 278 87<385 459 385 468> 388 88<557.5 627.5> 459 94<129 229>
LayerCount: 2
Back
Fore
SplineSet
296 750 m 0x7c
 408 750 476 687 476 607 c 0
 476 499 365 491 365 427 c 0
 365 343 553 336 553 162 c 0
 553 54 468 -12 375 -12 c 0
 328 -12 299 -3 273 11 c 1
 300 75 l 1
 314 68 334 62 366 62 c 0
 420 62 459 95 459 163 c 0xba
 459 295 278 297 278 420 c 0
 278 516 388 513 388 602 c 0
 388 653 346 678 295 678 c 0
 226 678 187 634 187 539 c 2
 187 0 l 1
 95 0 l 1
 95 539 l 2
 95 672 168 750 296 750 c 0x7c
EndSplineSet
Substitution2: "'smcp' Lowercase to Small Capitals lookup 27 subtable" germandbls.sc
Substitution2: "'aalt' Access All Alternates lookup 0 subtable" germandbls.sc
EndChar

StartChar: ccedilla
Encoding: 231 231 150
Width: 478
GlyphClass: 2
Flags: MW
HStem: -241 60<261 288 261 311> -217 21G<186 186> -99 43<235 308> -11 77<308 308> 463 76<249.5 313>
VStem: 57 99<192 329.5 192 343> 240.5 67.5 324 77<-155.5 -127.5>
AnchorPoint: "Anchor-11" 284 0 basechar 0
AnchorPoint: "Anchor-10" 0 0 basechar 0
AnchorPoint: "Anchor-9" 289 527 basechar 0
AnchorPoint: "Anchor-8" 0 0 basechar 0
LayerCount: 2
Fore
SplineSet
448 46 m 1x7e
 406 12 360 -7 308 -11 c 1
 308 -56 l 1x7e
 376 -62 401 -100 401 -141 c 0
 401 -207 345 -241 277 -241 c 0xbf
 239 -241 206 -232 186 -217 c 1x7e
 211 -165 l 1
 230 -175 248 -181 274 -181 c 0
 302 -181 324 -170 324 -141 c 0xbf
 324 -114 299 -99 235 -99 c 1
 246 -9 l 1
 128 9 57 106 57 259 c 0
 57 427 144 539 287 539 c 0
 349 539 399 523 448 482 c 1
 403 422 l 1
 368 450 335 463 291 463 c 0
 208 463 156 398 156 261 c 0
 156 123 208 66 291 66 c 0
 335 66 366 80 404 109 c 1
 448 46 l 1x7e
EndSplineSet
Substitution2: "'smcp' Lowercase to Small Capitals lookup 24 subtable" ccedilla.sc
Substitution2: "'aalt' Access All Alternates lookup 0 subtable" ccedilla.sc
EndChar

StartChar: iacute
Encoding: 237 237 178
Width: 282
GlyphClass: 2
Flags: MW
HStem: 0 21G<95 187 95 95> 507 20G<95 187 187 187>
VStem: 95 92<0 527>
AnchorPoint: "Anchor-11" 0 0 basechar 0
AnchorPoint: "Anchor-10" 0 0 basechar 0
AnchorPoint: "Anchor-9" 141 527 basechar 0
AnchorPoint: "Anchor-8" 197 0 basechar 0
LayerCount: 2
Fore
SplineSet
251 724 m 1
 39 638 l 1
 11 687 l 1
 210 801 l 1
 251 724 l 1
187 0 m 1
 95 0 l 1
 95 527 l 1
 187 527 l 1
 187 0 l 1
EndSplineSet
Substitution2: "'smcp' Lowercase to Small Capitals lookup 24 subtable" iacute.sc
Substitution2: "'aalt' Access All Alternates lookup 0 subtable" iacute.sc
EndChar
StartChar: icircumflex
Encoding: 238 238 483
Width: 282
GlyphClass: 2
Flags: MW
HStem: 0 21G<95 187 95 95> 507 20G<95 187 187 187>
VStem: 95 92<0 527 0 527>
AnchorPoint: "Anchor-14" 0 0 basechar 0
AnchorPoint: "Anchor-13" 0 0 basechar 0
AnchorPoint: "Anchor-12" 143 792 basechar 0
AnchorPoint: "Anchor-11" 197 0 basechar 0
AnchorPoint: "Anchor-10" 141 0 basechar 0
LayerCount: 2
Back
Fore
SplineSet
14 634 m 1
 -25 679 l 1
 110 792 l 1
 171 792 l 1
 307 679 l 1
 267 634 l 1
 141 718 l 1
 14 634 l 1
187 527 m 1
 187 0 l 1
 95 0 l 1
 95 527 l 1
 187 527 l 1
EndSplineSet
Substitution2: "'smcp' Lowercase to Small Capitals lookup 27 subtable" icircumflex.sc
Substitution2: "'aalt' Access All Alternates lookup 0 subtable" icircumflex.sc
EndChar

StartChar: idieresis
Encoding: 239 239 181
Width: 282
GlyphClass: 2
Flags: MW
HStem: 0 21G<95 187 95 95> 507 20G<95 187 187 187> 654 114<19.5 52 229 261.5>
VStem: -22 115<695 727> 95 92<0 527> 188 115<695 727>
AnchorPoint: "Anchor-11" 0 0 basechar 0
AnchorPoint: "Anchor-10" 0 0 basechar 0
AnchorPoint: "Anchor-9" 141 677 basechar 0
AnchorPoint: "Anchor-8" 197 0 basechar 0
LayerCount: 2
Fore
SplineSet
36 768 m 0
 68 768 93 743 93 711 c 0
 93 679 68 654 36 654 c 0
 3 654 -22 679 -22 711 c 0
 -22 743 3 768 36 768 c 0
245 768 m 0
 278 768 303 743 303 711 c 0
 303 679 278 654 245 654 c 0
 213 654 188 679 188 711 c 0
 188 743 213 768 245 768 c 0
187 0 m 1xe8
 95 0 l 1
 95 527 l 1
 187 527 l 1
 187 0 l 1xe8
EndSplineSet
Substitution2: "'smcp' Lowercase to Small Capitals lookup 24 subtable" idieresis.sc
Substitution2: "'aalt' Access All Alternates lookup 0 subtable" idieresis.sc
EndChar

StartChar: eth
Encoding: 240 240 154
Width: 570
GlyphClass: 2
Flags: MW
HStem: -12 73<239.5 317.5 239.5 346> 403 72<225 290.5 189.5 303.5> 551 20G<151 151> 682 20G<281 281> 730 20G<132 132>
VStem: 57 94<180.5 283 180.5 294> 415 93<198.5 276.5>
LayerCount: 2
Fore
SplineSet
342 664 m 1
 466 570 508 445 508 265 c 0
 508 97 414 -12 278 -12 c 0
 155 -12 57 77 57 235 c 0
 57 353 121 475 258 475 c 0
 323 475 370 450 405 408 c 1
 389 491 353 555 286 607 c 1
 214 539 l 1
 151 571 l 1
 225 645 l 1
 186 662 153 672 112 680 c 1
 132 750 l 1
 188 739 234 725 281 702 c 1
 351 776 l 1
 405 729 l 1
 342 664 l 1
277 61 m 0
 358 61 415 131 415 266 c 0
 415 287 414 306 413 325 c 1
 379 376 335 403 272 403 c 0
 178 403 151 327 151 239 c 0
 151 122 202 61 277 61 c 0
EndSplineSet
Substitution2: "'smcp' Lowercase to Small Capitals lookup 24 subtable" eth.sc
Substitution2: "'aalt' Access All Alternates lookup 0 subtable" eth.sc
EndChar
StartChar: ntilde
Encoding: 241 241 552
Width: 586
GlyphClass: 2
Flags: MW
HStem: 0 21G<95 187 95 95 404 496 404 404> 467 72<308.5 346.5> 507 20G<95 174 174 174> 656 70<337.5 366 337.5 378.5> 704 70<228.5 258> 722 20G<465 465>
VStem: 95 92<0 374 0 527> 404 92<0 365 365 378 0 404.5>
AnchorPoint: "Anchor-14" 0 0 basechar 0
AnchorPoint: "Anchor-13" 0 0 basechar 0
AnchorPoint: "Anchor-12" 298 730 basechar 0
AnchorPoint: "Anchor-11" 0 0 basechar 0
AnchorPoint: "Anchor-10" 293 0 basechar 0
LayerCount: 2
Back
Fore
SplineSet
240 704 m 0xcb
 217 704 203 688 187 658 c 1
 131 686 l 1
 154 735 190 774 240 774 c 0xcb
 296 774 319 726 356 726 c 0
 376 726 391 740 409 770 c 1xd3
 465 742 l 1xc7
 439 685 401 656 356 656 c 0xd3
 303 656 276 704 240 704 c 0xcb
343 539 m 0xc7
 440 539 496 478 496 378 c 2
 496 0 l 1
 404 0 l 1
 404 365 l 2
 404 444 372 467 321 467 c 0
 262 467 222 430 187 374 c 1xc7
 187 0 l 1
 95 0 l 1
 95 527 l 1
 174 527 l 1xa7
 182 449 l 1
 218 503 274 539 343 539 c 0xc7
EndSplineSet
Substitution2: "'smcp' Lowercase to Small Capitals lookup 27 subtable" ntilde.sc
Substitution2: "'aalt' Access All Alternates lookup 0 subtable" ntilde.sc
EndChar

StartChar: ocircumflex
Encoding: 244 244 211
Width: 584
GlyphClass: 2
Flags: MW
HStem: -12 74<248 336 248 366.5> 465 74<249 336.5> 718 74<292 292>
VStem: 57 99<194.5 332 194.5 344.5> 428 99<195 332.5>
AnchorPoint: "Anchor-11" 0 0 basechar 0
AnchorPoint: "Anchor-10" 0 0 basechar 0
AnchorPoint: "Anchor-9" 292 527 basechar 0
AnchorPoint: "Anchor-8" 0 0 basechar 0
LayerCount: 2
Fore
SplineSet
126 679 m 1
 261 792 l 1
 322 792 l 1
 458 679 l 1
 418 634 l 1
 292 718 l 1
 165 634 l 1
 126 679 l 1
293 539 m 0
 443 539 527 431 527 264 c 0
 527 101 441 -12 292 -12 c 0
 142 -12 57 96 57 263 c 0
 57 426 143 539 293 539 c 0
293 465 m 0
 205 465 156 401 156 263 c 0
 156 126 204 62 292 62 c 0
 380 62 428 126 428 264 c 0
 428 401 380 465 293 465 c 0
EndSplineSet
Substitution2: "'smcp' Lowercase to Small Capitals lookup 24 subtable" ocircumflex.sc
Substitution2: "'aalt' Access All Alternates lookup 0 subtable" ocircumflex.sc
EndChar

StartChar: otilde
Encoding: 245 245 218
Width: 584
GlyphClass: 2
Flags: MW
HStem: -12 74<248 336 248 366.5> 465 74<249 336.5> 656 70<331.5 360 331.5 374> 704 70<222.5 252> 722 20G<459 459>
VStem: 57 99<194.5 332 194.5 344.5> 428 99<195 332.5>
AnchorPoint: "Anchor-11" 0 0 basechar 0
AnchorPoint: "Anchor-10" 0 0 basechar 0
AnchorPoint: "Anchor-9" 292 527 basechar 0
AnchorPoint: "Anchor-8" 0 0 basechar 0
LayerCount: 2
Fore
SplineSet
353 656 m 0xe6
 294 656 270 704 234 704 c 0
 211 704 197 688 181 658 c 1
 125 686 l 1
 148 735 184 774 235 774 c 0xd6
 289 774 313 726 350 726 c 0
 370 726 385 740 403 770 c 1xe6
 459 742 l 1xce
 433 685 395 656 353 656 c 0xe6
293 539 m 0xce
 443 539 527 431 527 264 c 0
 527 101 441 -12 292 -12 c 0
 142 -12 57 96 57 263 c 0
 57 426 143 539 293 539 c 0xce
293 465 m 0
 205 465 156 401 156 263 c 0
 156 126 204 62 292 62 c 0
 380 62 428 126 428 264 c 0
 428 401 380 465 293 465 c 0
EndSplineSet
Substitution2: "'smcp' Lowercase to Small Capitals lookup 24 subtable" otilde.sc
Substitution2: "'aalt' Access All Alternates lookup 0 subtable" otilde.sc
EndChar
StartChar: odieresis
Encoding: 246 246 566
Width: 584
GlyphClass: 2
Flags: MW
HStem: -12 74<248 336 248 366.5> 465 74<249 336.5> 654 114<170.5 203 380 412.5>
VStem: 57 99<194.5 332 194.5 344.5> 129 115<695 727> 339 115<695 727> 428 99<195 332.5>
AnchorPoint: "Anchor-14" 0 0 basechar 0
AnchorPoint: "Anchor-13" 476 527 basechar 0
AnchorPoint: "Anchor-12" 294 768 basechar 0
AnchorPoint: "Anchor-11" 380 0 basechar 0
AnchorPoint: "Anchor-10" 292 0 basechar 0
LayerCount: 2
Back
Fore
SplineSet
187 768 m 0xec
 219 768 244 743 244 711 c 0
 244 679 219 654 187 654 c 0
 154 654 129 679 129 711 c 0
 129 743 154 768 187 768 c 0xec
396 768 m 0
 429 768 454 743 454 711 c 0
 454 679 429 654 396 654 c 0
 364 654 339 679 339 711 c 0
 339 743 364 768 396 768 c 0
293 539 m 0xd2
 443 539 527 431 527 264 c 0
 527 101 441 -12 292 -12 c 0
 142 -12 57 96 57 263 c 0
 57 426 143 539 293 539 c 0xd2
293 465 m 0
 205 465 156 401 156 263 c 0
 156 126 204 62 292 62 c 0
 380 62 428 126 428 264 c 0
 428 401 380 465 293 465 c 0
EndSplineSet
Substitution2: "'smcp' Lowercase to Small Capitals lookup 27 subtable" odieresis.sc
Substitution2: "'aalt' Access All Alternates lookup 0 subtable" odieresis.sc
EndChar

StartChar: oslash
Encoding: 248 248 216
Width: 584
GlyphClass: 2
Flags: MW
HStem: -12 74<285.5 336 285.5 366.5> -7 21G<241 241> 465 74<249 299.5> 514 20G<344 344>
VStem: 57 99<216.5 332 216.5 344.5> 428 99<195 310>
AnchorPoint: "Anchor-11" 0 0 basechar 0
AnchorPoint: "Anchor-10" 0 0 basechar 0
AnchorPoint: "Anchor-9" 292 527 basechar 0
AnchorPoint: "Anchor-8" 0 0 basechar 0
LayerCount: 2
Fore
SplineSet
416 508 m 1xac
 488 464 527 378 527 264 c 0
 527 101 441 -12 292 -12 c 0xac
 274 -12 257 -10 241 -7 c 1
 202 -130 l 1
 127 -108 l 1
 169 19 l 1
 97 63 57 149 57 263 c 0
 57 426 143 539 293 539 c 0x6c
 311 539 328 537 344 534 c 1x9c
 383 656 l 1
 458 634 l 1
 416 508 l 1xac
293 465 m 0
 205 465 156 401 156 263 c 0
 156 170 173 117 205 89 c 1
 329 462 l 1
 318 464 306 465 293 465 c 0
292 62 m 0
 380 62 428 126 428 264 c 0
 428 356 411 409 380 438 c 1
 257 65 l 1
 268 63 279 62 292 62 c 0
EndSplineSet
Substitution2: "'smcp' Lowercase to Small Capitals lookup 24 subtable" oslash.sc
Substitution2: "'aalt' Access All Alternates lookup 0 subtable" oslash.sc
EndChar
StartChar: ugrave
Encoding: 249 249 674
Width: 582
GlyphClass: 2
Flags: MW
HStem: -12 72<234.5 274.5> 0 21G<408 487 408 408> 507 20G<90 182 182 182 395 487 487 487>
VStem: 90 92<149 159 159 527> 395 92<151 527 0 527>
AnchorPoint: "Anchor-14" 0 0 basechar 0
AnchorPoint: "Anchor-13" 497 527 basechar 0
AnchorPoint: "Anchor-12" 301 801 basechar 0
AnchorPoint: "Anchor-11" 497 0 basechar 0
AnchorPoint: "Anchor-10" 289 0 basechar 0
LayerCount: 2
Back
Fore
SplineSet
220 801 m 1xb8
 419 687 l 1
 391 638 l 1
 179 724 l 1
 220 801 l 1xb8
487 527 m 1
 487 0 l 1
 408 0 l 1x78
 401 82 l 1
 361 18 312 -12 237 -12 c 0
 145 -12 90 46 90 149 c 2
 90 527 l 1
 182 527 l 1
 182 159 l 2
 182 87 206 60 263 60 c 0
 320 60 363 98 395 151 c 1
 395 527 l 1
 487 527 l 1
EndSplineSet
Substitution2: "'smcp' Lowercase to Small Capitals lookup 27 subtable" ugrave.sc
Substitution2: "'aalt' Access All Alternates lookup 0 subtable" ugrave.sc
EndChar

StartChar: uacute
Encoding: 250 250 240
Width: 582
GlyphClass: 2
Flags: MW
HStem: -12 72<234.5 274.5> 0 21G<408 487 408 408> 507 20G<90 182 182 182 395 487 487 487>
VStem: 90 92<149 159 159 527> 395 92<151 527>
AnchorPoint: "Anchor-11" 0 0 basechar 0
AnchorPoint: "Anchor-10" 0 0 basechar 0
AnchorPoint: "Anchor-9" 289 527 basechar 0
AnchorPoint: "Anchor-8" 497 0 basechar 0
LayerCount: 2
Fore
SplineSet
399 724 m 1xb8
 187 638 l 1
 159 687 l 1
 358 801 l 1
 399 724 l 1xb8
487 0 m 1x78
 408 0 l 1x78
 401 82 l 1
 361 18 312 -12 237 -12 c 0
 145 -12 90 46 90 149 c 2
 90 527 l 1
 182 527 l 1
 182 159 l 2
 182 87 206 60 263 60 c 0
 320 60 363 98 395 151 c 1xb8
 395 527 l 1
 487 527 l 1
 487 0 l 1x78
EndSplineSet
Substitution2: "'smcp' Lowercase to Small Capitals lookup 24 subtable" uacute.sc
Substitution2: "'aalt' Access All Alternates lookup 0 subtable" uacute.sc
EndChar

StartChar: ucircumflex
Encoding: 251 251 242
Width: 582
GlyphClass: 2
Flags: MW
HStem: -12 72<234.5 274.5> 0 21G<408 487 408 408> 507 20G<90 182 182 182 395 487 487 487> 718 74<289 289>
VStem: 90 92<149 159 159 527> 395 92<151 527>
AnchorPoint: "Anchor-11" 0 0 basechar 0
AnchorPoint: "Anchor-10" 0 0 basechar 0
AnchorPoint: "Anchor-9" 289 527 basechar 0
AnchorPoint: "Anchor-8" 497 0 basechar 0
LayerCount: 2
Fore
SplineSet
123 679 m 1xbc
 258 792 l 1
 319 792 l 1
 455 679 l 1
 415 634 l 1
 289 718 l 1
 162 634 l 1
 123 679 l 1xbc
487 0 m 1x7c
 408 0 l 1x7c
 401 82 l 1
 361 18 312 -12 237 -12 c 0
 145 -12 90 46 90 149 c 2
 90 527 l 1
 182 527 l 1
 182 159 l 2
 182 87 206 60 263 60 c 0
 320 60 363 98 395 151 c 1xbc
 395 527 l 1
 487 527 l 1
 487 0 l 1x7c
EndSplineSet
Substitution2: "'smcp' Lowercase to Small Capitals lookup 24 subtable" ucircumflex.sc
Substitution2: "'aalt' Access All Alternates lookup 0 subtable" ucircumflex.sc
EndChar

StartChar: udieresis
Encoding: 252 252 243
Width: 582
GlyphClass: 2
Flags: MW
HStem: -12 72<234.5 274.5> 0 21G<408 487 408 408> 507 20G<90 182 182 182 395 487 487 487> 654 114<167.5 200 377 409.5>
VStem: 90 92<149 159 159 527> 126 115<695 727> 336 115<695 727> 395 92<151 527>
AnchorPoint: "Anchor-11" 0 0 basechar 0
AnchorPoint: "Anchor-10" 0 0 basechar 0
AnchorPoint: "Anchor-9" 289 677 basechar 0
AnchorPoint: "Anchor-8" 497 0 basechar 0
LayerCount: 2
Fore
SplineSet
184 768 m 0xb6
 216 768 241 743 241 711 c 0
 241 679 216 654 184 654 c 0
 151 654 126 679 126 711 c 0
 126 743 151 768 184 768 c 0xb6
393 768 m 0
 426 768 451 743 451 711 c 0
 451 679 426 654 393 654 c 0
 361 654 336 679 336 711 c 0
 336 743 361 768 393 768 c 0
487 0 m 1x79
 408 0 l 1x79
 401 82 l 1
 361 18 312 -12 237 -12 c 0
 145 -12 90 46 90 149 c 2
 90 527 l 1
 182 527 l 1
 182 159 l 2
 182 87 206 60 263 60 c 0
 320 60 363 98 395 151 c 1xb9
 395 527 l 1
 487 527 l 1
 487 0 l 1x79
EndSplineSet
Substitution2: "'smcp' Lowercase to Small Capitals lookup 24 subtable" udieresis.sc
Substitution2: "'aalt' Access All Alternates lookup 0 subtable" udieresis.sc
EndChar
StartChar: yacute
Encoding: 253 253 704
Width: 492
GlyphClass: 2
Flags: MW
HStem: -213 21G<61 61> 0 21G<187 218 187 187> 507 20G<10 108 108 108 387 482 482 482>
VStem: 10 472<527 527>
AnchorPoint: "Anchor-14" 0 0 basechar 0
AnchorPoint: "Anchor-13" 0 0 basechar 0
AnchorPoint: "Anchor-12" 248 801 basechar 0
AnchorPoint: "Anchor-11" 0 0 basechar 0
AnchorPoint: "Anchor-10" 249 -202 basechar 0
LayerCount: 2
Back
Fore
SplineSet
325 801 m 1
 366 724 l 1
 154 638 l 1
 126 687 l 1
 325 801 l 1
482 527 m 1
 306 -3 l 2
 269 -115 207 -197 61 -213 c 1
 51 -141 l 1
 158 -123 188 -82 218 0 c 1
 187 0 l 1
 10 527 l 1
 108 527 l 1
 249 67 l 1
 387 527 l 1
 482 527 l 1
EndSplineSet
Substitution2: "'smcp' Lowercase to Small Capitals lookup 27 subtable" yacute.sc
Substitution2: "'aalt' Access All Alternates lookup 0 subtable" yacute.sc
EndChar

StartChar: Amacron
Encoding: 256 256 7
Width: 573
GlyphClass: 2
Flags: MW
HStem: 0 21G<6 102 6 6 467 467 467 567> 173 77<177 392 177 415 154 392> 610 79<285 285> 669 20G<227 347 347 347> 787 69<150 423 150 423>
VStem: 150 273<787 856 787 856>
AnchorPoint: "Anchor-11" 0 0 basechar 0
AnchorPoint: "Anchor-10" 140 689 basechar 0
AnchorPoint: "Anchor-9" 287 689 basechar 0
AnchorPoint: "Anchor-8" 537 0 basechar 0
LayerCount: 2
Fore
SplineSet
423 787 m 1xdc
 150 787 l 1
 150 856 l 1
 423 856 l 1
 423 787 l 1xdc
415 173 m 1
 154 173 l 1
 102 0 l 1
 6 0 l 1
 227 689 l 1
 347 689 l 1
 567 0 l 1
 467 0 l 1
 415 173 l 1
392 250 m 1
 285 610 l 1xec
 177 250 l 1
 392 250 l 1
EndSplineSet
Substitution2: "'c2sc' Capitals to Small Capitals lookup 23 subtable" amacron.sc
Substitution2: "'aalt' Access All Alternates lookup 0 subtable" amacron.sc
Position2: "'cpsp' Capital Spacing lookup 0 subtable" dx=5 dy=0 dh=10 dv=0
EndChar
StartChar: Aogonek
Encoding: 260 260 28
Width: 573
GlyphClass: 2
Flags: MW
HStem: -232 70<439.5 462> 0 21G<6 102 6 6 527 567 527 527> 173 77<177 392 177 415 154 392> 610 79<285 285> 669 20G<227 347 347 347>
VStem: 324 80<-129 -99>
AnchorPoint: "Anchor-14" 0 0 basechar 0
AnchorPoint: "Anchor-13" 0 0 basechar 0
AnchorPoint: "Anchor-12" 287 689 basechar 0
AnchorPoint: "Anchor-11" 537 0 basechar 0
AnchorPoint: "Anchor-10" 287 0 basechar 0
LayerCount: 2
Back
Fore
SplineSet
527 0 m 1xec
 425 -44 404 -78 404 -114 c 0
 404 -144 419 -162 460 -162 c 0
 481 -162 497 -160 521 -155 c 1
 512 -225 l 1
 492 -229 475 -232 449 -232 c 0
 372 -232 324 -189 324 -131 c 0
 324 -67 368 -20 462 16 c 1
 415 173 l 1
 154 173 l 1
 102 0 l 1
 6 0 l 1
 227 689 l 1
 347 689 l 1
 567 0 l 1
 527 0 l 1xec
177 250 m 1
 392 250 l 1
 285 610 l 1xf4
 177 250 l 1
EndSplineSet
Substitution2: "'c2sc' Capitals to Small Capitals lookup 26 subtable" aogonek.sc
Substitution2: "'aalt' Access All Alternates lookup 0 subtable" aogonek.sc
Position2: "'cpsp' Capital Spacing lookup 0 subtable" dx=5 dy=0 dh=10 dv=0
EndChar
StartChar: Cacute
Encoding: 262 262 44
Width: 560
GlyphClass: 2
Flags: MW
HStem: -12 80<292.5 378.5 292.5 389.5> 623 78<295 371>
VStem: 55 101<245.5 449 245.5 461.5>
AnchorPoint: "Anchor-14" 341 346 basechar 0
AnchorPoint: "Anchor-13" 0 0 basechar 0
AnchorPoint: "Anchor-12" 349 911 basechar 0
AnchorPoint: "Anchor-11" 0 0 basechar 0
AnchorPoint: "Anchor-10" 346 0 basechar 0
LayerCount: 2
Back
Fore
SplineSet
427 911 m 1
 467 834 l 1
 251 755 l 1
 227 804 l 1
 427 911 l 1
341 701 m 0
 428 701 477 677 532 633 c 1
 480 572 l 1
 437 607 395 623 347 623 c 0
 243 623 156 553 156 345 c 0
 156 146 239 68 346 68 c 0
 411 68 453 97 492 126 c 1
 540 65 l 1
 503 26 436 -12 343 -12 c 0
 176 -12 55 113 55 345 c 0
 55 578 185 701 341 701 c 0
EndSplineSet
Substitution2: "'c2sc' Capitals to Small Capitals lookup 26 subtable" cacute.sc
Substitution2: "'locl' Localized Forms in Latin lookup 7 subtable" Cacute.loclPLK
AlternateSubs2: "'aalt' Access All Alternates lookup 1 subtable" Cacute.loclPLK cacute.sc
Position2: "'cpsp' Capital Spacing lookup 0 subtable" dx=5 dy=0 dh=10 dv=0
EndChar

StartChar: cacute
Encoding: 263 263 148
Width: 478
GlyphClass: 2
Flags: MW
HStem: -12 78<249.5 313 249.5 317.5> 463 76<249.5 313>
VStem: 57 99<192 329.5 192 343>
AnchorPoint: "Anchor-11" 284 0 basechar 0
AnchorPoint: "Anchor-10" 0 0 basechar 0
AnchorPoint: "Anchor-9" 289 527 basechar 0
AnchorPoint: "Anchor-8" 0 0 basechar 0
LayerCount: 2
Fore
SplineSet
399 724 m 1
 187 638 l 1
 159 687 l 1
 358 801 l 1
 399 724 l 1
287 539 m 0
 349 539 399 523 448 482 c 1
 403 422 l 1
 368 450 335 463 291 463 c 0
 208 463 156 398 156 261 c 0
 156 123 208 66 291 66 c 0
 335 66 366 80 404 109 c 1
 448 46 l 1
 401 8 348 -12 287 -12 c 0
 145 -12 57 89 57 259 c 0
 57 427 144 539 287 539 c 0
EndSplineSet
Substitution2: "'smcp' Lowercase to Small Capitals lookup 24 subtable" cacute.sc
Substitution2: "'locl' Localized Forms in Latin lookup 7 subtable" cacute.loclPLK
AlternateSubs2: "'aalt' Access All Alternates lookup 1 subtable" cacute.loclPLK cacute.sc
EndChar
StartChar: Ccircumflex
Encoding: 264 264 48
Width: 560
GlyphClass: 2
Flags: MW
HStem: -12 80<292.5 378.5 292.5 389.5> 623 78<295 371>
VStem: 55 101<245.5 449 245.5 461.5>
AnchorPoint: "Anchor-14" 341 346 basechar 0
AnchorPoint: "Anchor-13" 459 786 basechar 0
AnchorPoint: "Anchor-12" 347 914 basechar 0
AnchorPoint: "Anchor-11" 0 0 basechar 0
AnchorPoint: "Anchor-10" 346 0 basechar 0
LayerCount: 2
Back
Fore
SplineSet
473 759 m 1
 346 840 l 1
 220 759 l 1
 180 804 l 1
 316 914 l 1
 377 914 l 1
 512 804 l 1
 473 759 l 1
341 701 m 0
 428 701 477 677 532 633 c 1
 480 572 l 1
 437 607 395 623 347 623 c 0
 243 623 156 553 156 345 c 0
 156 146 239 68 346 68 c 0
 411 68 453 97 492 126 c 1
 540 65 l 1
 503 26 436 -12 343 -12 c 0
 176 -12 55 113 55 345 c 0
 55 578 185 701 341 701 c 0
EndSplineSet
Substitution2: "'c2sc' Capitals to Small Capitals lookup 26 subtable" ccircumflex.sc
Substitution2: "'aalt' Access All Alternates lookup 0 subtable" ccircumflex.sc
Position2: "'cpsp' Capital Spacing lookup 0 subtable" dx=5 dy=0 dh=10 dv=0
EndChar

StartChar: Ccaron
Encoding: 268 268 16
Width: 560
GlyphClass: 2
Flags: MW
HStem: -12 80<292.5 378.5 292.5 389.5> 623 78<295 371> 754 74<347 347 347 378 317 347>
VStem: 55 101<245.5 449 245.5 461.5>
AnchorPoint: "Anchor-11" 346 0 basechar 0
AnchorPoint: "Anchor-10" 0 0 basechar 0
AnchorPoint: "Anchor-9" 347 689 basechar 0
AnchorPoint: "Anchor-8" 0 0 basechar 0
LayerCount: 2
Fore
SplineSet
513 864 m 1
 378 754 l 1
 317 754 l 1
 181 864 l 1
 221 909 l 1
 347 828 l 1
 474 909 l 1
 513 864 l 1
341 701 m 0
 428 701 477 677 532 633 c 1
 480 572 l 1
 437 607 395 623 347 623 c 0
 243 623 156 553 156 345 c 0
 156 146 239 68 346 68 c 0
 411 68 453 97 492 126 c 1
 540 65 l 1
 503 26 436 -12 343 -12 c 0
 176 -12 55 113 55 345 c 0
 55 578 185 701 341 701 c 0
EndSplineSet
Substitution2: "'c2sc' Capitals to Small Capitals lookup 23 subtable" ccaron.sc
Substitution2: "'aalt' Access All Alternates lookup 0 subtable" ccaron.sc
Position2: "'cpsp' Capital Spacing lookup 0 subtable" dx=5 dy=0 dh=10 dv=0
EndChar

StartChar: Dcaron
Encoding: 270 270 22
Width: 644
GlyphClass: 2
Flags: MW
HStem: 0 75<195 265> 613 76<195 195 195 244 244 265> 754 74<303 303 303 334 273 303>
VStem: 100 95<75 613 75 689 75 689> 488 101<234.5 464.5>
AnchorPoint: "Anchor-11" 0 0 basechar 0
AnchorPoint: "Anchor-10" 0 0 basechar 0
AnchorPoint: "Anchor-9" 303 689 basechar 0
AnchorPoint: "Anchor-8" 0 0 basechar 0
LayerCount: 2
Fore
SplineSet
469 864 m 1
 334 754 l 1
 273 754 l 1
 137 864 l 1
 177 909 l 1
 303 828 l 1
 430 909 l 1
 469 864 l 1
244 689 m 2
 420 689 589 634 589 348 c 0
 589 67 414 0 265 0 c 2
 100 0 l 1
 100 689 l 1
 244 689 l 2
195 613 m 1
 195 75 l 1
 272 75 l 2
 380 75 488 121 488 348 c 0
 488 581 375 613 265 613 c 2
 195 613 l 1
EndSplineSet
Substitution2: "'c2sc' Capitals to Small Capitals lookup 23 subtable" dcaron.sc
Substitution2: "'aalt' Access All Alternates lookup 0 subtable" dcaron.sc
Position2: "'cpsp' Capital Spacing lookup 0 subtable" dx=5 dy=0 dh=10 dv=0
EndChar
StartChar: dcaron
Encoding: 271 271 394
Width: 598
GlyphClass: 2
Flags: MW
HStem: -12 73<243 293.5> 0 21G<422 503 422 422> 466 73<249.5 300 204.5 315> 719 20G<503 503 651 651> 729 20G<568 568> 730 20G<411 411>
VStem: 62 99<193.5 331.5 193.5 341.5> 411 92<139 397 397 397 474 739 0 750 0 750>
AnchorPoint: "Anchor-14" 303 264 basechar 0
AnchorPoint: "Anchor-13" 513 739 basechar 0
AnchorPoint: "Anchor-12" 301 739 basechar 0
AnchorPoint: "Anchor-11" 0 0 basechar 0
AnchorPoint: "Anchor-10" 308 0 basechar 0
LayerCount: 2
Back
Fore
SplineSet
411 474 m 1xa7
 411 750 l 1xa7
 503 739 l 1
 503 0 l 1
 422 0 l 1x73
 413 73 l 1
 379 20 326 -12 261 -12 c 0
 133 -12 62 97 62 261 c 0
 62 422 140 539 269 539 c 0
 331 539 376 511 411 474 c 1xa7
568 749 m 1xab
 651 739 l 1xb3
 601 555 l 1
 548 563 l 1
 568 749 l 1xab
281 61 m 0
 340 61 376 90 411 139 c 1
 411 397 l 1
 378 439 341 466 289 466 c 0
 210 466 161 400 161 263 c 0
 161 124 205 61 281 61 c 0
EndSplineSet
Substitution2: "'smcp' Lowercase to Small Capitals lookup 27 subtable" dcaron.sc
Substitution2: "'aalt' Access All Alternates lookup 0 subtable" dcaron.sc
EndChar
StartChar: dcroat
Encoding: 273 273 396
Width: 607
GlyphClass: 2
Flags: MW
HStem: -12 73<243 293.5> 0 21G<422 503 422 422> 466 73<249.5 300 204.5 315> 606 70<253 411 253 411 503 582> 719 20G<503 503> 730 20G<411 411>
VStem: 62 99<193.5 331.5 193.5 341.5> 411 92<139 397 397 397 474 606 0 606 676 739>
AnchorPoint: "Anchor-14" 303 264 basechar 0
AnchorPoint: "Anchor-13" 513 739 basechar 0
AnchorPoint: "Anchor-12" 301 739 basechar 0
AnchorPoint: "Anchor-11" 0 0 basechar 0
AnchorPoint: "Anchor-10" 308 0 basechar 0
LayerCount: 2
Back
Fore
SplineSet
503 676 m 1xb7
 582 676 l 1
 582 606 l 1
 503 606 l 1
 503 0 l 1
 422 0 l 1x77
 413 73 l 1
 379 20 326 -12 261 -12 c 0
 133 -12 62 97 62 261 c 0
 62 422 140 539 269 539 c 0
 331 539 376 511 411 474 c 1
 411 606 l 1
 253 606 l 1
 253 676 l 1
 411 676 l 1
 411 750 l 1xb7
 503 739 l 1xbb
 503 676 l 1xb7
281 61 m 0xb7
 340 61 376 90 411 139 c 1
 411 397 l 1
 378 439 341 466 289 466 c 0
 210 466 161 400 161 263 c 0
 161 124 205 61 281 61 c 0xb7
EndSplineSet
Substitution2: "'smcp' Lowercase to Small Capitals lookup 27 subtable" dcroat.sc
Substitution2: "'aalt' Access All Alternates lookup 0 subtable" dcroat.sc
EndChar
StartChar: Emacron
Encoding: 274 274 85
Width: 535
GlyphClass: 2
Flags: MW
HStem: 0 76<195 481 195 481> 312 76<195 427 195 427> 613 76<195 462 195 195> 793 69<153 426 153 426>
VStem: 100 95<76 312 388 613> 153 273<793 862 793 862>
AnchorPoint: "Anchor-14" 0 0 basechar 0
AnchorPoint: "Anchor-13" 0 0 basechar 0
AnchorPoint: "Anchor-12" 292 862 basechar 0
AnchorPoint: "Anchor-11" 451 0 basechar 0
AnchorPoint: "Anchor-10" 291 0 basechar 0
LayerCount: 2
Back
Fore
SplineSet
426 793 m 1xf4
 153 793 l 1
 153 862 l 1
 426 862 l 1
 426 793 l 1xf4
473 689 m 1
 462 613 l 1
 195 613 l 1
 195 388 l 1
 427 388 l 1
 427 312 l 1
 195 312 l 1
 195 76 l 1
 481 76 l 1
 481 0 l 1
 100 0 l 1
 100 689 l 1xf8
 473 689 l 1
EndSplineSet
Substitution2: "'c2sc' Capitals to Small Capitals lookup 26 subtable" emacron.sc
Substitution2: "'aalt' Access All Alternates lookup 0 subtable" emacron.sc
Position2: "'cpsp' Capital Spacing lookup 0 subtable" dx=5 dy=0 dh=10 dv=0
EndChar

StartChar: Ebreve
Encoding: 276 276 26
Width: 535
GlyphClass: 2
Flags: MW
HStem: 0 76<195 481 195 481> 312 76<195 427 195 427> 613 76<195 462 195 195> 758 70<264.5 311.5 264.5 328.5>
VStem: 100 95<76 312 388 613>
AnchorPoint: "Anchor-11" 291 0 basechar 0
AnchorPoint: "Anchor-10" 90 689 basechar 0
AnchorPoint: "Anchor-9" 290 689 basechar 0
AnchorPoint: "Anchor-8" 451 0 basechar 0
LayerCount: 2
Fore
SplineSet
288 758 m 0
 208 758 146 807 138 881 c 1
 199 894 l 1
 213 854 241 828 288 828 c 0
 335 828 366 854 380 894 c 1
 441 881 l 1
 433 807 369 758 288 758 c 0
462 613 m 1
 195 613 l 1
 195 388 l 1
 427 388 l 1
 427 312 l 1
 195 312 l 1
 195 76 l 1
 481 76 l 1
 481 0 l 1
 100 0 l 1
 100 689 l 1
 473 689 l 1
 462 613 l 1
EndSplineSet
Substitution2: "'c2sc' Capitals to Small Capitals lookup 23 subtable" ebreve.sc
Substitution2: "'aalt' Access All Alternates lookup 0 subtable" ebreve.sc
Position2: "'cpsp' Capital Spacing lookup 0 subtable" dx=5 dy=0 dh=10 dv=0
EndChar
StartChar: ebreve
Encoding: 277 277 412
Width: 550
GlyphClass: 2
Flags: MW
HStem: -12 75<259 323 259 326.5> 232 68<155 402 155 491 155 402> 466 73<243 319.5> 643 70<253.5 300.5 253.5 317.5>
VStem: 57 98<232 232 232 300 232 340> 402 91<300 306 306 357.5>
AnchorPoint: "Anchor-14" 0 0 basechar 0
AnchorPoint: "Anchor-13" 0 0 basechar 0
AnchorPoint: "Anchor-12" 281 789 basechar 0
AnchorPoint: "Anchor-11" 399 6 basechar 0
AnchorPoint: "Anchor-10" 293 0 basechar 0
LayerCount: 2
Back
Fore
SplineSet
277 643 m 0
 197 643 135 692 127 776 c 1
 188 789 l 1
 202 739 230 713 277 713 c 0
 324 713 355 739 369 789 c 1
 430 776 l 1
 422 692 358 643 277 643 c 0
493 279 m 0
 493 261 492 244 491 232 c 1
 155 232 l 1
 164 110 221 63 297 63 c 0
 349 63 388 77 434 109 c 1
 474 54 l 1
 422 13 363 -12 290 -12 c 0
 143 -12 57 91 57 258 c 0
 57 422 140 539 276 539 c 0
 418 539 493 440 493 279 c 0
402 300 m 1
 402 306 l 2
 402 409 361 466 278 466 c 0
 208 466 162 417 155 300 c 1
 402 300 l 1
EndSplineSet
Substitution2: "'smcp' Lowercase to Small Capitals lookup 27 subtable" ebreve.sc
Substitution2: "'aalt' Access All Alternates lookup 0 subtable" ebreve.sc
EndChar
StartChar: Edotaccent
Encoding: 278 278 80
Width: 535
GlyphClass: 2
Flags: MW
HStem: 0 76<195 481 195 481> 312 76<195 427 195 427> 613 76<195 462 195 195> 781 125<270 308.5>
VStem: 100 95<76 312 388 613> 225 129<825.5 861>
AnchorPoint: "Anchor-14" 0 0 basechar 0
AnchorPoint: "Anchor-13" 0 0 basechar 0
AnchorPoint: "Anchor-12" 292 906 basechar 0
AnchorPoint: "Anchor-11" 451 0 basechar 0
AnchorPoint: "Anchor-10" 291 0 basechar 0
LayerCount: 2
Back
Fore
SplineSet
289 906 m 0
 328 906 354 879 354 843 c 0
 354 808 328 781 289 781 c 0
 251 781 225 808 225 843 c 0
 225 879 251 906 289 906 c 0
473 689 m 1
 462 613 l 1
 195 613 l 1
 195 388 l 1
 427 388 l 1
 427 312 l 1
 195 312 l 1
 195 76 l 1
 481 76 l 1
 481 0 l 1
 100 0 l 1
 100 689 l 1xe8
 473 689 l 1
EndSplineSet
Substitution2: "'c2sc' Capitals to Small Capitals lookup 26 subtable" edotaccent.sc
Substitution2: "'aalt' Access All Alternates lookup 0 subtable" edotaccent.sc
Position2: "'cpsp' Capital Spacing lookup 0 subtable" dx=5 dy=0 dh=10 dv=0
EndChar
StartChar: Eogonek
Encoding: 280 280 86
Width: 535
GlyphClass: 2
Flags: MW
HStem: -232 70<353.5 376> 0 76<195 339 441 481 441 441> 312 76<195 427 195 427> 613 76<195 462 195 195>
VStem: 100 95<76 76 76 312 388 613> 238 80<-129 -103.5>
AnchorPoint: "Anchor-14" 0 0 basechar 0
AnchorPoint: "Anchor-13" 0 0 basechar 0
AnchorPoint: "Anchor-12" 290 689 basechar 0
AnchorPoint: "Anchor-11" 451 0 basechar 0
AnchorPoint: "Anchor-10" 291 0 basechar 0
LayerCount: 2
Back
Fore
SplineSet
195 76 m 1
 481 76 l 1
 481 0 l 1
 441 0 l 1
 339 -44 318 -78 318 -114 c 0
 318 -144 333 -162 374 -162 c 0
 395 -162 411 -160 435 -155 c 1
 426 -225 l 1
 406 -229 389 -232 363 -232 c 0
 286 -232 238 -189 238 -131 c 0
 238 -76 271 -34 339 0 c 1
 100 0 l 1
 100 689 l 1
 473 689 l 1
 462 613 l 1
 195 613 l 1
 195 388 l 1
 427 388 l 1
 427 312 l 1
 195 312 l 1
 195 76 l 1
EndSplineSet
Substitution2: "'c2sc' Capitals to Small Capitals lookup 26 subtable" eogonek.sc
Substitution2: "'aalt' Access All Alternates lookup 0 subtable" eogonek.sc
Position2: "'cpsp' Capital Spacing lookup 0 subtable" dx=5 dy=0 dh=10 dv=0
EndChar
StartChar: Ecaron
Encoding: 282 282 70
Width: 535
GlyphClass: 2
Flags: MW
HStem: 0 76<195 481 195 481> 312 76<195 427 195 427> 613 76<195 462 195 195>
VStem: 100 95<76 312 388 613>
AnchorPoint: "Anchor-14" 0 0 basechar 0
AnchorPoint: "Anchor-13" 0 0 basechar 0
AnchorPoint: "Anchor-12" 292 909 basechar 0
AnchorPoint: "Anchor-11" 451 0 basechar 0
AnchorPoint: "Anchor-10" 291 0 basechar 0
LayerCount: 2
Back
Fore
SplineSet
417 909 m 1
 456 864 l 1
 321 754 l 1
 260 754 l 1
 124 864 l 1
 164 909 l 1
 290 828 l 1
 417 909 l 1
473 689 m 1
 462 613 l 1
 195 613 l 1
 195 388 l 1
 427 388 l 1
 427 312 l 1
 195 312 l 1
 195 76 l 1
 481 76 l 1
 481 0 l 1
 100 0 l 1
 100 689 l 1
 473 689 l 1
EndSplineSet
Substitution2: "'c2sc' Capitals to Small Capitals lookup 26 subtable" ecaron.sc
Substitution2: "'aalt' Access All Alternates lookup 0 subtable" ecaron.sc
Position2: "'cpsp' Capital Spacing lookup 0 subtable" dx=5 dy=0 dh=10 dv=0
EndChar
StartChar: Gcircumflex
Encoding: 284 284 103
Width: 631
GlyphClass: 2
Flags: MW
HStem: -12 78<283.5 367 283.5 385.5> 305 77<353 475 353 353> 623 78<304.5 385>
VStem: 55 101<246 446.5 246 461> 475 94<98 305 305 305>
AnchorPoint: "Anchor-14" 0 0 basechar 0
AnchorPoint: "Anchor-13" 467 786 basechar 0
AnchorPoint: "Anchor-12" 355 914 basechar 0
AnchorPoint: "Anchor-11" 0 0 basechar 0
AnchorPoint: "Anchor-10" 343 0 basechar 0
LayerCount: 2
Back
Fore
SplineSet
481 759 m 1
 354 840 l 1
 228 759 l 1
 188 804 l 1
 324 914 l 1
 385 914 l 1
 520 804 l 1
 481 759 l 1
352 701 m 0
 445 701 502 674 561 625 c 1
 505 567 l 1
 457 606 416 623 354 623 c 0
 255 623 156 548 156 345 c 0
 156 147 223 66 344 66 c 0
 390 66 436 75 475 98 c 1
 475 305 l 1
 353 305 l 1
 342 382 l 1
 569 382 l 1
 569 49 l 1
 506 12 434 -12 337 -12 c 0
 166 -12 55 107 55 345 c 0
 55 577 197 701 352 701 c 0
EndSplineSet
Substitution2: "'c2sc' Capitals to Small Capitals lookup 26 subtable" gcircumflex.sc
Substitution2: "'aalt' Access All Alternates lookup 0 subtable" gcircumflex.sc
Position2: "'cpsp' Capital Spacing lookup 0 subtable" dx=5 dy=0 dh=10 dv=0
EndChar

StartChar: Gdotaccent
Encoding: 288 288 39
Width: 631
GlyphClass: 2
Flags: MW
HStem: -12 78<283.5 367 283.5 385.5> 305 77<353 475 353 353> 623 78<304.5 385> 781 125<335 373.5>
VStem: 55 101<246 446.5 246 461> 290 129<825.5 861> 475 94<98 305 305 305>
AnchorPoint: "Anchor-11" 343 0 basechar 0
AnchorPoint: "Anchor-10" 0 0 basechar 0
AnchorPoint: "Anchor-9" 355 689 basechar 0
AnchorPoint: "Anchor-8" 0 0 basechar 0
LayerCount: 2
Fore
SplineSet
354 906 m 0
 393 906 419 879 419 843 c 0
 419 808 393 781 354 781 c 0
 316 781 290 808 290 843 c 0
 290 879 316 906 354 906 c 0
352 701 m 0
 445 701 502 674 561 625 c 1
 505 567 l 1
 457 606 416 623 354 623 c 0
 255 623 156 548 156 345 c 0
 156 147 223 66 344 66 c 0
 390 66 436 75 475 98 c 1
 475 305 l 1
 353 305 l 1
 342 382 l 1
 569 382 l 1
 569 49 l 1
 506 12 434 -12 337 -12 c 0
 166 -12 55 107 55 345 c 0
 55 577 197 701 352 701 c 0
EndSplineSet
Substitution2: "'c2sc' Capitals to Small Capitals lookup 23 subtable" gdotaccent.sc
Substitution2: "'aalt' Access All Alternates lookup 0 subtable" gdotaccent.sc
Position2: "'cpsp' Capital Spacing lookup 0 subtable" dx=5 dy=0 dh=10 dv=0
EndChar

StartChar: Gcommaaccent
Encoding: 290 290 38
Width: 631
GlyphClass: 2
Flags: MW
HStem: -12 78<283.5 367 283.5 385.5> 305 77<353 475 353 353> 623 78<304.5 385>
VStem: 55 101<246 446.5 246 461> 288 115<-141.5 -117 -141.5 -117> 475 94<98 305 305 305>
AnchorPoint: "Anchor-11" 343 0 basechar 0
AnchorPoint: "Anchor-10" 0 0 basechar 0
AnchorPoint: "Anchor-9" 355 689 basechar 0
AnchorPoint: "Anchor-8" 0 0 basechar 0
LayerCount: 2
Fore
SplineSet
352 701 m 0
 445 701 502 674 561 625 c 1
 505 567 l 1
 457 606 416 623 354 623 c 0
 255 623 156 548 156 345 c 0
 156 147 223 66 344 66 c 0
 390 66 436 75 475 98 c 1
 475 305 l 1
 353 305 l 1
 342 382 l 1
 569 382 l 1
 569 49 l 1
 506 12 434 -12 337 -12 c 0
 166 -12 55 107 55 345 c 0
 55 577 197 701 352 701 c 0
346 -77 m 0
 378 -77 403 -101 403 -133 c 0
 403 -150 398 -166 377 -210 c 2
 336 -296 l 1
 283 -296 l 1
 312 -180 l 1
 298 -168 288 -152 288 -133 c 0
 288 -101 314 -77 346 -77 c 0
EndSplineSet
Substitution2: "'c2sc' Capitals to Small Capitals lookup 23 subtable" gcommaaccent.sc
Substitution2: "'aalt' Access All Alternates lookup 0 subtable" gcommaaccent.sc
Position2: "'cpsp' Capital Spacing lookup 0 subtable" dx=5 dy=0 dh=10 dv=0
EndChar

StartChar: Hcircumflex
Encoding: 292 292 42
Width: 680
GlyphClass: 2
Flags: MW
HStem: 0 21G<100 195 100 100 485 485 485 580> 323 78<195 485 195 485> 669 20G<100 195 195 195 485 580 580 580> 840 74<340 340>
VStem: 100 95<0 323 0 401 401 689> 485 95<0 323 323 323 401 689 0 689>
AnchorPoint: "Anchor-11" 0 0 basechar 0
AnchorPoint: "Anchor-10" 90 689 basechar 0
AnchorPoint: "Anchor-9" 340 689 basechar 0
AnchorPoint: "Anchor-8" 0 0 basechar 0
LayerCount: 2
Fore
SplineSet
340 840 m 1
 214 759 l 1
 174 804 l 1
 310 914 l 1
 371 914 l 1
 506 804 l 1
 467 759 l 1
 340 840 l 1
485 323 m 1
 195 323 l 1
 195 0 l 1
 100 0 l 1
 100 689 l 1
 195 689 l 1
 195 401 l 1
 485 401 l 1
 485 689 l 1
 580 689 l 1
 580 0 l 1
 485 0 l 1
 485 323 l 1
EndSplineSet
Substitution2: "'c2sc' Capitals to Small Capitals lookup 23 subtable" hcircumflex.sc
Substitution2: "'aalt' Access All Alternates lookup 0 subtable" hcircumflex.sc
Position2: "'cpsp' Capital Spacing lookup 0 subtable" dx=5 dy=0 dh=10 dv=0
EndChar
StartChar: hcircumflex
Encoding: 293 293 472
Width: 586
GlyphClass: 2
Flags: MW
HStem: 0 21G<95 187 95 95 404 496 404 404> 467 72<310 345> 728 20G<187 187>
VStem: 95 92<0 375 0 454 454 738 738 738> 404 92<0 365 365 378 0 404.5>
AnchorPoint: "Anchor-14" 292 264 basechar 0
AnchorPoint: "Anchor-13" 404 836 basechar 0
AnchorPoint: "Anchor-12" 292 964 basechar 0
AnchorPoint: "Anchor-11" 0 0 basechar 0
AnchorPoint: "Anchor-10" 296 0 basechar 0
LayerCount: 2
Back
Fore
SplineSet
291 890 m 1
 165 809 l 1
 125 854 l 1
 261 964 l 1
 322 964 l 1
 457 854 l 1
 418 809 l 1
 291 890 l 1
343 539 m 0
 439 539 496 477 496 378 c 2
 496 0 l 1
 404 0 l 1
 404 365 l 2
 404 444 370 467 320 467 c 0
 263 467 222 430 187 375 c 1
 187 0 l 1
 95 0 l 1
 95 738 l 1
 187 748 l 1
 187 454 l 1
 225 506 277 539 343 539 c 0
EndSplineSet
Substitution2: "'smcp' Lowercase to Small Capitals lookup 27 subtable" hcircumflex.sc
Substitution2: "'aalt' Access All Alternates lookup 0 subtable" hcircumflex.sc
EndChar

StartChar: hbar
Encoding: 295 295 174
Width: 592
GlyphClass: 2
Flags: MW
HStem: 0 21G<101 193 101 101 410 502 410 410> 467 72<316 351> 606 70<25 101 25 101 193 339> 718 20G<101 101> 728 20G<193 193>
VStem: 101 92<0 375 0 454 454 606 676 738 738 738> 410 92<0 365 365 378 0 404.5>
AnchorPoint: "Anchor-11" 0 0 basechar 0
AnchorPoint: "Anchor-10" 0 0 basechar 0
AnchorPoint: "Anchor-9" 298 739 basechar 0
AnchorPoint: "Anchor-8" 0 0 basechar 0
LayerCount: 2
Fore
SplineSet
349 539 m 0xee
 445 539 502 477 502 378 c 2
 502 0 l 1
 410 0 l 1
 410 365 l 2
 410 444 376 467 326 467 c 0
 269 467 228 430 193 375 c 1
 193 0 l 1
 101 0 l 1
 101 606 l 1
 25 606 l 1
 25 676 l 1
 101 676 l 1
 101 738 l 1xf6
 193 748 l 1
 193 676 l 1
 349 676 l 1
 339 606 l 1
 193 606 l 1
 193 454 l 1
 231 506 283 539 349 539 c 0xee
EndSplineSet
Substitution2: "'smcp' Lowercase to Small Capitals lookup 24 subtable" hbar.sc
Substitution2: "'aalt' Access All Alternates lookup 0 subtable" hbar.sc
EndChar

StartChar: Itilde
Encoding: 296 296 53
Width: 296
GlyphClass: 2
Flags: MW
HStem: 0 21G<100 196 100 100> 669 20G<100 196 196 196> 782 70<187.5 216 187.5 230> 830 70<78.5 108>
VStem: 100 96<0 689>
AnchorPoint: "Anchor-11" 0 0 basechar 0
AnchorPoint: "Anchor-10" 90 689 basechar 0
AnchorPoint: "Anchor-9" 148 689 basechar 0
AnchorPoint: "Anchor-8" 206 0 basechar 0
LayerCount: 2
Fore
SplineSet
209 782 m 0xe8
 150 782 126 830 90 830 c 0
 67 830 53 814 37 784 c 1
 -19 812 l 1
 4 861 40 900 91 900 c 0xd8
 145 900 169 852 206 852 c 0
 226 852 241 866 259 896 c 1
 315 868 l 1
 289 811 251 782 209 782 c 0xe8
196 0 m 1xd8
 100 0 l 1
 100 689 l 1
 196 689 l 1
 196 0 l 1xd8
EndSplineSet
Substitution2: "'c2sc' Capitals to Small Capitals lookup 23 subtable" itilde.sc
Substitution2: "'aalt' Access All Alternates lookup 0 subtable" itilde.sc
Position2: "'cpsp' Capital Spacing lookup 0 subtable" dx=5 dy=0 dh=10 dv=0
EndChar

StartChar: itilde
Encoding: 297 297 187
Width: 282
GlyphClass: 2
Flags: MW
HStem: 0 21G<95 187 95 95> 507 20G<95 187 187 187> 656 70<180.5 209 180.5 223> 704 70<71.5 101> 722 20G<308 308>
VStem: 95 92<0 527>
AnchorPoint: "Anchor-11" 0 0 basechar 0
AnchorPoint: "Anchor-10" 0 0 basechar 0
AnchorPoint: "Anchor-9" 141 527 basechar 0
AnchorPoint: "Anchor-8" 197 0 basechar 0
LayerCount: 2
Fore
SplineSet
202 656 m 0xe4
 143 656 119 704 83 704 c 0
 60 704 46 688 30 658 c 1
 -26 686 l 1
 -3 735 33 774 84 774 c 0xd4
 138 774 162 726 199 726 c 0
 219 726 234 740 252 770 c 1xe4
 308 742 l 1xcc
 282 685 244 656 202 656 c 0xe4
187 0 m 1xcc
 95 0 l 1
 95 527 l 1
 187 527 l 1
 187 0 l 1xcc
EndSplineSet
Substitution2: "'smcp' Lowercase to Small Capitals lookup 24 subtable" itilde.sc
Substitution2: "'aalt' Access All Alternates lookup 0 subtable" itilde.sc
EndChar
StartChar: Imacron
Encoding: 298 298 132
Width: 295
GlyphClass: 2
Flags: MW
HStem: 0 21G<100 195 100 100> 669 20G<100 195 195 195> 793 69<10 283 10 283>
VStem: 100 95<0 689 0 689>
AnchorPoint: "Anchor-14" 0 0 basechar 0
AnchorPoint: "Anchor-13" 0 0 basechar 0
AnchorPoint: "Anchor-12" 149 862 basechar 0
AnchorPoint: "Anchor-11" 205 0 basechar 0
AnchorPoint: "Anchor-10" 147 0 basechar 0
LayerCount: 2
Back
Fore
SplineSet
283 793 m 1
 10 793 l 1
 10 862 l 1
 283 862 l 1
 283 793 l 1
195 689 m 1
 195 0 l 1
 100 0 l 1
 100 689 l 1
 195 689 l 1
EndSplineSet
Substitution2: "'c2sc' Capitals to Small Capitals lookup 26 subtable" imacron.sc
Substitution2: "'aalt' Access All Alternates lookup 0 subtable" imacron.sc
Position2: "'cpsp' Capital Spacing lookup 0 subtable" dx=5 dy=0 dh=10 dv=0
EndChar

StartChar: imacron
Encoding: 299 299 185
Width: 282
GlyphClass: 2
Flags: MW
HStem: 0 21G<95 187 95 95> 507 20G<95 187 187 187> 667 69<4 277 4 277>
VStem: 95 92<0 527>
AnchorPoint: "Anchor-11" 0 0 basechar 0
AnchorPoint: "Anchor-10" 0 0 basechar 0
AnchorPoint: "Anchor-9" 141 527 basechar 0
AnchorPoint: "Anchor-8" 197 0 basechar 0
LayerCount: 2
Fore
SplineSet
4 667 m 1
 4 736 l 1
 277 736 l 1
 277 667 l 1
 4 667 l 1
187 0 m 1
 95 0 l 1
 95 527 l 1
 187 527 l 1
 187 0 l 1
EndSplineSet
Substitution2: "'smcp' Lowercase to Small Capitals lookup 24 subtable" imacron.sc
Substitution2: "'aalt' Access All Alternates lookup 0 subtable" imacron.sc
EndChar
StartChar: Ibreve
Encoding: 300 300 121
Width: 295
GlyphClass: 2
Flags: MW
HStem: 0 21G<100 195 100 100> 669 20G<100 195 195 195> 758 70<121.5 168.5 121.5 185.5>
VStem: 100 95<0 689 0 689>
AnchorPoint: "Anchor-14" 0 0 basechar 0
AnchorPoint: "Anchor-13" 0 0 basechar 0
AnchorPoint: "Anchor-12" 149 894 basechar 0
AnchorPoint: "Anchor-11" 205 0 basechar 0
AnchorPoint: "Anchor-10" 147 0 basechar 0
LayerCount: 2
Back
Fore
SplineSet
145 758 m 0
 65 758 3 807 -5 881 c 1
 56 894 l 1
 70 854 98 828 145 828 c 0
 192 828 223 854 237 894 c 1
 298 881 l 1
 290 807 226 758 145 758 c 0
195 689 m 1
 195 0 l 1
 100 0 l 1
 100 689 l 1
 195 689 l 1
EndSplineSet
Substitution2: "'c2sc' Capitals to Small Capitals lookup 26 subtable" ibreve.sc
Substitution2: "'aalt' Access All Alternates lookup 0 subtable" ibreve.sc
Position2: "'cpsp' Capital Spacing lookup 0 subtable" dx=5 dy=0 dh=10 dv=0
EndChar

StartChar: ibreve
Encoding: 301 301 179
Width: 282
GlyphClass: 2
Flags: MW
HStem: 0 21G<95 187 95 95> 507 20G<95 187 187 187> 643 70<115.5 162.5 115.5 179.5>
VStem: 95 92<0 527>
AnchorPoint: "Anchor-11" 0 0 basechar 0
AnchorPoint: "Anchor-10" 0 0 basechar 0
AnchorPoint: "Anchor-9" 141 527 basechar 0
AnchorPoint: "Anchor-8" 197 0 basechar 0
LayerCount: 2
Fore
SplineSet
139 643 m 0
 59 643 -3 692 -11 776 c 1
 50 789 l 1
 64 739 92 713 139 713 c 0
 186 713 217 739 231 789 c 1
 292 776 l 1
 284 692 220 643 139 643 c 0
187 0 m 1
 95 0 l 1
 95 527 l 1
 187 527 l 1
 187 0 l 1
EndSplineSet
Substitution2: "'smcp' Lowercase to Small Capitals lookup 24 subtable" ibreve.sc
Substitution2: "'aalt' Access All Alternates lookup 0 subtable" ibreve.sc
EndChar

StartChar: Iogonek
Encoding: 302 302 52
Width: 296
GlyphClass: 2
Flags: MW
HStem: -232 70<108.5 131> 0 21G<196 196> 669 20G<100 196 196 196>
VStem: -7 80<-129 -103> 100 96<3 689>
AnchorPoint: "Anchor-11" 0 0 basechar 0
AnchorPoint: "Anchor-10" 90 689 basechar 0
AnchorPoint: "Anchor-9" 148 689 basechar 0
AnchorPoint: "Anchor-8" 206 0 basechar 0
LayerCount: 2
Fore
SplineSet
196 0 m 1
 94 -44 73 -78 73 -114 c 0
 73 -144 88 -162 129 -162 c 0
 150 -162 166 -160 190 -155 c 1
 181 -225 l 1
 161 -229 144 -232 118 -232 c 0
 41 -232 -7 -189 -7 -131 c 0xf8
 -7 -75 27 -32 100 3 c 1
 100 689 l 1
 196 689 l 1
 196 0 l 1
EndSplineSet
Substitution2: "'c2sc' Capitals to Small Capitals lookup 23 subtable" iogonek.sc
Substitution2: "'aalt' Access All Alternates lookup 0 subtable" iogonek.sc
Position2: "'cpsp' Capital Spacing lookup 0 subtable" dx=5 dy=0 dh=10 dv=0
EndChar
StartChar: iogonek
Encoding: 303 303 494
Width: 282
GlyphClass: 2
Flags: MW
HStem: -232 70<99.5 122> 0 21G<187 187> 507 20G<95 187 187 187> 655 125<121 159.5>
VStem: -16 80<-129 -102.5> 76 129<699.5 735> 95 92<5 527 0 527>
AnchorPoint: "Anchor-14" 0 0 basechar 0
AnchorPoint: "Anchor-13" 0 0 basechar 0
AnchorPoint: "Anchor-12" 143 780 basechar 0
AnchorPoint: "Anchor-11" 197 0 basechar 0
AnchorPoint: "Anchor-10" 141 0 basechar 0
LayerCount: 2
Back
Fore
SplineSet
140 780 m 0xf4
 179 780 205 753 205 717 c 0
 205 682 179 655 140 655 c 0
 102 655 76 682 76 717 c 0
 76 753 102 780 140 780 c 0xf4
95 5 m 1xfa
 95 527 l 1
 187 527 l 1
 187 0 l 1
 85 -44 64 -78 64 -114 c 0
 64 -144 79 -162 120 -162 c 0
 141 -162 157 -160 181 -155 c 1
 172 -225 l 1
 152 -229 135 -232 109 -232 c 0
 32 -232 -16 -189 -16 -131 c 0
 -16 -74 20 -30 95 5 c 1xfa
EndSplineSet
Substitution2: "'smcp' Lowercase to Small Capitals lookup 27 subtable" iogonek.sc
Substitution2: "'aalt' Access All Alternates lookup 0 subtable" iogonek.sc
EndChar

StartChar: Idotaccent
Encoding: 304 304 49
Width: 296
GlyphClass: 2
Flags: MW
HStem: 0 21G<100 196 100 100> 669 20G<100 196 196 196> 781 125<128 166.5>
VStem: 83 129<825.5 861> 100 96<0 689>
AnchorPoint: "Anchor-11" 0 0 basechar 0
AnchorPoint: "Anchor-10" 90 689 basechar 0
AnchorPoint: "Anchor-9" 148 689 basechar 0
AnchorPoint: "Anchor-8" 206 0 basechar 0
LayerCount: 2
Fore
SplineSet
147 906 m 0xf0
 186 906 212 879 212 843 c 0
 212 808 186 781 147 781 c 0
 109 781 83 808 83 843 c 0
 83 879 109 906 147 906 c 0xf0
196 0 m 1xe8
 100 0 l 1
 100 689 l 1
 196 689 l 1
 196 0 l 1xe8
EndSplineSet
Substitution2: "'c2sc' Capitals to Small Capitals lookup 23 subtable" i.sc.loclTRK
Substitution2: "'aalt' Access All Alternates lookup 0 subtable" i.sc.loclTRK
Position2: "'cpsp' Capital Spacing lookup 0 subtable" dx=5 dy=0 dh=10 dv=0
EndChar

StartChar: dotlessi
Encoding: 305 305 177
Width: 282
GlyphClass: 2
Flags: MW
HStem: 0 21G<95 187 95 95> 507 20G<95 187 187 187>
VStem: 95 92<0 527>
AnchorPoint: "Anchor-11" 0 0 basechar 0
AnchorPoint: "Anchor-10" 0 0 basechar 0
AnchorPoint: "Anchor-9" 141 527 basechar 0
AnchorPoint: "Anchor-8" 197 0 basechar 0
LayerCount: 2
Fore
SplineSet
187 0 m 1
 95 0 l 1
 95 527 l 1
 187 527 l 1
 187 0 l 1
EndSplineSet
Substitution2: "'smcp' Lowercase to Small Capitals lookup 24 subtable" dotlessi.sc
Substitution2: "'aalt' Access All Alternates lookup 0 subtable" dotlessi.sc
EndChar

StartChar: IJ
Encoding: 306 306 44
Width: 601
GlyphClass: 2
Flags: MW
HStem: 0 21G<100 196 100 100> 669 20G<100 196 196 196 411 506 506 506>
VStem: 100 96<0 689> 411 95<100 689>
AnchorPoint: "Anchor-11" 0 0 basechar 0
AnchorPoint: "Anchor-10" 90 689 basechar 0
AnchorPoint: "Anchor-9" 459 689 basechar 0
AnchorPoint: "Anchor-8" 206 0 basechar 0
LayerCount: 2
Fore
SplineSet
196 0 m 1
 100 0 l 1
 100 689 l 1
 196 689 l 1
 196 0 l 1
506 96 m 2
 506 -48 437 -102 326 -137 c 1
 301 -68 l 1
 392 -32 411 8 411 100 c 2
 411 689 l 1
 506 689 l 1
 506 96 l 2
EndSplineSet
Substitution2: "'c2sc' Capitals to Small Capitals lookup 23 subtable" ij.sc
Substitution2: "'aalt' Access All Alternates lookup 0 subtable" ij.sc
Position2: "'cpsp' Capital Spacing lookup 0 subtable" dx=5 dy=0 dh=10 dv=0
EndChar

StartChar: ij
Encoding: 307 307 184
Width: 562
GlyphClass: 2
Flags: MW
HStem: -212 21G<300 300> 0 21G<95 187 95 95> 507 20G<95 187 187 187 375 467 467 467> 655 125<121 159.5 402 440.5>
VStem: 76 129<699.5 735> 95 92<0 527> 357 129<699.5 735> 375 92<26 32 32 527>
AnchorPoint: "Anchor-11" 0 0 basechar 0
AnchorPoint: "Anchor-10" 0 0 basechar 0
AnchorPoint: "Anchor-9" 422 527 basechar 0
AnchorPoint: "Anchor-8" 197 0 basechar 0
LayerCount: 2
Fore
SplineSet
140 780 m 0xfa
 179 780 205 753 205 717 c 0
 205 682 179 655 140 655 c 0
 102 655 76 682 76 717 c 0
 76 753 102 780 140 780 c 0xfa
421 780 m 0
 460 780 486 753 486 717 c 0
 486 682 460 655 421 655 c 0
 383 655 357 682 357 717 c 0
 357 753 383 780 421 780 c 0
187 0 m 1xf5
 95 0 l 1
 95 527 l 1
 187 527 l 1
 187 0 l 1xf5
467 32 m 2
 467 -117 412 -162 300 -212 c 1
 273 -145 l 1
 342 -113 375 -87 375 26 c 2
 375 527 l 1
 467 527 l 1
 467 32 l 2
EndSplineSet
Substitution2: "'smcp' Lowercase to Small Capitals lookup 24 subtable" ij.sc
Substitution2: "'aalt' Access All Alternates lookup 0 subtable" ij.sc
EndChar

StartChar: Jcircumflex
Encoding: 308 308 55
Width: 305
GlyphClass: 2
Flags: MW
HStem: 669 20G<115 210 210 210> 840 74<163 163>
VStem: 115 95<100 689>
AnchorPoint: "Anchor-11" 0 0 basechar 0
AnchorPoint: "Anchor-10" 0 0 basechar 0
AnchorPoint: "Anchor-9" 163 689 basechar 0
AnchorPoint: "Anchor-8" 0 0 basechar 0
LayerCount: 2
Fore
SplineSet
163 840 m 1
 37 759 l 1
 -3 804 l 1
 133 914 l 1
 194 914 l 1
 329 804 l 1
 290 759 l 1
 163 840 l 1
210 96 m 2
 210 -48 141 -102 30 -137 c 1
 5 -68 l 1
 96 -32 115 8 115 100 c 2
 115 689 l 1
 210 689 l 1
 210 96 l 2
EndSplineSet
Substitution2: "'c2sc' Capitals to Small Capitals lookup 23 subtable" jcircumflex.sc
Substitution2: "'aalt' Access All Alternates lookup 0 subtable" jcircumflex.sc
Position2: "'cpsp' Capital Spacing lookup 0 subtable" dx=5 dy=0 dh=10 dv=0
EndChar
StartChar: jcircumflex
Encoding: 309 309 501
Width: 280
GlyphClass: 2
Flags: MW
HStem: -212 21G<18 18> 507 20G<93 185 185 185>
VStem: 93 92<26 32 32 527>
AnchorPoint: "Anchor-14" 0 0 basechar 0
AnchorPoint: "Anchor-13" 0 0 basechar 0
AnchorPoint: "Anchor-12" 142 792 basechar 0
AnchorPoint: "Anchor-11" 0 0 basechar 0
AnchorPoint: "Anchor-10" 139 -202 basechar 0
LayerCount: 2
Back
Fore
SplineSet
13 634 m 1
 -26 679 l 1
 109 792 l 1
 170 792 l 1
 306 679 l 1
 266 634 l 1
 140 718 l 1
 13 634 l 1
185 527 m 1
 185 32 l 2
 185 -117 130 -162 18 -212 c 1
 -9 -145 l 1
 60 -113 93 -87 93 26 c 2
 93 527 l 1
 185 527 l 1
EndSplineSet
Substitution2: "'smcp' Lowercase to Small Capitals lookup 27 subtable" jcircumflex.sc
Substitution2: "'aalt' Access All Alternates lookup 0 subtable" jcircumflex.sc
EndChar
StartChar: Kcommaaccent
Encoding: 310 310 142
Width: 589
GlyphClass: 2
Flags: MW
HStem: 0 21G<100 195 100 100 472 472 472 589> 669 20G<100 195 195 195 462 570 570 570>
VStem: 100 95<0 689 0 689> 260 115<-141.5 -117 -141.5 -117>
AnchorPoint: "Anchor-14" 0 0 basechar 0
AnchorPoint: "Anchor-13" 0 0 basechar 0
AnchorPoint: "Anchor-12" 328 689 basechar 0
AnchorPoint: "Anchor-11" 0 0 basechar 0
AnchorPoint: "Anchor-10" 315 0 basechar 0
LayerCount: 2
Back
Fore
SplineSet
195 689 m 1
 195 0 l 1
 100 0 l 1
 100 689 l 1
 195 689 l 1
570 689 m 1
 309 374 l 1
 589 0 l 1
 472 0 l 1
 200 368 l 1
 462 689 l 1
 570 689 l 1
318 -77 m 0
 350 -77 375 -101 375 -133 c 0
 375 -150 370 -166 349 -210 c 2
 308 -296 l 1
 255 -296 l 1
 284 -180 l 1
 270 -168 260 -152 260 -133 c 0
 260 -101 286 -77 318 -77 c 0
EndSplineSet
Substitution2: "'c2sc' Capitals to Small Capitals lookup 26 subtable" kcommaaccent.sc
Substitution2: "'aalt' Access All Alternates lookup 0 subtable" kcommaaccent.sc
Position2: "'cpsp' Capital Spacing lookup 0 subtable" dx=5 dy=0 dh=10 dv=0
EndChar
StartChar: kcommaaccent
Encoding: 311 311 508
Width: 512
GlyphClass: 2
Flags: MW
HStem: 0 21G<95 187 95 95 402 402 402 512> 507 20G<387 490 490 490> 719 20G<95 95> 730 20G<187 187>
VStem: 95 92<0 739 739 739> 200 115<-141.5 -117 -141.5 -117>
AnchorPoint: "Anchor-14" 0 0 basechar 0
AnchorPoint: "Anchor-13" 0 0 basechar 0
AnchorPoint: "Anchor-12" 280 739 basechar 0
AnchorPoint: "Anchor-11" 0 0 basechar 0
AnchorPoint: "Anchor-10" 255 0 basechar 0
LayerCount: 2
Back
Fore
SplineSet
187 750 m 1xd8
 187 0 l 1
 95 0 l 1
 95 739 l 1xe8
 187 750 l 1xd8
490 527 m 1
 296 294 l 1
 512 0 l 1
 402 0 l 1
 193 288 l 1
 387 527 l 1
 490 527 l 1
258 -77 m 0xdc
 290 -77 315 -101 315 -133 c 0
 315 -150 310 -166 289 -210 c 2
 248 -296 l 1
 195 -296 l 1
 224 -180 l 1
 210 -168 200 -152 200 -133 c 0
 200 -101 226 -77 258 -77 c 0xdc
EndSplineSet
Substitution2: "'smcp' Lowercase to Small Capitals lookup 27 subtable" kcommaaccent.sc
Substitution2: "'aalt' Access All Alternates lookup 0 subtable" kcommaaccent.sc
EndChar

StartChar: kgreenlandic
Encoding: 312 312 193
Width: 509
GlyphClass: 2
Flags: MW
HStem: 0 21G<95 187 95 95 399 399 399 509> 507 20G<95 187 187 187 384 487 487 487>
VStem: 95 92<0 527>
LayerCount: 2
Fore
SplineSet
187 0 m 1
 95 0 l 1
 95 527 l 1
 187 527 l 1
 187 0 l 1
293 284 m 1
 509 0 l 1
 399 0 l 1
 190 278 l 1
 384 527 l 1
 487 527 l 1
 293 284 l 1
EndSplineSet
Substitution2: "'smcp' Lowercase to Small Capitals lookup 24 subtable" kgreenlandic.sc
Substitution2: "'aalt' Access All Alternates lookup 0 subtable" kgreenlandic.sc
EndChar

StartChar: lacute
Encoding: 314 314 195
Width: 293
GlyphClass: 2
Flags: MW
HStem: -12 76<203 208.5> 719 20G<90 90> 730 20G<182 182>
VStem: 90 92<104 106 106 739 739 739>
AnchorPoint: "Anchor-11" 147 0 basechar 0
AnchorPoint: "Anchor-10" 0 0 basechar 0
AnchorPoint: "Anchor-9" 136 739 basechar 0
AnchorPoint: "Anchor-8" 0 0 basechar 0
LayerCount: 2
Fore
SplineSet
258 884 m 1xb0
 42 805 l 1
 18 854 l 1
 218 961 l 1
 258 884 l 1xb0
182 106 m 2
 182 78 191 64 215 64 c 0
 228 64 239 66 249 70 c 1
 273 6 l 1
 248 -6 222 -12 195 -12 c 0
 128 -12 90 28 90 104 c 2
 90 739 l 1xd0
 182 750 l 1
 182 106 l 2
EndSplineSet
Substitution2: "'smcp' Lowercase to Small Capitals lookup 24 subtable" lacute.sc
Substitution2: "'aalt' Access All Alternates lookup 0 subtable" lacute.sc
EndChar
StartChar: Lcommaaccent
Encoding: 315 315 150
Width: 498
GlyphClass: 2
Flags: MW
HStem: 0 83<195 467> 669 20G<100 195 195 195>
VStem: 100 95<83 689 83 689 83 689> 229 115<-141.5 -117 -141.5 -117>
AnchorPoint: "Anchor-14" 390 390 basechar 0
AnchorPoint: "Anchor-13" 215 689 basechar 0
AnchorPoint: "Anchor-12" 148 689 basechar 0
AnchorPoint: "Anchor-11" 0 0 basechar 0
AnchorPoint: "Anchor-10" 284 0 basechar 0
LayerCount: 2
Back
Fore
SplineSet
195 689 m 1
 195 83 l 1
 478 83 l 1
 467 0 l 1
 100 0 l 1
 100 689 l 1
 195 689 l 1
287 -77 m 0
 319 -77 344 -101 344 -133 c 0
 344 -150 339 -166 318 -210 c 2
 277 -296 l 1
 224 -296 l 1
 253 -180 l 1
 239 -168 229 -152 229 -133 c 0
 229 -101 255 -77 287 -77 c 0
EndSplineSet
Substitution2: "'c2sc' Capitals to Small Capitals lookup 26 subtable" lcommaaccent.sc
Substitution2: "'aalt' Access All Alternates lookup 0 subtable" lcommaaccent.sc
Position2: "'cpsp' Capital Spacing lookup 0 subtable" dx=5 dy=0 dh=10 dv=0
EndChar

StartChar: lcommaaccent
Encoding: 316 316 197
Width: 293
GlyphClass: 2
Flags: MW
HStem: -12 76<203 208.5> 719 20G<90 90> 730 20G<182 182>
VStem: 90 92<104 106 106 739 739 739> 92 115<-141.5 -117 -141.5 -117>
AnchorPoint: "Anchor-11" 147 0 basechar 0
AnchorPoint: "Anchor-10" 0 0 basechar 0
AnchorPoint: "Anchor-9" 136 739 basechar 0
AnchorPoint: "Anchor-8" 0 0 basechar 0
LayerCount: 2
Fore
SplineSet
182 106 m 2xb0
 182 78 191 64 215 64 c 0
 228 64 239 66 249 70 c 1
 273 6 l 1
 248 -6 222 -12 195 -12 c 0
 128 -12 90 28 90 104 c 2
 90 739 l 1xd0
 182 750 l 1
 182 106 l 2xb0
150 -77 m 0xa8
 182 -77 207 -101 207 -133 c 0
 207 -150 202 -166 181 -210 c 2
 140 -296 l 1
 87 -296 l 1
 116 -180 l 1
 102 -168 92 -152 92 -133 c 0
 92 -101 118 -77 150 -77 c 0xa8
EndSplineSet
Substitution2: "'smcp' Lowercase to Small Capitals lookup 24 subtable" lcommaaccent.sc
Substitution2: "'aalt' Access All Alternates lookup 0 subtable" lcommaaccent.sc
EndChar

StartChar: Lcaron
Encoding: 317 317 60
Width: 498
GlyphClass: 2
Flags: MW
HStem: 0 83<195 467> 669 20G<100 195 195 195 351 351> 679 20G<268 268>
VStem: 100 95<83 83 83 689>
AnchorPoint: "Anchor-11" 284 0 basechar 0
AnchorPoint: "Anchor-10" 0 0 basechar 0
AnchorPoint: "Anchor-9" 148 689 basechar 0
AnchorPoint: "Anchor-8" 0 0 basechar 0
LayerCount: 2
Fore
SplineSet
351 689 m 1xd0
 305 505 l 1
 252 513 l 1
 268 699 l 1xb0
 351 689 l 1xd0
195 83 m 1
 478 83 l 1
 467 0 l 1
 100 0 l 1
 100 689 l 1
 195 689 l 1xd0
 195 83 l 1
EndSplineSet
Substitution2: "'c2sc' Capitals to Small Capitals lookup 23 subtable" lcaron.sc
Substitution2: "'aalt' Access All Alternates lookup 0 subtable" lcaron.sc
Position2: "'cpsp' Capital Spacing lookup 0 subtable" dx=5 dy=0 dh=10 dv=0
EndChar

StartChar: lcaron
Encoding: 318 318 196
Width: 293
GlyphClass: 2
Flags: MW
HStem: -12 76<203 208.5> 543 20G<239 239> 719 20G<90 90 338 338> 729 20G<255 255> 730 20G<182 182>
VStem: 90 92<104 106 106 739 739 739>
AnchorPoint: "Anchor-11" 147 0 basechar 0
AnchorPoint: "Anchor-10" 0 0 basechar 0
AnchorPoint: "Anchor-9" 136 739 basechar 0
AnchorPoint: "Anchor-8" 0 0 basechar 0
LayerCount: 2
Fore
SplineSet
182 106 m 2xcc
 182 78 191 64 215 64 c 0
 228 64 239 66 249 70 c 1
 273 6 l 1
 248 -6 222 -12 195 -12 c 0
 128 -12 90 28 90 104 c 2
 90 739 l 1xe4
 182 750 l 1
 182 106 l 2xcc
338 739 m 1xe4
 292 555 l 1
 239 563 l 1
 255 749 l 1xd4
 338 739 l 1xe4
EndSplineSet
Substitution2: "'smcp' Lowercase to Small Capitals lookup 24 subtable" lcaron.sc
Substitution2: "'aalt' Access All Alternates lookup 0 subtable" lcaron.sc
EndChar

StartChar: Ldot
Encoding: 319 319 62
Width: 498
GlyphClass: 2
Flags: MW
HStem: 0 83<195 467> 325 125<371 409.5> 669 20G<100 195 195 195>
VStem: 100 95<83 83 83 689> 326 129<369.5 405>
AnchorPoint: "Anchor-11" 284 0 basechar 0
AnchorPoint: "Anchor-10" 0 0 basechar 0
AnchorPoint: "Anchor-9" 148 689 basechar 0
AnchorPoint: "Anchor-8" 0 0 basechar 0
LayerCount: 2
Fore
SplineSet
195 83 m 1
 478 83 l 1
 467 0 l 1
 100 0 l 1
 100 689 l 1
 195 689 l 1
 195 83 l 1
390 450 m 0
 429 450 455 423 455 387 c 0
 455 352 429 325 390 325 c 0
 352 325 326 352 326 387 c 0
 326 423 352 450 390 450 c 0
EndSplineSet
Ligature2: "Ligature Substitution lookup 29 subtable" L periodcentered
Substitution2: "'c2sc' Capitals to Small Capitals lookup 23 subtable" ldot.sc
Substitution2: "'aalt' Access All Alternates lookup 0 subtable" ldot.sc
Position2: "'cpsp' Capital Spacing lookup 0 subtable" dx=5 dy=0 dh=10 dv=0
EndChar

StartChar: ldot
Encoding: 320 320 198
Width: 337
GlyphClass: 2
Flags: MW
HStem: -12 76<203 208.5> 315 125<278 316.5> 719 20G<90 90> 730 20G<182 182>
VStem: 90 92<104 106 106 739 739 739> 233 129<359.5 395>
AnchorPoint: "Anchor-11" 147 0 basechar 0
AnchorPoint: "Anchor-10" 0 0 basechar 0
AnchorPoint: "Anchor-9" 136 739 basechar 0
AnchorPoint: "Anchor-8" 0 0 basechar 0
LayerCount: 2
Fore
SplineSet
182 106 m 2xd8
 182 78 191 64 215 64 c 0
 228 64 239 66 249 70 c 1
 273 6 l 1
 248 -6 222 -12 195 -12 c 0
 128 -12 90 28 90 104 c 2
 90 739 l 1xe8
 182 750 l 1
 182 106 l 2xd8
297 440 m 0xdc
 336 440 362 413 362 377 c 0
 362 342 336 315 297 315 c 0
 259 315 233 342 233 377 c 0
 233 413 259 440 297 440 c 0xdc
EndSplineSet
Ligature2: "Ligature Substitution lookup 29 subtable" l periodcentered
Substitution2: "'smcp' Lowercase to Small Capitals lookup 24 subtable" ldot.sc
Substitution2: "'aalt' Access All Alternates lookup 0 subtable" ldot.sc
EndChar
StartChar: Lslash
Encoding: 321 321 154
Width: 514
GlyphClass: 2
Flags: MW
HStem: 0 83<211 483> 669 20G<116 211 211 211>
VStem: 116 95<83 83 83 257 257 257 399 689>
AnchorPoint: "Anchor-14" 406 390 basechar 0
AnchorPoint: "Anchor-13" 231 689 basechar 0
AnchorPoint: "Anchor-12" 164 689 basechar 0
AnchorPoint: "Anchor-11" 0 0 basechar 0
AnchorPoint: "Anchor-10" 300 0 basechar 0
LayerCount: 2
Back
Fore
SplineSet
211 83 m 1
 494 83 l 1
 483 0 l 1
 116 0 l 1
 116 257 l 1
 60 222 l 1
 22 282 l 1
 116 340 l 1
 116 689 l 1
 211 689 l 1
 211 399 l 1
 371 498 l 1
 409 438 l 1
 211 315 l 1
 211 83 l 1
EndSplineSet
Substitution2: "'c2sc' Capitals to Small Capitals lookup 26 subtable" lslash.sc
Substitution2: "'aalt' Access All Alternates lookup 0 subtable" lslash.sc
Position2: "'cpsp' Capital Spacing lookup 0 subtable" dx=5 dy=0 dh=10 dv=0
EndChar

StartChar: lslash
Encoding: 322 322 199
Width: 302
GlyphClass: 2
Flags: MW
HStem: -12 76<210 215.5> 719 20G<97 97> 730 20G<189 189>
VStem: 97 92<104 106 106 307 307 307 448 739 739 739>
AnchorPoint: "Anchor-11" 154 0 basechar 0
AnchorPoint: "Anchor-10" 0 0 basechar 0
AnchorPoint: "Anchor-9" 143 739 basechar 0
AnchorPoint: "Anchor-8" 0 0 basechar 0
LayerCount: 2
Fore
SplineSet
222 64 m 0xb0
 235 64 246 66 256 70 c 1
 280 6 l 1
 255 -6 229 -12 202 -12 c 0
 135 -12 97 28 97 104 c 2
 97 307 l 1
 45 275 l 1
 14 341 l 1
 97 392 l 1
 97 739 l 1xd0
 189 750 l 1
 189 448 l 1
 259 491 l 1
 290 425 l 1
 189 363 l 1
 189 106 l 2
 189 78 198 64 222 64 c 0xb0
EndSplineSet
Substitution2: "'smcp' Lowercase to Small Capitals lookup 24 subtable" lslash.sc
Substitution2: "'aalt' Access All Alternates lookup 0 subtable" lslash.sc
EndChar
StartChar: nacute
Encoding: 324 324 537
Width: 586
GlyphClass: 2
Flags: MW
HStem: 0 21G<95 187 95 95 404 496 404 404> 467 72<308.5 346.5> 507 20G<95 174 174 174>
VStem: 95 92<0 374 0 527> 404 92<0 365 365 378 0 404.5>
AnchorPoint: "Anchor-14" 0 0 basechar 0
AnchorPoint: "Anchor-13" 0 0 basechar 0
AnchorPoint: "Anchor-12" 300 801 basechar 0
AnchorPoint: "Anchor-11" 0 0 basechar 0
AnchorPoint: "Anchor-10" 293 0 basechar 0
LayerCount: 2
Back
Fore
SplineSet
418 724 m 1xd8
 206 638 l 1
 178 687 l 1
 377 801 l 1
 418 724 l 1xd8
343 539 m 0
 440 539 496 478 496 378 c 2
 496 0 l 1
 404 0 l 1
 404 365 l 2
 404 444 372 467 321 467 c 0
 262 467 222 430 187 374 c 1xd8
 187 0 l 1
 95 0 l 1
 95 527 l 1
 174 527 l 1xb8
 182 449 l 1
 218 503 274 539 343 539 c 0
EndSplineSet
Substitution2: "'smcp' Lowercase to Small Capitals lookup 27 subtable" nacute.sc
Substitution2: "'locl' Localized Forms in Latin lookup 7 subtable" nacute.loclPLK
AlternateSubs2: "'aalt' Access All Alternates lookup 1 subtable" nacute.loclPLK nacute.sc
EndChar
StartChar: Ncommaaccent
Encoding: 325 325 165
Width: 683
GlyphClass: 2
Flags: MW
HStem: 0 21G<100 189 100 100 456 583 456 456> 0 103<507 507 507 583 456 507> 585 104<176 176> 669 20G<100 224 224 224 494 583 583 583>
VStem: 100 89<0 316 0 689> 288 115<-141.5 -117 -141.5 -117> 494 89<313 689 0 689>
AnchorPoint: "Anchor-14" 0 0 basechar 0
AnchorPoint: "Anchor-13" 0 0 basechar 0
AnchorPoint: "Anchor-12" 353 689 basechar 0
AnchorPoint: "Anchor-11" 0 0 basechar 0
AnchorPoint: "Anchor-10" 343 0 basechar 0
LayerCount: 2
Back
Fore
SplineSet
583 689 m 1x9a
 583 0 l 1
 456 0 l 1
 176 585 l 1xae
 181 528 189 444 189 316 c 2
 189 0 l 1
 100 0 l 1
 100 689 l 1
 224 689 l 1
 507 103 l 1x5a
 505 119 494 229 494 313 c 2
 494 689 l 1
 583 689 l 1x9a
346 -77 m 0
 378 -77 403 -101 403 -133 c 0
 403 -150 398 -166 377 -210 c 2
 336 -296 l 1
 283 -296 l 1
 312 -180 l 1
 298 -168 288 -152 288 -133 c 0
 288 -101 314 -77 346 -77 c 0
EndSplineSet
Substitution2: "'c2sc' Capitals to Small Capitals lookup 26 subtable" ncommaaccent.sc
Substitution2: "'aalt' Access All Alternates lookup 0 subtable" ncommaaccent.sc
Position2: "'cpsp' Capital Spacing lookup 0 subtable" dx=5 dy=0 dh=10 dv=0
EndChar

StartChar: ncommaaccent
Encoding: 326 326 205
Width: 586
GlyphClass: 2
Flags: MW
HStem: 0 21G<95 187 95 95 404 496 404 404> 467 72<308.5 346.5> 507 20G<95 174 174 174>
VStem: 95 92<0 374 0 527> 238 115<-141.5 -117 -141.5 -117> 404 92<0 365 365 378 0 404.5>
AnchorPoint: "Anchor-11" 293 0 basechar 0
AnchorPoint: "Anchor-10" 85 527 basechar 0
AnchorPoint: "Anchor-9" 298 527 basechar 0
AnchorPoint: "Anchor-8" 0 0 basechar 0
LayerCount: 2
Fore
SplineSet
343 539 m 0xd4
 440 539 496 478 496 378 c 2
 496 0 l 1
 404 0 l 1
 404 365 l 2
 404 444 372 467 321 467 c 0
 262 467 222 430 187 374 c 1xd4
 187 0 l 1
 95 0 l 1
 95 527 l 1
 174 527 l 1xb4
 182 449 l 1
 218 503 274 539 343 539 c 0xd4
296 -77 m 0xdc
 328 -77 353 -101 353 -133 c 0
 353 -150 348 -166 327 -210 c 2
 286 -296 l 1
 233 -296 l 1
 262 -180 l 1
 248 -168 238 -152 238 -133 c 0
 238 -101 264 -77 296 -77 c 0xdc
EndSplineSet
Substitution2: "'smcp' Lowercase to Small Capitals lookup 24 subtable" ncommaaccent.sc
Substitution2: "'aalt' Access All Alternates lookup 0 subtable" ncommaaccent.sc
EndChar
StartChar: ncaron
Encoding: 328 328 540
Width: 586
GlyphClass: 2
Flags: MW
HStem: 0 21G<95 187 95 95 404 496 404 404> 467 72<308.5 346.5> 507 20G<95 174 174 174> 627 74<298 298 298 329 268 298> 681 20G<298 298> 720 20G<132 132 464 464>
VStem: 95 92<0 374 0 527> 404 92<0 365 365 378 0 404.5>
AnchorPoint: "Anchor-14" 0 0 basechar 0
AnchorPoint: "Anchor-13" 0 0 basechar 0
AnchorPoint: "Anchor-12" 300 785 basechar 0
AnchorPoint: "Anchor-11" 0 0 basechar 0
AnchorPoint: "Anchor-10" 293 0 basechar 0
LayerCount: 2
Back
Fore
SplineSet
329 627 m 1xd7
 268 627 l 1
 132 740 l 1
 172 785 l 1
 298 701 l 1
 425 785 l 1
 464 740 l 1
 329 627 l 1xd7
343 539 m 0
 440 539 496 478 496 378 c 2
 496 0 l 1
 404 0 l 1
 404 365 l 2
 404 444 372 467 321 467 c 0
 262 467 222 430 187 374 c 1xcf
 187 0 l 1
 95 0 l 1
 95 527 l 1
 174 527 l 1xaf
 182 449 l 1
 218 503 274 539 343 539 c 0
EndSplineSet
Substitution2: "'smcp' Lowercase to Small Capitals lookup 27 subtable" ncaron.sc
Substitution2: "'aalt' Access All Alternates lookup 0 subtable" ncaron.sc
EndChar
StartChar: napostrophe
Encoding: 329 329 539
Width: 695
GlyphClass: 2
Flags: MW
HStem: 0 21G<204 296 204 204 513 605 513 513> 467 72<417.5 455.5> 507 20G<204 283 283 283> 733 20G<87 119>
VStem: 45 115<688.5 713 688.5 713> 204 92<0 374 0 527> 513 92<0 365 365 378 0 404.5>
AnchorPoint: "Anchor-14" 0 0 basechar 0
AnchorPoint: "Anchor-13" 0 0 basechar 0
AnchorPoint: "Anchor-12" 407 527 basechar 0
AnchorPoint: "Anchor-11" 0 0 basechar 0
AnchorPoint: "Anchor-10" 402 0 basechar 0
LayerCount: 2
Back
Fore
SplineSet
103 753 m 0xde
 135 753 160 729 160 697 c 0
 160 680 155 664 134 620 c 2
 93 534 l 1
 40 534 l 1
 69 650 l 1
 55 662 45 678 45 697 c 0
 45 729 71 753 103 753 c 0xde
452 539 m 0
 549 539 605 478 605 378 c 2
 605 0 l 1
 513 0 l 1
 513 365 l 2
 513 444 481 467 430 467 c 0
 371 467 331 430 296 374 c 1xde
 296 0 l 1
 204 0 l 1
 204 527 l 1
 283 527 l 1xbe
 291 449 l 1
 327 503 383 539 452 539 c 0
EndSplineSet
Substitution2: "'smcp' Lowercase to Small Capitals lookup 27 subtable" napostrophe.sc
Ligature2: "'locl' Localized Forms in Latin lookup 11 subtable" quoteright n
Ligature2: "'locl' Localized Forms in Latin lookup 11 subtable" quotesingle n
Substitution2: "'aalt' Access All Alternates lookup 0 subtable" napostrophe.sc
EndChar

StartChar: Eng
Encoding: 330 330 69
Width: 683
GlyphClass: 2
Flags: MW
HStem: -212 21G<416 416> 0 21G<100 189 100 100 454 502 454 454> 583 106<176 180 176 176>
VStem: 100 89<0 316 0 689> 494 89<313 689>
LayerCount: 2
Fore
SplineSet
583 689 m 1
 583 32 l 2
 583 -117 528 -162 416 -212 c 1
 391 -150 l 1
 459 -118 497 -94 502 0 c 1
 454 0 l 1
 180 583 l 1
 176 583 l 1
 181 526 189 444 189 316 c 2
 189 0 l 1
 100 0 l 1
 100 689 l 1
 226 689 l 1
 503 103 l 1
 507 103 l 1
 505 119 494 229 494 313 c 2
 494 689 l 1
 583 689 l 1
EndSplineSet
Substitution2: "'c2sc' Capitals to Small Capitals lookup 23 subtable" eng.sc
Substitution2: "'aalt' Access All Alternates lookup 0 subtable" eng.sc
Position2: "'cpsp' Capital Spacing lookup 0 subtable" dx=5 dy=0 dh=10 dv=0
EndChar
StartChar: eng
Encoding: 331 331 547
Width: 586
GlyphClass: 2
Flags: MW
HStem: -213 74<323.5 359.5 323.5 390.5> 0 21G<95 187 95 95> 467 72<308.5 346.5> 507 20G<95 174 174 174>
VStem: 95 92<0 374 0 527> 404 92<-65 -57 -57 365 365 378>
AnchorPoint: "Anchor-14" 0 0 basechar 0
AnchorPoint: "Anchor-13" 0 0 basechar 0
AnchorPoint: "Anchor-12" 298 527 basechar 0
AnchorPoint: "Anchor-11" 0 0 basechar 0
AnchorPoint: "Anchor-10" 282 -202 basechar 0
LayerCount: 2
Back
Fore
SplineSet
343 539 m 0xec
 440 539 496 478 496 378 c 2
 496 -57 l 2
 496 -160 436 -213 345 -213 c 0
 292 -213 255 -194 230 -175 c 1
 266 -117 l 1
 289 -130 307 -139 340 -139 c 0
 379 -139 404 -118 404 -65 c 2
 404 365 l 2
 404 444 372 467 321 467 c 0
 262 467 222 430 187 374 c 1xec
 187 0 l 1
 95 0 l 1
 95 527 l 1
 174 527 l 1xdc
 182 449 l 1
 218 503 274 539 343 539 c 0xec
EndSplineSet
Substitution2: "'smcp' Lowercase to Small Capitals lookup 27 subtable" eng.sc
Substitution2: "'aalt' Access All Alternates lookup 0 subtable" eng.sc
EndChar

StartChar: Omacron
Encoding: 332 332 78
Width: 692
GlyphClass: 2
Flags: MW
HStem: -12 78<290 404 290 432.5> 623 78<288.5 405> 787 69<213 486 213 486>
VStem: 55 101<243.5 442.5 243.5 456.5> 213 273<787 856 787 856> 536 101<244 443>
AnchorPoint: "Anchor-11" 0 0 basechar 0
AnchorPoint: "Anchor-10" 113 689 basechar 0
AnchorPoint: "Anchor-9" 350 689 basechar 0
AnchorPoint: "Anchor-8" 0 0 basechar 0
LayerCount: 2
Fore
SplineSet
213 787 m 1
 213 856 l 1
 486 856 l 1
 486 787 l 1
 213 787 l 1
346 701 m 0
 519 701 637 576 637 344 c 0
 637 116 519 -12 346 -12 c 0
 174 -12 55 112 55 343 c 0
 55 570 174 701 346 701 c 0
346 623 m 0
 231 623 156 542 156 343 c 0
 156 144 234 66 346 66 c 0
 462 66 536 144 536 344 c 0
 536 542 464 623 346 623 c 0
EndSplineSet
Substitution2: "'c2sc' Capitals to Small Capitals lookup 23 subtable" omacron.sc
Substitution2: "'aalt' Access All Alternates lookup 0 subtable" omacron.sc
Position2: "'cpsp' Capital Spacing lookup 0 subtable" dx=5 dy=0 dh=10 dv=0
EndChar
StartChar: omacron
Encoding: 333 333 582
Width: 584
GlyphClass: 2
Flags: MW
HStem: -12 74<248 336 248 366.5> 465 74<249 336.5> 667 69<155 428 155 428>
VStem: 57 99<194.5 332 194.5 344.5> 155 273<667 736> 428 99<195 332.5>
AnchorPoint: "Anchor-14" 0 0 basechar 0
AnchorPoint: "Anchor-13" 476 527 basechar 0
AnchorPoint: "Anchor-12" 294 736 basechar 0
AnchorPoint: "Anchor-11" 380 0 basechar 0
AnchorPoint: "Anchor-10" 292 0 basechar 0
LayerCount: 2
Back
Fore
SplineSet
428 667 m 1xe8
 155 667 l 1
 155 736 l 1
 428 736 l 1
 428 667 l 1xe8
293 539 m 0xf4
 443 539 527 431 527 264 c 0
 527 101 441 -12 292 -12 c 0
 142 -12 57 96 57 263 c 0
 57 426 143 539 293 539 c 0xf4
293 465 m 0
 205 465 156 401 156 263 c 0
 156 126 204 62 292 62 c 0
 380 62 428 126 428 264 c 0
 428 401 380 465 293 465 c 0
EndSplineSet
Substitution2: "'smcp' Lowercase to Small Capitals lookup 27 subtable" omacron.sc
Substitution2: "'aalt' Access All Alternates lookup 0 subtable" omacron.sc
EndChar

StartChar: Obreve
Encoding: 334 334 73
Width: 692
GlyphClass: 2
Flags: MW
HStem: -12 78<290 404 290 432.5> 623 78<288.5 405> 758 70<324.5 371.5 324.5 388.5>
VStem: 55 101<243.5 442.5 243.5 456.5> 536 101<244 443>
AnchorPoint: "Anchor-11" 0 0 basechar 0
AnchorPoint: "Anchor-10" 113 689 basechar 0
AnchorPoint: "Anchor-9" 350 689 basechar 0
AnchorPoint: "Anchor-8" 0 0 basechar 0
LayerCount: 2
Fore
SplineSet
348 758 m 0
 268 758 206 807 198 881 c 1
 259 894 l 1
 273 854 301 828 348 828 c 0
 395 828 426 854 440 894 c 1
 501 881 l 1
 493 807 429 758 348 758 c 0
346 701 m 0
 519 701 637 576 637 344 c 0
 637 116 519 -12 346 -12 c 0
 174 -12 55 112 55 343 c 0
 55 570 174 701 346 701 c 0
346 623 m 0
 231 623 156 542 156 343 c 0
 156 144 234 66 346 66 c 0
 462 66 536 144 536 344 c 0
 536 542 464 623 346 623 c 0
EndSplineSet
Substitution2: "'c2sc' Capitals to Small Capitals lookup 23 subtable" obreve.sc
Substitution2: "'aalt' Access All Alternates lookup 0 subtable" obreve.sc
Position2: "'cpsp' Capital Spacing lookup 0 subtable" dx=5 dy=0 dh=10 dv=0
EndChar

StartChar: Ohungarumlaut
Encoding: 336 336 77
Width: 692
GlyphClass: 2
Flags: MW
HStem: -12 78<290 404 290 432.5> 623 78<288.5 405>
VStem: 55 101<243.5 442.5 243.5 456.5> 536 101<244 443>
AnchorPoint: "Anchor-11" 0 0 basechar 0
AnchorPoint: "Anchor-10" 113 689 basechar 0
AnchorPoint: "Anchor-9" 350 689 basechar 0
AnchorPoint: "Anchor-8" 0 0 basechar 0
LayerCount: 2
Fore
SplineSet
391 917 m 1
 295 765 l 1
 237 790 l 1
 313 958 l 1
 391 917 l 1
543 917 m 1
 437 760 l 1
 379 785 l 1
 465 958 l 1
 543 917 l 1
346 701 m 0
 519 701 637 576 637 344 c 0
 637 116 519 -12 346 -12 c 0
 174 -12 55 112 55 343 c 0
 55 570 174 701 346 701 c 0
346 623 m 0
 231 623 156 542 156 343 c 0
 156 144 234 66 346 66 c 0
 462 66 536 144 536 344 c 0
 536 542 464 623 346 623 c 0
EndSplineSet
Substitution2: "'c2sc' Capitals to Small Capitals lookup 23 subtable" ohungarumlaut.sc
Substitution2: "'aalt' Access All Alternates lookup 0 subtable" ohungarumlaut.sc
Position2: "'cpsp' Capital Spacing lookup 0 subtable" dx=5 dy=0 dh=10 dv=0
EndChar

StartChar: ohungarumlaut
Encoding: 337 337 214
Width: 584
GlyphClass: 2
Flags: MW
HStem: -12 74<248 336 248 366.5> 465 74<249 336.5>
VStem: 57 99<194.5 332 194.5 344.5> 428 99<195 332.5>
AnchorPoint: "Anchor-11" 0 0 basechar 0
AnchorPoint: "Anchor-10" 0 0 basechar 0
AnchorPoint: "Anchor-9" 292 527 basechar 0
AnchorPoint: "Anchor-8" 0 0 basechar 0
LayerCount: 2
Fore
SplineSet
341 791 m 1
 245 639 l 1
 187 664 l 1
 263 832 l 1
 341 791 l 1
493 791 m 1
 387 634 l 1
 329 659 l 1
 415 832 l 1
 493 791 l 1
293 539 m 0
 443 539 527 431 527 264 c 0
 527 101 441 -12 292 -12 c 0
 142 -12 57 96 57 263 c 0
 57 426 143 539 293 539 c 0
293 465 m 0
 205 465 156 401 156 263 c 0
 156 126 204 62 292 62 c 0
 380 62 428 126 428 264 c 0
 428 401 380 465 293 465 c 0
EndSplineSet
Substitution2: "'smcp' Lowercase to Small Capitals lookup 24 subtable" ohungarumlaut.sc
Substitution2: "'aalt' Access All Alternates lookup 0 subtable" ohungarumlaut.sc
EndChar

StartChar: Racute
Encoding: 340 340 87
Width: 605
GlyphClass: 2
Flags: MW
HStem: 0 21G<100 195 100 100 467 467 467 580> 292 73<195 291 291 302 195 291> 615 74<195 280 195 195>
VStem: 100 95<0 292 0 365 365 615> 442 101<447.5 537>
AnchorPoint: "Anchor-11" 309 0 basechar 0
AnchorPoint: "Anchor-10" 0 0 basechar 0
AnchorPoint: "Anchor-9" 299 689 basechar 0
AnchorPoint: "Anchor-8" 0 0 basechar 0
LayerCount: 2
Fore
SplineSet
205 755 m 1
 181 804 l 1
 381 911 l 1
 421 834 l 1
 205 755 l 1
302 292 m 1
 195 292 l 1
 195 0 l 1
 100 0 l 1
 100 689 l 1
 281 689 l 2
 453 689 543 623 543 494 c 0
 543 397 493 339 394 309 c 1
 580 0 l 1
 467 0 l 1
 302 292 l 1
291 365 m 2
 387 365 442 401 442 494 c 0
 442 580 393 615 280 615 c 2
 195 615 l 1
 195 365 l 1
 291 365 l 2
EndSplineSet
Substitution2: "'c2sc' Capitals to Small Capitals lookup 23 subtable" racute.sc
Substitution2: "'aalt' Access All Alternates lookup 0 subtable" racute.sc
Position2: "'cpsp' Capital Spacing lookup 0 subtable" dx=5 dy=0 dh=10 dv=0
EndChar

StartChar: racute
Encoding: 341 341 224
Width: 386
GlyphClass: 2
Flags: MW
HStem: 0 21G<95 187 95 95> 449 90<292 322.5> 507 20G<95 174 174 174> 513 20G<376 376>
VStem: 95 92<0 301 0 527>
AnchorPoint: "Anchor-11" 141 0 basechar 0
AnchorPoint: "Anchor-10" 0 0 basechar 0
AnchorPoint: "Anchor-9" 238 527 basechar 0
AnchorPoint: "Anchor-8" 0 0 basechar 0
LayerCount: 2
Fore
SplineSet
136 638 m 1xc8
 108 687 l 1
 307 801 l 1
 348 724 l 1
 136 638 l 1xc8
324 539 m 0
 341 539 360 537 376 533 c 1x98
 359 443 l 1
 343 447 332 449 313 449 c 0xc8
 247 449 209 402 187 301 c 1
 187 0 l 1
 95 0 l 1
 95 527 l 1
 174 527 l 1xa8
 183 420 l 1
 211 499 260 539 324 539 c 0
EndSplineSet
Substitution2: "'smcp' Lowercase to Small Capitals lookup 24 subtable" racute.sc
Substitution2: "'aalt' Access All Alternates lookup 0 subtable" racute.sc
EndChar

StartChar: Rcommaaccent
Encoding: 342 342 89
Width: 605
GlyphClass: 2
Flags: MW
HStem: 0 21G<100 195 100 100 467 580 467 467> 292 73<195 291 291 302 195 291> 615 74<195 280 195 195>
VStem: 100 95<0 292 0 365 365 615> 254 115<-141.5 -117 -141.5 -117> 442 101<447.5 537>
AnchorPoint: "Anchor-11" 309 0 basechar 0
AnchorPoint: "Anchor-10" 0 0 basechar 0
AnchorPoint: "Anchor-9" 299 689 basechar 0
AnchorPoint: "Anchor-8" 0 0 basechar 0
LayerCount: 2
Fore
SplineSet
580 0 m 1
 467 0 l 1
 302 292 l 1
 195 292 l 1
 195 0 l 1
 100 0 l 1
 100 689 l 1
 281 689 l 2
 453 689 543 623 543 494 c 0
 543 397 493 339 394 309 c 1
 580 0 l 1
291 365 m 2
 387 365 442 401 442 494 c 0
 442 580 393 615 280 615 c 2
 195 615 l 1
 195 365 l 1
 291 365 l 2
312 -77 m 0
 344 -77 369 -101 369 -133 c 0
 369 -150 364 -166 343 -210 c 2
 302 -296 l 1
 249 -296 l 1
 278 -180 l 1
 264 -168 254 -152 254 -133 c 0
 254 -101 280 -77 312 -77 c 0
EndSplineSet
Substitution2: "'c2sc' Capitals to Small Capitals lookup 23 subtable" rcommaaccent.sc
Substitution2: "'aalt' Access All Alternates lookup 0 subtable" rcommaaccent.sc
Position2: "'cpsp' Capital Spacing lookup 0 subtable" dx=5 dy=0 dh=10 dv=0
EndChar

StartChar: rcommaaccent
Encoding: 343 343 226
Width: 386
GlyphClass: 2
Flags: MW
HStem: 0 21G<95 187 95 95> 449 90<292 322.5> 507 20G<95 174 174 174> 513 20G<376 376>
VStem: 86 115<-141.5 -117 -141.5 -117> 95 92<0 301 0 527>
AnchorPoint: "Anchor-11" 141 0 basechar 0
AnchorPoint: "Anchor-10" 0 0 basechar 0
AnchorPoint: "Anchor-9" 238 527 basechar 0
AnchorPoint: "Anchor-8" 0 0 basechar 0
LayerCount: 2
Fore
SplineSet
324 539 m 0xc4
 341 539 360 537 376 533 c 1x94
 359 443 l 1
 343 447 332 449 313 449 c 0xc4
 247 449 209 402 187 301 c 1
 187 0 l 1
 95 0 l 1
 95 527 l 1
 174 527 l 1xa4
 183 420 l 1
 211 499 260 539 324 539 c 0xc4
144 -77 m 0xc8
 176 -77 201 -101 201 -133 c 0
 201 -150 196 -166 175 -210 c 2
 134 -296 l 1
 81 -296 l 1
 110 -180 l 1
 96 -168 86 -152 86 -133 c 0
 86 -101 112 -77 144 -77 c 0xc8
EndSplineSet
Substitution2: "'smcp' Lowercase to Small Capitals lookup 24 subtable" rcommaaccent.sc
Substitution2: "'aalt' Access All Alternates lookup 0 subtable" rcommaaccent.sc
EndChar
StartChar: rcaron
Encoding: 345 345 610
Width: 386
GlyphClass: 2
Flags: MW
HStem: 0 21G<95 187 95 95> 449 90<292 322.5> 507 20G<95 174 174 174> 513 20G<376 376> 627 74<238 238 238 269 208 238> 681 20G<238 238> 720 20G<72 72 404 404>
VStem: 95 92<0 301 0 527>
AnchorPoint: "Anchor-14" 0 0 basechar 0
AnchorPoint: "Anchor-13" 0 0 basechar 0
AnchorPoint: "Anchor-12" 240 785 basechar 0
AnchorPoint: "Anchor-11" 0 0 basechar 0
AnchorPoint: "Anchor-10" 141 0 basechar 0
LayerCount: 2
Back
Fore
SplineSet
269 627 m 1xcb
 208 627 l 1
 72 740 l 1
 112 785 l 1
 238 701 l 1
 365 785 l 1
 404 740 l 1
 269 627 l 1xcb
183 420 m 1
 211 499 260 539 324 539 c 0xc7
 341 539 360 537 376 533 c 1x97
 359 443 l 1
 343 447 332 449 313 449 c 0xc7
 247 449 209 402 187 301 c 1
 187 0 l 1
 95 0 l 1
 95 527 l 1
 174 527 l 1xa7
 183 420 l 1
EndSplineSet
Substitution2: "'smcp' Lowercase to Small Capitals lookup 27 subtable" rcaron.sc
Substitution2: "'aalt' Access All Alternates lookup 0 subtable" rcaron.sc
EndChar

StartChar: scircumflex
Encoding: 349 349 231
Width: 467
GlyphClass: 2
Flags: MW
HStem: -12 74<193.5 256.5 193.5 277.5> 466 73<211 265.5> 718 74<245 245>
VStem: 48 96<375.5 418 375.5 436.5> 335 97<116 166.5>
AnchorPoint: "Anchor-11" 235 0 basechar 0
AnchorPoint: "Anchor-10" 0 0 basechar 0
AnchorPoint: "Anchor-9" 245 527 basechar 0
AnchorPoint: "Anchor-8" 0 0 basechar 0
LayerCount: 2
Fore
SplineSet
79 679 m 1
 214 792 l 1
 275 792 l 1
 411 679 l 1
 371 634 l 1
 245 718 l 1
 118 634 l 1
 79 679 l 1
238 539 m 0
 312 539 367 517 417 479 c 1
 377 418 l 1
 331 451 290 466 241 466 c 0
 181 466 144 439 144 397 c 0
 144 354 172 334 257 312 c 0
 368 284 432 240 432 148 c 0
 432 38 331 -12 224 -12 c 0
 135 -12 71 17 25 57 c 1
 76 115 l 1
 116 81 165 62 222 62 c 0
 291 62 335 93 335 139 c 0
 335 194 309 214 207 241 c 0
 93 271 48 320 48 395 c 0
 48 478 129 539 238 539 c 0
EndSplineSet
Substitution2: "'smcp' Lowercase to Small Capitals lookup 24 subtable" scircumflex.sc
Substitution2: "'aalt' Access All Alternates lookup 0 subtable" scircumflex.sc
EndChar

StartChar: scaron
Encoding: 353 353 229
Width: 467
GlyphClass: 2
Flags: MW
HStem: -12 74<193.5 256.5 193.5 277.5> 466 73<211 265.5> 627 74<245 245 245 276 215 245> 681 20G<245 245> 720 20G<79 79 411 411>
VStem: 48 96<375.5 418 375.5 436.5> 335 97<116 166.5>
AnchorPoint: "Anchor-11" 235 0 basechar 0
AnchorPoint: "Anchor-10" 0 0 basechar 0
AnchorPoint: "Anchor-9" 245 527 basechar 0
AnchorPoint: "Anchor-8" 0 0 basechar 0
LayerCount: 2
Fore
SplineSet
411 740 m 1xde
 276 627 l 1
 215 627 l 1xee
 79 740 l 1
 119 785 l 1
 245 701 l 1
 372 785 l 1
 411 740 l 1xde
238 539 m 0
 312 539 367 517 417 479 c 1
 377 418 l 1
 331 451 290 466 241 466 c 0
 181 466 144 439 144 397 c 0
 144 354 172 334 257 312 c 0
 368 284 432 240 432 148 c 0
 432 38 331 -12 224 -12 c 0
 135 -12 71 17 25 57 c 1
 76 115 l 1
 116 81 165 62 222 62 c 0
 291 62 335 93 335 139 c 0
 335 194 309 214 207 241 c 0
 93 271 48 320 48 395 c 0
 48 478 129 539 238 539 c 0
EndSplineSet
Substitution2: "'smcp' Lowercase to Small Capitals lookup 24 subtable" scaron.sc
Substitution2: "'aalt' Access All Alternates lookup 0 subtable" scaron.sc
EndChar

StartChar: Tcedilla
Encoding: 354 354 99
Width: 517
GlyphClass: 2
Flags: MW
HStem: -241 60<259 286 259 309> -217 21G<187 187> -99 43<236 306> 0 21G<211 248 211 211> 608 81<15 211 15 507 306 306 306 497>
VStem: 211 95<0 608> 325 77<-155.5 -127.5>
AnchorPoint: "Anchor-11" 259 0 basechar 0
AnchorPoint: "Anchor-10" 0 0 basechar 0
AnchorPoint: "Anchor-9" 259 689 basechar 0
AnchorPoint: "Anchor-8" 0 0 basechar 0
LayerCount: 2
Fore
SplineSet
306 -56 m 1x7c
 374 -62 402 -100 402 -141 c 0
 402 -207 344 -241 274 -241 c 0xbe
 238 -241 207 -232 187 -217 c 1x7c
 212 -165 l 1
 231 -175 247 -181 271 -181 c 0
 301 -181 325 -170 325 -141 c 0xbe
 325 -114 300 -99 236 -99 c 1
 248 0 l 1
 211 0 l 1
 211 608 l 1
 15 608 l 1
 15 689 l 1
 507 689 l 1
 497 608 l 1
 306 608 l 1
 306 -56 l 1x7c
EndSplineSet
Substitution2: "'c2sc' Capitals to Small Capitals lookup 23 subtable" tcedilla.sc
Substitution2: "'locl' Localized Forms in Latin lookup 5 subtable" uni021A
Substitution2: "'locl' Localized Forms in Latin lookup 4 subtable" uni021A
AlternateSubs2: "'aalt' Access All Alternates lookup 1 subtable" uni021A tcedilla.sc
Position2: "'cpsp' Capital Spacing lookup 0 subtable" dx=5 dy=0 dh=10 dv=0
EndChar
StartChar: uni0162
Encoding: 354 354 250
Width: 517
GlyphClass: 2
Flags: MW
HStem: -241 60<259 286 259 309> -99 43<236 306> 0 21G<211 248 211 211> 608 81<15 211 15 507 306 306 306 497>
VStem: 211 95<0 608> 325 77<-155.5 -127.5>
AnchorPoint: "Anchor-14" 259 345 basechar 0
AnchorPoint: "Anchor-13" 0 0 basechar 0
AnchorPoint: "Anchor-12" 259 689 basechar 0
AnchorPoint: "Anchor-11" 0 0 basechar 0
AnchorPoint: "Anchor-10" 259 0 basechar 0
LayerCount: 2
Back
Fore
SplineSet
306 -56 m 1
 374 -62 402 -100 402 -141 c 0
 402 -207 344 -241 274 -241 c 0
 238 -241 207 -232 187 -217 c 1
 212 -165 l 1
 231 -175 247 -181 271 -181 c 0
 301 -181 325 -170 325 -141 c 0xfc
 325 -114 300 -99 236 -99 c 1
 248 0 l 1
 211 0 l 1
 211 608 l 1
 15 608 l 1
 15 689 l 1
 507 689 l 1
 497 608 l 1
 306 608 l 1
 306 -56 l 1
EndSplineSet
Substitution2: "'c2sc' Capitals to Small Capitals lookup 26 subtable" uni0163.sc
Substitution2: "'locl' Localized Forms in Latin lookup 5 subtable" uni021A
Substitution2: "'locl' Localized Forms in Latin lookup 4 subtable" uni021A
AlternateSubs2: "'aalt' Access All Alternates lookup 1 subtable" uni021A uni0163.sc
Position2: "'cpsp' Capital Spacing lookup 0 subtable" dx=5 dy=0 dh=10 dv=0
EndChar

StartChar: tcedilla
Encoding: 355 355 237
Width: 361
GlyphClass: 2
Flags: MW
HStem: -241 60<211 238 211 261> -217 21G<136 136> -99 43<185 258> -12 21G<258 258> -12 76<258 258> -6 21G<196 196> 456 71<9 101 9 101 193 308>
VStem: 101 92<138 142 142 456 527 646 646 646> 190.5 67.5 274 77<-155.5 -127.5>
AnchorPoint: "Anchor-11" 234 0 basechar 0
AnchorPoint: "Anchor-10" 0 0 basechar 0
AnchorPoint: "Anchor-9" 0 0 basechar 0
AnchorPoint: "Anchor-8" 0 0 basechar 0
LayerCount: 2
Fore
SplineSet
258 -56 m 1x7280
 326 -62 351 -100 351 -141 c 0
 351 -207 295 -241 227 -241 c 0xa740
 189 -241 156 -232 136 -217 c 1x67
 161 -165 l 1
 180 -175 198 -181 224 -181 c 0
 252 -181 274 -170 274 -141 c 0xa740
 274 -114 249 -99 185 -99 c 1x6680
 196 -6 l 1x67
 136 9 101 59 101 138 c 2
 101 456 l 1
 9 456 l 1
 9 527 l 1
 101 527 l 1
 101 646 l 1
 193 657 l 1
 193 527 l 1
 318 527 l 1
 308 456 l 1
 193 456 l 1
 193 142 l 2
 193 89 210 64 256 64 c 0
 279 64 300 71 326 87 c 1x6b
 361 24 l 1
 330 3 297 -9 258 -12 c 1
 258 -56 l 1x7280
EndSplineSet
Substitution2: "'smcp' Lowercase to Small Capitals lookup 24 subtable" tcedilla.sc
Substitution2: "'locl' Localized Forms in Latin lookup 5 subtable" uni021B
Substitution2: "'locl' Localized Forms in Latin lookup 4 subtable" uni021B
AlternateSubs2: "'aalt' Access All Alternates lookup 1 subtable" uni021B tcedilla.sc
EndChar

StartChar: Tcaron
Encoding: 356 356 98
Width: 517
GlyphClass: 2
Flags: MW
HStem: 0 21G<211 306 211 211> 608 81<15 211 15 507 306 497 306 306> 754 74<259 259 259 290 229 259>
VStem: 211 95<0 608 0 608>
AnchorPoint: "Anchor-11" 259 0 basechar 0
AnchorPoint: "Anchor-10" 0 0 basechar 0
AnchorPoint: "Anchor-9" 259 689 basechar 0
AnchorPoint: "Anchor-8" 0 0 basechar 0
LayerCount: 2
Fore
SplineSet
425 864 m 1
 290 754 l 1
 229 754 l 1
 93 864 l 1
 133 909 l 1
 259 828 l 1
 386 909 l 1
 425 864 l 1
497 608 m 1
 306 608 l 1
 306 0 l 1
 211 0 l 1
 211 608 l 1
 15 608 l 1
 15 689 l 1
 507 689 l 1
 497 608 l 1
EndSplineSet
Substitution2: "'c2sc' Capitals to Small Capitals lookup 23 subtable" tcaron.sc
Substitution2: "'aalt' Access All Alternates lookup 0 subtable" tcaron.sc
Position2: "'cpsp' Capital Spacing lookup 0 subtable" dx=5 dy=0 dh=10 dv=0
EndChar
StartChar: tcaron
Encoding: 357 357 640
Width: 361
GlyphClass: 2
Flags: MW
HStem: -12 76<233 265.5> 456 71<9 101 9 101 193 308> 552 20G<224 224> 728 20G<327 327>
VStem: 101 92<138 142 142 456 527 646 646 646>
AnchorPoint: "Anchor-14" 180 264 basechar 0
AnchorPoint: "Anchor-13" 189 748 basechar 0
AnchorPoint: "Anchor-12" 147 646 basechar 0
AnchorPoint: "Anchor-11" 0 0 basechar 0
AnchorPoint: "Anchor-10" 234 0 basechar 0
LayerCount: 2
Back
Fore
SplineSet
327 748 m 1
 277 564 l 1
 224 572 l 1
 244 758 l 1
 327 748 l 1
326 87 m 1
 361 24 l 1
 326 0 288 -12 243 -12 c 0
 154 -12 101 40 101 138 c 2
 101 456 l 1
 9 456 l 1
 9 527 l 1
 101 527 l 1
 101 646 l 1
 193 657 l 1
 193 527 l 1
 318 527 l 1
 308 456 l 1
 193 456 l 1
 193 142 l 2
 193 89 210 64 256 64 c 0
 279 64 300 71 326 87 c 1
EndSplineSet
Substitution2: "'smcp' Lowercase to Small Capitals lookup 27 subtable" tcaron.sc
Substitution2: "'aalt' Access All Alternates lookup 0 subtable" tcaron.sc
EndChar

StartChar: Tbar
Encoding: 358 358 97
Width: 519
GlyphClass: 2
Flags: MW
HStem: -2 21G<211 306 211 211> 317 70<88 211 88 211 306 431> 606 81<15 211 15 507 306 497 306 306>
VStem: 211 95<-2 317 -2 317 387 606>
AnchorPoint: "Anchor-11" 259 -2 basechar 0
AnchorPoint: "Anchor-10" 0 0 basechar 0
AnchorPoint: "Anchor-9" 259 687 basechar 0
AnchorPoint: "Anchor-8" 0 0 basechar 0
LayerCount: 2
Fore
SplineSet
306 606 m 1
 306 387 l 1
 431 387 l 1
 431 317 l 1
 306 317 l 1
 306 -2 l 1
 211 -2 l 1
 211 317 l 1
 88 317 l 1
 88 387 l 1
 211 387 l 1
 211 606 l 1
 15 606 l 1
 15 687 l 1
 507 687 l 1
 497 606 l 1
 306 606 l 1
EndSplineSet
Substitution2: "'c2sc' Capitals to Small Capitals lookup 23 subtable" tbar.sc
Substitution2: "'aalt' Access All Alternates lookup 0 subtable" tbar.sc
Position2: "'cpsp' Capital Spacing lookup 0 subtable" dx=5 dy=0 dh=10 dv=0
EndChar

StartChar: tbar
Encoding: 359 359 235
Width: 361
GlyphClass: 2
Flags: MW
HStem: -12 76<233 265.5> 286 71<20 101 20 101 193 298> 456 71<9 101 9 101 193 308>
VStem: 101 92<138 142 142 286 357 456 527 646 646 646>
AnchorPoint: "Anchor-11" 234 0 basechar 0
AnchorPoint: "Anchor-10" 0 0 basechar 0
AnchorPoint: "Anchor-9" 0 0 basechar 0
AnchorPoint: "Anchor-8" 0 0 basechar 0
LayerCount: 2
Fore
SplineSet
361 24 m 1
 326 0 288 -12 243 -12 c 0
 154 -12 101 40 101 138 c 2
 101 286 l 1
 20 286 l 1
 20 357 l 1
 101 357 l 1
 101 456 l 1
 9 456 l 1
 9 527 l 1
 101 527 l 1
 101 646 l 1
 193 657 l 1
 193 527 l 1
 318 527 l 1
 308 456 l 1
 193 456 l 1
 193 357 l 1
 308 357 l 1
 298 286 l 1
 193 286 l 1
 193 142 l 2
 193 89 210 64 256 64 c 0
 279 64 300 71 326 87 c 1
 361 24 l 1
EndSplineSet
Substitution2: "'smcp' Lowercase to Small Capitals lookup 24 subtable" tbar.sc
Substitution2: "'aalt' Access All Alternates lookup 0 subtable" tbar.sc
EndChar

StartChar: Utilde
Encoding: 360 360 111
Width: 662
GlyphClass: 2
Flags: MW
HStem: -12 80<281 379.5 281 407.5> 669 20G<90 185 185 185 476 572 572 572> 782 70<370.5 399 370.5 413> 830 70<261.5 291>
VStem: 90 95<221 228 228 689> 476 96<228 689>
AnchorPoint: "Anchor-11" 0 0 basechar 0
AnchorPoint: "Anchor-10" 0 0 basechar 0
AnchorPoint: "Anchor-9" 331 689 basechar 0
AnchorPoint: "Anchor-8" 428 0 basechar 0
LayerCount: 2
Fore
SplineSet
392 782 m 0xec
 333 782 309 830 273 830 c 0
 250 830 236 814 220 784 c 1
 164 812 l 1
 187 861 223 900 274 900 c 0xdc
 328 900 352 852 389 852 c 0
 409 852 424 866 442 896 c 1
 498 868 l 1
 472 811 434 782 392 782 c 0xec
572 221 m 2xdc
 572 84 485 -12 330 -12 c 0
 173 -12 90 84 90 221 c 2
 90 689 l 1
 185 689 l 1
 185 228 l 2
 185 121 232 68 330 68 c 0
 429 68 476 121 476 228 c 2
 476 689 l 1
 572 689 l 1
 572 221 l 2xdc
EndSplineSet
Substitution2: "'c2sc' Capitals to Small Capitals lookup 23 subtable" utilde.sc
Substitution2: "'aalt' Access All Alternates lookup 0 subtable" utilde.sc
Position2: "'cpsp' Capital Spacing lookup 0 subtable" dx=5 dy=0 dh=10 dv=0
EndChar

StartChar: utilde
Encoding: 361 361 249
Width: 582
GlyphClass: 2
Flags: MW
HStem: -12 72<234.5 274.5> 0 21G<408 487 408 408> 507 20G<90 182 182 182 395 487 487 487> 656 70<328.5 357 328.5 371> 704 70<219.5 249> 722 20G<456 456>
VStem: 90 92<149 159 159 527> 395 92<151 527>
AnchorPoint: "Anchor-11" 0 0 basechar 0
AnchorPoint: "Anchor-10" 0 0 basechar 0
AnchorPoint: "Anchor-9" 289 527 basechar 0
AnchorPoint: "Anchor-8" 497 0 basechar 0
LayerCount: 2
Fore
SplineSet
350 656 m 0xb3
 291 656 267 704 231 704 c 0
 208 704 194 688 178 658 c 1
 122 686 l 1
 145 735 181 774 232 774 c 0xab
 286 774 310 726 347 726 c 0
 367 726 382 740 400 770 c 1xb3
 456 742 l 1xa7
 430 685 392 656 350 656 c 0xb3
487 0 m 1x67
 408 0 l 1x67
 401 82 l 1
 361 18 312 -12 237 -12 c 0
 145 -12 90 46 90 149 c 2
 90 527 l 1
 182 527 l 1
 182 159 l 2
 182 87 206 60 263 60 c 0
 320 60 363 98 395 151 c 1xa7
 395 527 l 1
 487 527 l 1
 487 0 l 1x67
EndSplineSet
Substitution2: "'smcp' Lowercase to Small Capitals lookup 24 subtable" utilde.sc
Substitution2: "'aalt' Access All Alternates lookup 0 subtable" utilde.sc
EndChar
StartChar: umacron
Encoding: 363 363 684
Width: 582
GlyphClass: 2
Flags: MW
HStem: -12 72<234.5 274.5> 0 21G<408 487 408 408> 507 20G<90 182 182 182 395 487 487 487> 667 69<152 425 152 425>
VStem: 90 92<149 159 159 527> 152 273<667 736 667 736> 395 92<151 527 0 527>
AnchorPoint: "Anchor-14" 0 0 basechar 0
AnchorPoint: "Anchor-13" 497 527 basechar 0
AnchorPoint: "Anchor-12" 291 736 basechar 0
AnchorPoint: "Anchor-11" 497 0 basechar 0
AnchorPoint: "Anchor-10" 289 0 basechar 0
LayerCount: 2
Back
Fore
SplineSet
425 667 m 1xb4
 152 667 l 1
 152 736 l 1
 425 736 l 1
 425 667 l 1xb4
487 527 m 1xba
 487 0 l 1
 408 0 l 1x7a
 401 82 l 1
 361 18 312 -12 237 -12 c 0
 145 -12 90 46 90 149 c 2
 90 527 l 1
 182 527 l 1
 182 159 l 2
 182 87 206 60 263 60 c 0
 320 60 363 98 395 151 c 1
 395 527 l 1
 487 527 l 1xba
EndSplineSet
Substitution2: "'smcp' Lowercase to Small Capitals lookup 27 subtable" umacron.sc
Substitution2: "'aalt' Access All Alternates lookup 0 subtable" umacron.sc
EndChar
StartChar: Ubreve
Encoding: 364 364 265
Width: 662
GlyphClass: 2
Flags: MW
HStem: -12 80<281 379.5 281 407.5> 669 20G<90 185 185 185 476 572 572 572> 758 70<305.5 352.5 305.5 369.5>
VStem: 90 95<221 228 228 689> 476 96<228 689>
AnchorPoint: "Anchor-14" 0 0 basechar 0
AnchorPoint: "Anchor-13" 582 689 basechar 0
AnchorPoint: "Anchor-12" 333 894 basechar 0
AnchorPoint: "Anchor-11" 428 0 basechar 0
AnchorPoint: "Anchor-10" 331 0 basechar 0
LayerCount: 2
Back
Fore
SplineSet
329 758 m 0
 249 758 187 807 179 881 c 1
 240 894 l 1
 254 854 282 828 329 828 c 0
 376 828 407 854 421 894 c 1
 482 881 l 1
 474 807 410 758 329 758 c 0
572 689 m 1
 572 221 l 2
 572 84 485 -12 330 -12 c 0
 173 -12 90 84 90 221 c 2
 90 689 l 1
 185 689 l 1
 185 228 l 2
 185 121 232 68 330 68 c 0
 429 68 476 121 476 228 c 2
 476 689 l 1
 572 689 l 1
EndSplineSet
Substitution2: "'c2sc' Capitals to Small Capitals lookup 26 subtable" ubreve.sc
Substitution2: "'aalt' Access All Alternates lookup 0 subtable" ubreve.sc
Position2: "'cpsp' Capital Spacing lookup 0 subtable" dx=5 dy=0 dh=10 dv=0
EndChar
StartChar: ubreve
Encoding: 365 365 664
Width: 582
GlyphClass: 2
Flags: MW
HStem: -12 72<234.5 274.5> 0 21G<408 487 408 408> 507 20G<90 182 182 182 395 487 487 487> 643 70<263.5 310.5 263.5 327.5>
VStem: 90 92<149 159 159 527> 395 92<151 527 0 527>
AnchorPoint: "Anchor-14" 0 0 basechar 0
AnchorPoint: "Anchor-13" 497 527 basechar 0
AnchorPoint: "Anchor-12" 291 789 basechar 0
AnchorPoint: "Anchor-11" 497 0 basechar 0
AnchorPoint: "Anchor-10" 289 0 basechar 0
LayerCount: 2
Back
Fore
SplineSet
287 643 m 0xbc
 207 643 145 692 137 776 c 1
 198 789 l 1
 212 739 240 713 287 713 c 0
 334 713 365 739 379 789 c 1
 440 776 l 1
 432 692 368 643 287 643 c 0xbc
487 527 m 1
 487 0 l 1
 408 0 l 1x7c
 401 82 l 1
 361 18 312 -12 237 -12 c 0
 145 -12 90 46 90 149 c 2
 90 527 l 1
 182 527 l 1
 182 159 l 2
 182 87 206 60 263 60 c 0
 320 60 363 98 395 151 c 1
 395 527 l 1
 487 527 l 1
EndSplineSet
Substitution2: "'smcp' Lowercase to Small Capitals lookup 27 subtable" ubreve.sc
Substitution2: "'aalt' Access All Alternates lookup 0 subtable" ubreve.sc
EndChar

StartChar: Uring
Encoding: 366 366 110
Width: 662
GlyphClass: 2
Flags: MW
HStem: -12 80<281 379.5 281 407.5> 669 20G<90 185 185 185 476 572 572 572> 750 50<314.5 347 314.5 364.5> 912 50<314.5 347.5>
VStem: 90 95<221 228 228 689> 217 61<838.5 873.5 838.5 885.5> 384 61<838.5 873.5> 476 96<228 689>
AnchorPoint: "Anchor-11" 0 0 basechar 0
AnchorPoint: "Anchor-10" 0 0 basechar 0
AnchorPoint: "Anchor-9" 331 689 basechar 0
AnchorPoint: "Anchor-8" 428 0 basechar 0
LayerCount: 2
Fore
SplineSet
331 962 m 0
 398 962 445 915 445 856 c 0
 445 797 398 750 331 750 c 0
 264 750 217 797 217 856 c 0
 217 915 264 962 331 962 c 0
331 912 m 0
 298 912 278 891 278 856 c 0
 278 821 298 800 331 800 c 0
 363 800 384 821 384 856 c 0
 384 891 364 912 331 912 c 0
572 221 m 2
 572 84 485 -12 330 -12 c 0
 173 -12 90 84 90 221 c 2
 90 689 l 1
 185 689 l 1
 185 228 l 2
 185 121 232 68 330 68 c 0
 429 68 476 121 476 228 c 2
 476 689 l 1
 572 689 l 1
 572 221 l 2
EndSplineSet
Substitution2: "'c2sc' Capitals to Small Capitals lookup 23 subtable" uring.sc
Substitution2: "'aalt' Access All Alternates lookup 0 subtable" uring.sc
Position2: "'cpsp' Capital Spacing lookup 0 subtable" dx=5 dy=0 dh=10 dv=0
EndChar
StartChar: uring
Encoding: 367 367 687
Width: 582
GlyphClass: 2
Flags: MW
HStem: -12 72<234.5 274.5> 0 21G<408 487 408 408> 507 20G<90 182 182 182 395 487 487 487> 624 50<272.5 305 272.5 322.5> 786 50<272.5 305.5>
VStem: 90 92<149 159 159 527> 175 61<712.5 747.5 712.5 759.5> 342 61<712.5 747.5> 395 92<151 527 0 527>
AnchorPoint: "Anchor-14" 0 0 basechar 0
AnchorPoint: "Anchor-13" 497 527 basechar 0
AnchorPoint: "Anchor-12" 291 836 basechar 0
AnchorPoint: "Anchor-11" 497 0 basechar 0
AnchorPoint: "Anchor-10" 289 0 basechar 0
LayerCount: 2
Back
Fore
SplineSet
289 836 m 0xbb
 356 836 403 789 403 730 c 0
 403 671 356 624 289 624 c 0
 222 624 175 671 175 730 c 0
 175 789 222 836 289 836 c 0xbb
289 786 m 0
 256 786 236 765 236 730 c 0
 236 695 256 674 289 674 c 0
 321 674 342 695 342 730 c 0
 342 765 322 786 289 786 c 0
487 527 m 1xbc80
 487 0 l 1
 408 0 l 1x7c80
 401 82 l 1
 361 18 312 -12 237 -12 c 0
 145 -12 90 46 90 149 c 2
 90 527 l 1
 182 527 l 1
 182 159 l 2
 182 87 206 60 263 60 c 0
 320 60 363 98 395 151 c 1
 395 527 l 1
 487 527 l 1xbc80
EndSplineSet
Substitution2: "'smcp' Lowercase to Small Capitals lookup 27 subtable" uring.sc
Substitution2: "'aalt' Access All Alternates lookup 0 subtable" uring.sc
EndChar

StartChar: Uhungarumlaut
Encoding: 368 368 107
Width: 662
GlyphClass: 2
Flags: MW
HStem: -12 80<281 379.5 281 407.5> 669 20G<90 185 185 185 476 572 572 572>
VStem: 90 95<221 228 228 689> 476 96<228 689>
AnchorPoint: "Anchor-11" 0 0 basechar 0
AnchorPoint: "Anchor-10" 0 0 basechar 0
AnchorPoint: "Anchor-9" 331 689 basechar 0
AnchorPoint: "Anchor-8" 428 0 basechar 0
LayerCount: 2
Fore
SplineSet
372 917 m 1
 276 765 l 1
 218 790 l 1
 294 958 l 1
 372 917 l 1
524 917 m 1
 418 760 l 1
 360 785 l 1
 446 958 l 1
 524 917 l 1
572 221 m 2
 572 84 485 -12 330 -12 c 0
 173 -12 90 84 90 221 c 2
 90 689 l 1
 185 689 l 1
 185 228 l 2
 185 121 232 68 330 68 c 0
 429 68 476 121 476 228 c 2
 476 689 l 1
 572 689 l 1
 572 221 l 2
EndSplineSet
Substitution2: "'c2sc' Capitals to Small Capitals lookup 23 subtable" uhungarumlaut.sc
Substitution2: "'aalt' Access All Alternates lookup 0 subtable" uhungarumlaut.sc
Position2: "'cpsp' Capital Spacing lookup 0 subtable" dx=5 dy=0 dh=10 dv=0
EndChar

StartChar: uhungarumlaut
Encoding: 369 369 245
Width: 582
GlyphClass: 2
Flags: MW
HStem: -12 72<234.5 274.5> 0 21G<408 487 408 408> 507 20G<90 182 182 182 395 487 487 487>
VStem: 90 92<149 159 159 527> 395 92<151 527>
AnchorPoint: "Anchor-11" 0 0 basechar 0
AnchorPoint: "Anchor-10" 0 0 basechar 0
AnchorPoint: "Anchor-9" 289 527 basechar 0
AnchorPoint: "Anchor-8" 497 0 basechar 0
LayerCount: 2
Fore
SplineSet
338 791 m 1xb8
 242 639 l 1
 184 664 l 1
 260 832 l 1
 338 791 l 1xb8
490 791 m 1
 384 634 l 1
 326 659 l 1
 412 832 l 1
 490 791 l 1
487 0 m 1x78
 408 0 l 1x78
 401 82 l 1
 361 18 312 -12 237 -12 c 0
 145 -12 90 46 90 149 c 2
 90 527 l 1
 182 527 l 1
 182 159 l 2
 182 87 206 60 263 60 c 0
 320 60 363 98 395 151 c 1xb8
 395 527 l 1
 487 527 l 1
 487 0 l 1x78
EndSplineSet
Substitution2: "'smcp' Lowercase to Small Capitals lookup 24 subtable" uhungarumlaut.sc
Substitution2: "'aalt' Access All Alternates lookup 0 subtable" uhungarumlaut.sc
EndChar

StartChar: Uogonek
Encoding: 370 370 109
Width: 662
GlyphClass: 2
Flags: MW
HStem: -232 70<330.5 353> -11 79 669 20G<90 185 185 185 476 572 572 572>
VStem: 90 95<221 228 228 689> 215 80<-129 -105.5> 476 96<228 689>
AnchorPoint: "Anchor-11" 0 0 basechar 0
AnchorPoint: "Anchor-10" 0 0 basechar 0
AnchorPoint: "Anchor-9" 331 689 basechar 0
AnchorPoint: "Anchor-8" 428 0 basechar 0
LayerCount: 2
Fore
SplineSet
572 689 m 1
 572 221 l 2
 572 113 518 30 418 0 c 1
 316 -44 295 -78 295 -114 c 0
 295 -144 310 -162 351 -162 c 0
 372 -162 388 -160 412 -155 c 1
 403 -225 l 1
 383 -229 366 -232 340 -232 c 0
 263 -232 215 -189 215 -131 c 0xfc
 215 -80 248 -39 310 -11 c 1
 166 -4 90 90 90 221 c 2
 90 689 l 1
 185 689 l 1
 185 228 l 2
 185 121 232 68 330 68 c 0
 429 68 476 121 476 228 c 2
 476 689 l 1
 572 689 l 1
EndSplineSet
Substitution2: "'c2sc' Capitals to Small Capitals lookup 23 subtable" uogonek.sc
Substitution2: "'aalt' Access All Alternates lookup 0 subtable" uogonek.sc
Position2: "'cpsp' Capital Spacing lookup 0 subtable" dx=5 dy=0 dh=10 dv=0
EndChar
StartChar: uogonek
Encoding: 371 371 685
Width: 582
GlyphClass: 2
Flags: MW
HStem: -232 70<399.5 422> -12 21G<191 274.5> -12 72<234.5 274.5> 0 21G<487 487> 507 20G<90 182 182 182 395 487 487 487>
VStem: 90 92<149 159 159 527> 284 80<-129 -101> 395 92<151 527>
AnchorPoint: "Anchor-14" 0 0 basechar 0
AnchorPoint: "Anchor-13" 497 527 basechar 0
AnchorPoint: "Anchor-12" 289 527 basechar 0
AnchorPoint: "Anchor-11" 497 0 basechar 0
AnchorPoint: "Anchor-10" 289 0 basechar 0
LayerCount: 2
Back
Fore
SplineSet
487 0 m 1x9f
 385 -44 364 -78 364 -114 c 0
 364 -144 379 -162 420 -162 c 0
 441 -162 457 -160 481 -155 c 1
 472 -225 l 1
 452 -229 435 -232 409 -232 c 0
 332 -232 284 -189 284 -131 c 0
 284 -71 323 -25 407 10 c 1xcf
 401 82 l 1
 361 18 312 -12 237 -12 c 0
 145 -12 90 46 90 149 c 2
 90 527 l 1
 182 527 l 1
 182 159 l 2
 182 87 206 60 263 60 c 0
 320 60 363 98 395 151 c 1xad
 395 527 l 1
 487 527 l 1
 487 0 l 1x9f
EndSplineSet
Substitution2: "'smcp' Lowercase to Small Capitals lookup 27 subtable" uogonek.sc
Substitution2: "'aalt' Access All Alternates lookup 0 subtable" uogonek.sc
EndChar

StartChar: Wcircumflex
Encoding: 372 372 115
Width: 826
GlyphClass: 2
Flags: MW
HStem: 0 83<229 229 229 284 165 229> 577 112<412 412> 669 20G<25 118 118 118 362 463 463 463 714 801 801 801> 840 74<413 413>
VStem: 25 776<689 689>
AnchorPoint: "Anchor-11" 0 0 basechar 0
AnchorPoint: "Anchor-10" 0 0 basechar 0
AnchorPoint: "Anchor-9" 413 689 basechar 0
AnchorPoint: "Anchor-8" 0 0 basechar 0
LayerCount: 2
Fore
SplineSet
413 840 m 1xb8
 287 759 l 1
 247 804 l 1
 383 914 l 1
 444 914 l 1
 579 804 l 1
 540 759 l 1
 413 840 l 1xb8
661 0 m 1
 539 0 l 1
 412 577 l 1xd8
 284 0 l 1
 165 0 l 1
 25 689 l 1
 118 689 l 1
 229 83 l 1
 362 689 l 1
 463 689 l 1
 599 83 l 1
 714 689 l 1
 801 689 l 1
 661 0 l 1
EndSplineSet
Substitution2: "'c2sc' Capitals to Small Capitals lookup 23 subtable" wcircumflex.sc
Substitution2: "'aalt' Access All Alternates lookup 0 subtable" wcircumflex.sc
Position2: "'cpsp' Capital Spacing lookup 0 subtable" dx=5 dy=0 dh=10 dv=0
EndChar
StartChar: Ydieresis
Encoding: 376 376 305
Width: 550
GlyphClass: 2
Flags: MW
HStem: 0 21G<227 323 227 227> 669 20G<5 110 110 110 446 545 545 545> 780 114<153.5 186 363 395.5>
VStem: 112 115<821 853> 227 96<0 264 264 264> 322 115<821 853>
AnchorPoint: "Anchor-14" 0 0 basechar 0
AnchorPoint: "Anchor-13" 0 0 basechar 0
AnchorPoint: "Anchor-12" 277 894 basechar 0
AnchorPoint: "Anchor-11" 0 0 basechar 0
AnchorPoint: "Anchor-10" 275 0 basechar 0
LayerCount: 2
Back
Fore
SplineSet
170 894 m 0xf4
 202 894 227 869 227 837 c 0
 227 805 202 780 170 780 c 0
 137 780 112 805 112 837 c 0
 112 869 137 894 170 894 c 0xf4
379 894 m 0
 412 894 437 869 437 837 c 0
 437 805 412 780 379 780 c 0
 347 780 322 805 322 837 c 0
 322 869 347 894 379 894 c 0
545 689 m 1
 323 265 l 1
 323 0 l 1
 227 0 l 1
 227 264 l 1xe8
 5 689 l 1
 110 689 l 1
 278 348 l 1
 446 689 l 1
 545 689 l 1
EndSplineSet
Substitution2: "'c2sc' Capitals to Small Capitals lookup 26 subtable" ydieresis.sc
Substitution2: "'aalt' Access All Alternates lookup 0 subtable" ydieresis.sc
Position2: "'cpsp' Capital Spacing lookup 0 subtable" dx=5 dy=0 dh=10 dv=0
EndChar

StartChar: Zacute
Encoding: 377 377 125
Width: 522
GlyphClass: 2
Flags: MW
HStem: 0 81<136 466> 609 80<66 374 66 477>
VStem: 30 447<0 81 76 81>
AnchorPoint: "Anchor-11" 0 0 basechar 0
AnchorPoint: "Anchor-10" 0 0 basechar 0
AnchorPoint: "Anchor-9" 272 689 basechar 0
AnchorPoint: "Anchor-8" 0 0 basechar 0
LayerCount: 2
Fore
SplineSet
394 834 m 1
 178 755 l 1
 154 804 l 1
 354 911 l 1
 394 834 l 1
477 612 m 1
 136 81 l 1
 477 81 l 1
 466 0 l 1
 30 0 l 1
 30 76 l 1
 374 609 l 1
 66 609 l 1
 66 689 l 1
 477 689 l 1
 477 612 l 1
EndSplineSet
Substitution2: "'c2sc' Capitals to Small Capitals lookup 23 subtable" zacute.sc
Substitution2: "'locl' Localized Forms in Latin lookup 7 subtable" Zacute.loclPLK
AlternateSubs2: "'aalt' Access All Alternates lookup 1 subtable" Zacute.loclPLK zacute.sc
Position2: "'cpsp' Capital Spacing lookup 0 subtable" dx=5 dy=0 dh=10 dv=0
EndChar
StartChar: zacute
Encoding: 378 378 717
Width: 437
GlyphClass: 2
Flags: MW
HStem: 0 77<129 396> 449 78<48 299 48 404>
VStem: 25 382<0 77 69 77>
AnchorPoint: "Anchor-14" 0 0 basechar 0
AnchorPoint: "Anchor-13" 0 0 basechar 0
AnchorPoint: "Anchor-12" 221 801 basechar 0
AnchorPoint: "Anchor-11" 0 0 basechar 0
AnchorPoint: "Anchor-10" 215 0 basechar 0
LayerCount: 2
Back
Fore
SplineSet
298 801 m 1
 339 724 l 1
 127 638 l 1
 99 687 l 1
 298 801 l 1
404 527 m 1
 404 457 l 1
 129 77 l 1
 407 77 l 1
 396 0 l 1
 25 0 l 1
 25 69 l 1
 299 449 l 1
 48 449 l 1
 48 527 l 1
 404 527 l 1
EndSplineSet
Substitution2: "'smcp' Lowercase to Small Capitals lookup 27 subtable" zacute.sc
Substitution2: "'locl' Localized Forms in Latin lookup 7 subtable" zacute.loclPLK
AlternateSubs2: "'aalt' Access All Alternates lookup 1 subtable" zacute.loclPLK zacute.sc
EndChar
StartChar: Zdotaccent
Encoding: 379 379 319
Width: 522
GlyphClass: 2
Flags: MW
HStem: 0 81<136 466> 609 80<66 374 66 477> 781 125<252 290.5>
VStem: 207 129<825.5 861>
AnchorPoint: "Anchor-14" 0 0 basechar 0
AnchorPoint: "Anchor-13" 0 0 basechar 0
AnchorPoint: "Anchor-12" 274 906 basechar 0
AnchorPoint: "Anchor-11" 0 0 basechar 0
AnchorPoint: "Anchor-10" 258 0 basechar 0
LayerCount: 2
Back
Fore
SplineSet
271 906 m 0
 310 906 336 879 336 843 c 0
 336 808 310 781 271 781 c 0
 233 781 207 808 207 843 c 0
 207 879 233 906 271 906 c 0
477 689 m 1
 477 612 l 1
 136 81 l 1
 477 81 l 1
 466 0 l 1
 30 0 l 1
 30 76 l 1
 374 609 l 1
 66 609 l 1
 66 689 l 1
 477 689 l 1
EndSplineSet
Substitution2: "'c2sc' Capitals to Small Capitals lookup 26 subtable" zdotaccent.sc
Substitution2: "'aalt' Access All Alternates lookup 0 subtable" zdotaccent.sc
Position2: "'cpsp' Capital Spacing lookup 0 subtable" dx=5 dy=0 dh=10 dv=0
EndChar

StartChar: zdotaccent
Encoding: 380 380 265
Width: 437
GlyphClass: 2
Flags: MW
HStem: 0 77<129 396> 449 78<48 299 48 404> 655 125<199 237.5>
VStem: 154 129<699.5 735>
AnchorPoint: "Anchor-11" 0 0 basechar 0
AnchorPoint: "Anchor-10" 0 0 basechar 0
AnchorPoint: "Anchor-9" 219 527 basechar 0
AnchorPoint: "Anchor-8" 0 0 basechar 0
LayerCount: 2
Fore
SplineSet
218 780 m 0
 257 780 283 753 283 717 c 0
 283 682 257 655 218 655 c 0
 180 655 154 682 154 717 c 0
 154 753 180 780 218 780 c 0
404 457 m 1
 129 77 l 1
 407 77 l 1
 396 0 l 1
 25 0 l 1
 25 69 l 1
 299 449 l 1
 48 449 l 1
 48 527 l 1
 404 527 l 1
 404 457 l 1
EndSplineSet
Substitution2: "'smcp' Lowercase to Small Capitals lookup 24 subtable" zdotaccent.sc
Substitution2: "'aalt' Access All Alternates lookup 0 subtable" zdotaccent.sc
EndChar

StartChar: Zcaron
Encoding: 381 381 126
Width: 522
GlyphClass: 2
Flags: MW
HStem: 0 81<136 466> 609 80<66 374 66 477> 754 74<272 272 272 303 242 272>
VStem: 30 447<0 81 76 81>
AnchorPoint: "Anchor-11" 0 0 basechar 0
AnchorPoint: "Anchor-10" 0 0 basechar 0
AnchorPoint: "Anchor-9" 272 689 basechar 0
AnchorPoint: "Anchor-8" 0 0 basechar 0
LayerCount: 2
Fore
SplineSet
438 864 m 1
 303 754 l 1
 242 754 l 1
 106 864 l 1
 146 909 l 1
 272 828 l 1
 399 909 l 1
 438 864 l 1
477 612 m 1
 136 81 l 1
 477 81 l 1
 466 0 l 1
 30 0 l 1
 30 76 l 1
 374 609 l 1
 66 609 l 1
 66 689 l 1
 477 689 l 1
 477 612 l 1
EndSplineSet
Substitution2: "'c2sc' Capitals to Small Capitals lookup 23 subtable" zcaron.sc
Substitution2: "'aalt' Access All Alternates lookup 0 subtable" zcaron.sc
Position2: "'cpsp' Capital Spacing lookup 0 subtable" dx=5 dy=0 dh=10 dv=0
EndChar
StartChar: zcaron
Encoding: 382 382 719
Width: 437
GlyphClass: 2
Flags: MW
HStem: 0 77<129 396> 449 78<48 299 48 404> 627 74<219 219 219 250 189 219> 681 20G<219 219> 720 20G<53 53 385 385>
VStem: 25 382<0 77 69 77>
AnchorPoint: "Anchor-14" 0 0 basechar 0
AnchorPoint: "Anchor-13" 0 0 basechar 0
AnchorPoint: "Anchor-12" 221 785 basechar 0
AnchorPoint: "Anchor-11" 0 0 basechar 0
AnchorPoint: "Anchor-10" 215 0 basechar 0
LayerCount: 2
Back
Fore
SplineSet
346 785 m 1xdc
 385 740 l 1
 250 627 l 1
 189 627 l 1xec
 53 740 l 1
 93 785 l 1
 219 701 l 1
 346 785 l 1xdc
404 527 m 1
 404 457 l 1
 129 77 l 1
 407 77 l 1
 396 0 l 1
 25 0 l 1
 25 69 l 1
 299 449 l 1
 48 449 l 1
 48 527 l 1
 404 527 l 1
EndSplineSet
Substitution2: "'smcp' Lowercase to Small Capitals lookup 27 subtable" zcaron.sc
Substitution2: "'aalt' Access All Alternates lookup 0 subtable" zcaron.sc
EndChar
StartChar: uni0180
Encoding: 384 384 378
Width: 603
GlyphClass: 2
Flags: MW
HStem: -12 73<305 350.5 288.5 398> 0 21G<104 185 104 104> 466 73<313 356> 606 70<25 104 25 104 196 344> 719 20G<104 104> 730 20G<196 196>
VStem: 104 92<132 384 461 606 676 739 739 739> 442 99<192 339>
AnchorPoint: "Anchor-14" 0 0 basechar 0
AnchorPoint: "Anchor-13" 0 0 basechar 0
AnchorPoint: "Anchor-12" 322 739 basechar 0
AnchorPoint: "Anchor-11" 0 0 basechar 0
AnchorPoint: "Anchor-10" 317 0 basechar 0
LayerCount: 2
Back
Fore
SplineSet
345 539 m 0xb7
 464 539 541 440 541 264 c 0
 541 99 462 -12 334 -12 c 0
 276 -12 230 14 194 58 c 1xb7
 185 0 l 1
 104 0 l 1
 104 606 l 1
 25 606 l 1
 25 676 l 1
 104 676 l 1
 104 739 l 1x7b
 196 750 l 1
 196 676 l 1
 344 676 l 1
 344 606 l 1
 196 606 l 1
 196 461 l 1
 232 510 281 539 345 539 c 0xb7
312 61 m 0
 389 61 442 120 442 264 c 0
 442 414 393 466 319 466 c 0
 261 466 223 426 196 384 c 1
 196 132 l 1
 223 90 265 61 312 61 c 0
EndSplineSet
Substitution2: "'smcp' Lowercase to Small Capitals lookup 27 subtable" uni0180.sc
Substitution2: "'aalt' Access All Alternates lookup 0 subtable" uni0180.sc
EndChar
StartChar: uni0182
Encoding: 386 386 42
Width: 579
GlyphClass: 2
Flags: MW
HStem: 0 76<195 282> 356 74<195 286 286 287 195 286> 611 78<195 463 195 195>
VStem: 100 95<76 356 430 611> 448 101<160.5 269>
LayerCount: 2
Back
Fore
SplineSet
286 430 m 2
 447 430 549 362 549 220 c 0
 549 61 438 0 282 0 c 2
 100 0 l 1
 100 689 l 1
 475 689 l 1
 463 611 l 1
 195 611 l 1
 195 430 l 1
 286 430 l 2
290 76 m 2
 381 76 448 103 448 218 c 0
 448 320 388 356 287 356 c 2
 195 356 l 1
 195 76 l 1
 290 76 l 2
EndSplineSet
Substitution2: "'c2sc' Capitals to Small Capitals lookup 26 subtable" uni0183.sc
Substitution2: "'aalt' Access All Alternates lookup 0 subtable" uni0183.sc
Position2: "'cpsp' Capital Spacing lookup 0 subtable" dx=5 dy=0 dh=10 dv=0
EndChar
StartChar: uni0183
Encoding: 387 387 379
Width: 594
GlyphClass: 2
Flags: MW
HStem: -12 73<296 341.5 279.5 389> 0 21G<95 176 95 95> 466 73<304 347> 669 70<187 399 187 187>
VStem: 95 92<132 384 461 669> 433 99<192 339>
LayerCount: 2
Back
Fore
SplineSet
336 539 m 0xbc
 455 539 532 440 532 264 c 0
 532 99 453 -12 325 -12 c 0
 267 -12 221 14 185 58 c 1xbc
 176 0 l 1
 95 0 l 1x7c
 95 739 l 1
 411 739 l 1
 399 669 l 1
 187 669 l 1
 187 461 l 1
 223 510 272 539 336 539 c 0xbc
303 61 m 0
 380 61 433 120 433 264 c 0
 433 414 384 466 310 466 c 0
 252 466 214 426 187 384 c 1
 187 132 l 1
 214 90 256 61 303 61 c 0
EndSplineSet
Substitution2: "'smcp' Lowercase to Small Capitals lookup 27 subtable" uni0183.sc
Substitution2: "'aalt' Access All Alternates lookup 0 subtable" uni0183.sc
EndChar
StartChar: uni0184
Encoding: 388 388 259
Width: 573
GlyphClass: 2
Flags: MW
HStem: 0 76<194 281> 362 74<194 285 285 286 194 285> 546 20G<30 30> 669 20G<109 194 194 194>
VStem: 99 95<76 362 436 524 524 524> 447 101<162 273.5>
LayerCount: 2
Back
Fore
SplineSet
285 436 m 2
 446 436 548 368 548 223 c 0
 548 61 437 0 281 0 c 2
 99 0 l 1
 99 524 l 1
 30 566 l 1
 59 597 88 642 109 689 c 1
 194 689 l 1
 194 436 l 1
 285 436 l 2
289 76 m 2
 380 76 447 103 447 221 c 0
 447 326 387 362 286 362 c 2
 194 362 l 1
 194 76 l 1
 289 76 l 2
EndSplineSet
Substitution2: "'c2sc' Capitals to Small Capitals lookup 26 subtable" uni0185.sc
Substitution2: "'aalt' Access All Alternates lookup 0 subtable" uni0185.sc
Position2: "'cpsp' Capital Spacing lookup 0 subtable" dx=5 dy=0 dh=10 dv=0
EndChar
StartChar: uni0186
Encoding: 390 390 211
Width: 560
GlyphClass: 2
Flags: MW
HStem: -12 80<181.5 267.5 181.5 300.5> 623 78<203.5 280>
VStem: 404 101<245.5 449>
AnchorPoint: "Anchor-14" 219 346 basechar 0
AnchorPoint: "Anchor-13" 0 0 basechar 0
AnchorPoint: "Anchor-12" 230 689 basechar 0
AnchorPoint: "Anchor-11" 0 0 basechar 0
AnchorPoint: "Anchor-10" 230 0 basechar 0
LayerCount: 2
Back
Fore
SplineSet
239 701 m 0
 402 701 505 578 505 346 c 0
 505 113 384 -12 217 -12 c 0
 124 -12 62 26 20 65 c 1
 67 124 l 1
 107 96 149 68 214 68 c 0
 321 68 404 146 404 345 c 0
 404 553 327 623 233 623 c 0
 174 623 123 605 77 573 c 1
 28 633 l 1
 87 677 151 701 239 701 c 0
EndSplineSet
Substitution2: "'c2sc' Capitals to Small Capitals lookup 26 subtable" uni0254.sc
Substitution2: "'aalt' Access All Alternates lookup 0 subtable" uni0254.sc
Position2: "'cpsp' Capital Spacing lookup 0 subtable" dx=5 dy=0 dh=10 dv=0
EndChar
StartChar: uni0188
Encoding: 392 392 388
Width: 478
GlyphClass: 2
Flags: MW
HStem: -12 78<249.5 313 249.5 317.5> 463 76<249.5 300.5 215.5 318> 507 20G<356 356> 676 74<492.5 528.5>
VStem: 57 99<192 329.5 192 343> 356 92<527 594 594 602>
LayerCount: 2
Back
Fore
SplineSet
507 750 m 0xdc
 560 750 597 731 622 712 c 1
 586 653 l 1
 563 667 545 676 512 676 c 0
 473 676 448 655 448 602 c 2
 448 482 l 1
 410 432 l 1
 378 450 345 463 291 463 c 0
 208 463 156 398 156 261 c 0
 156 123 208 66 291 66 c 0
 335 66 366 80 404 109 c 1
 448 46 l 1
 401 8 348 -12 287 -12 c 0
 145 -12 57 89 57 259 c 0
 57 427 144 539 287 539 c 0xdc
 314 539 336 535 356 527 c 1xbc
 356 594 l 2
 356 698 415 750 507 750 c 0xdc
EndSplineSet
Substitution2: "'smcp' Lowercase to Small Capitals lookup 27 subtable" uni0188.sc
Substitution2: "'aalt' Access All Alternates lookup 0 subtable" uni0188.sc
EndChar
StartChar: uni018A
Encoding: 394 394 62
Width: 727
GlyphClass: 2
Flags: MW
HStem: 0 75<278 348> 613 76<278 327 327 348 278 278>
VStem: 10 87<551.5 580 551.5 602> 183 95<75 613 75 614 75 614> 571 101<234.5 464.5>
AnchorPoint: "Anchor-14" 406 345 basechar 0
AnchorPoint: "Anchor-13" 0 0 basechar 0
AnchorPoint: "Anchor-12" 386 689 basechar 0
AnchorPoint: "Anchor-11" 0 0 basechar 0
AnchorPoint: "Anchor-10" 383 0 basechar 0
LayerCount: 2
Back
Fore
SplineSet
327 689 m 2
 503 689 672 634 672 348 c 0
 672 67 497 0 348 0 c 2
 183 0 l 1
 183 614 l 1
 151 614 l 2
 114 614 97 596 97 564 c 0
 97 539 104 518 115 491 c 1
 51 459 l 1
 31 488 10 522 10 567 c 0
 10 637 59 689 156 689 c 2
 327 689 l 2
355 75 m 2
 463 75 571 121 571 348 c 0
 571 581 458 613 348 613 c 2
 278 613 l 1
 278 75 l 1
 355 75 l 2
EndSplineSet
Substitution2: "'c2sc' Capitals to Small Capitals lookup 26 subtable" uni0257.sc
Substitution2: "'aalt' Access All Alternates lookup 0 subtable" uni0257.sc
Position2: "'cpsp' Capital Spacing lookup 0 subtable" dx=5 dy=0 dh=10 dv=0
EndChar
StartChar: uni018B
Encoding: 395 395 64
Width: 579
GlyphClass: 2
Flags: MW
HStem: 0 76<208.5 379 284 379 284 474> 356 74<236.5 379 288 379 288 379> 611 78<109 379 109 479>
VStem: 25 101<156 264.5 156 283.5> 379 95<76 356 356 356 430 611 611 611>
LayerCount: 2
Back
Fore
SplineSet
479 689 m 1
 474 684 l 1
 474 0 l 1
 282 0 l 2
 135 0 25 58 25 212 c 0
 25 355 127 430 288 430 c 2
 379 430 l 1
 379 611 l 1
 109 611 l 1
 109 689 l 1
 479 689 l 1
284 76 m 2
 379 76 l 1
 379 356 l 1
 287 356 l 2
 186 356 126 317 126 212 c 0
 126 100 193 76 284 76 c 2
EndSplineSet
Substitution2: "'c2sc' Capitals to Small Capitals lookup 26 subtable" uni018C.sc
Substitution2: "'aalt' Access All Alternates lookup 0 subtable" uni018C.sc
Position2: "'cpsp' Capital Spacing lookup 0 subtable" dx=5 dy=0 dh=10 dv=0
EndChar
StartChar: uni018C
Encoding: 396 396 405
Width: 598
GlyphClass: 2
Flags: MW
HStem: -12 73<243 293.5> 0 21G<422 503 422 422> 466 73<249.5 300 204.5 315> 669 70<193 411 193 503>
VStem: 62 99<193.5 331.5 193.5 341.5> 411 92<139 397 397 397 474 669 669 669>
LayerCount: 2
Back
Fore
SplineSet
503 739 m 1xbc
 503 0 l 1
 422 0 l 1x7c
 413 73 l 1
 379 20 326 -12 261 -12 c 0
 133 -12 62 97 62 261 c 0
 62 422 140 539 269 539 c 0
 331 539 376 511 411 474 c 1
 411 669 l 1
 193 669 l 1
 193 739 l 1
 503 739 l 1xbc
281 61 m 0xbc
 340 61 376 90 411 139 c 1
 411 397 l 1
 378 439 341 466 289 466 c 0
 210 466 161 400 161 263 c 0
 161 124 205 61 281 61 c 0xbc
EndSplineSet
Substitution2: "'smcp' Lowercase to Small Capitals lookup 27 subtable" uni018C.sc
Substitution2: "'aalt' Access All Alternates lookup 0 subtable" uni018C.sc
EndChar
StartChar: uni018D
Encoding: 397 397 400
Width: 579
GlyphClass: 2
Flags: MW
HStem: -213 72<265.5 321.5 265.5 328.5> 465 74<244 332>
VStem: 57 99<235.5 344 235.5 366> 112 95<-92.5 -56 -92.5 -50> 423 99<231 343>
LayerCount: 2
Back
Fore
SplineSet
299 -141 m 0xd8
 344 -141 378 -130 419 -102 c 1
 466 -159 l 1
 418 -192 366 -213 291 -213 c 0
 173 -213 112 -146 112 -76 c 0xd8
 112 -24 134 19 208 56 c 1
 120 100 57 172 57 287 c 0xe8
 57 445 150 539 289 539 c 0
 437 539 522 420 522 284 c 0
 522 145 455 80 328 26 c 0
 229 -16 207 -36 207 -76 c 0
 207 -109 232 -141 299 -141 c 0xd8
289 465 m 0xe8
 199 465 156 401 156 287 c 0
 156 184 196 124 265 81 c 1
 385 129 423 178 423 284 c 0
 423 402 375 465 289 465 c 0xe8
EndSplineSet
EndChar
StartChar: uni018E
Encoding: 398 398 88
Width: 535
GlyphClass: 2
Flags: MW
HStem: 0 76<54 340 54 435 54 340> 312 76<108 340 108 340> 613 76<60 340 60 435>
VStem: 340 95<76 312 312 312 388 613 613 613>
LayerCount: 2
Back
Fore
SplineSet
60 689 m 1
 435 689 l 1
 435 0 l 1
 54 0 l 1
 54 76 l 1
 340 76 l 1
 340 312 l 1
 108 312 l 1
 108 388 l 1
 340 388 l 1
 340 613 l 1
 60 613 l 1
 60 689 l 1
EndSplineSet
Substitution2: "'c2sc' Capitals to Small Capitals lookup 26 subtable" uni0258.sc
Substitution2: "'aalt' Access All Alternates lookup 0 subtable" uni0258.sc
Position2: "'cpsp' Capital Spacing lookup 0 subtable" dx=5 dy=0 dh=10 dv=0
EndChar
StartChar: uni0191
Encoding: 401 401 97
Width: 491
GlyphClass: 2
Flags: MW
HStem: -213 76<22.5 58.5 22.5 90> 303 75<195 420 195 420> 613 76<195 455 195 195>
VStem: 100 95<-63 -57 -57 303 378 613>
AnchorPoint: "Anchor-14" 0 0 basechar 0
AnchorPoint: "Anchor-13" 0 0 basechar 0
AnchorPoint: "Anchor-12" 293 689 basechar 0
AnchorPoint: "Anchor-11" 0 0 basechar 0
AnchorPoint: "Anchor-10" 0 0 basechar 0
LayerCount: 2
Back
Fore
SplineSet
455 613 m 1
 195 613 l 1
 195 378 l 1
 420 378 l 1
 420 303 l 1
 195 303 l 1
 195 -57 l 2
 195 -161 136 -213 44 -213 c 0
 -9 -213 -46 -194 -71 -175 c 1
 -35 -114 l 1
 -12 -128 6 -137 39 -137 c 0
 78 -137 100 -114 100 -63 c 2
 100 689 l 1
 466 689 l 1
 455 613 l 1
EndSplineSet
Substitution2: "'c2sc' Capitals to Small Capitals lookup 26 subtable" uni0191.sc
Substitution2: "'aalt' Access All Alternates lookup 0 subtable" uni0191.sc
Position2: "'cpsp' Capital Spacing lookup 0 subtable" dx=5 dy=0 dh=10 dv=0
EndChar

StartChar: florin
Encoding: 402 402 1064
Width: 324
Flags: MW
HStem: -212 21G<18 18> 456 71<9 93 9 93 185 303> 676 74<234 276.5>
VStem: 93 92<26 32 32 456 527 599 599 600>
LayerCount: 2
Fore
SplineSet
263 676 m 0
 205 676 185 651 185 600 c 2
 185 527 l 1
 313 527 l 1
 303 456 l 1
 185 456 l 1
 185 32 l 2
 185 -117 130 -162 18 -212 c 1
 -9 -145 l 1
 60 -113 93 -87 93 26 c 2
 93 456 l 1
 9 456 l 1
 9 527 l 1
 93 527 l 1
 93 599 l 2
 93 687 151 750 258 750 c 0
 308 750 342 741 384 723 c 1
 355 656 l 1
 321 671 290 676 263 676 c 0
EndSplineSet
EndChar
StartChar: uni0195
Encoding: 405 405 477
Width: 885
GlyphClass: 2
Flags: MW
HStem: -12 74<558 616.5 558 639> 0 21G<95 187 95 95> 467 72<310 345> 507 20G<696 789 789 789> 728 20G<187 187>
VStem: 95 92<0 375 0 454 454 738 738 738> 404 92<163 171 171 365 365 378> 722 93<184.5 300.5>
LayerCount: 2
Back
Fore
SplineSet
789 527 m 1x9f
 805 440 815 358 815 255 c 0
 815 66 695 -12 583 -12 c 0xaf
 485 -12 404 48 404 163 c 2
 404 365 l 2
 404 444 370 467 320 467 c 0
 263 467 222 430 187 375 c 1
 187 0 l 1
 95 0 l 1
 95 738 l 1
 187 748 l 1
 187 454 l 1
 225 506 277 539 343 539 c 0x6f
 439 539 496 477 496 378 c 2
 496 171 l 2
 496 97 529 62 587 62 c 0
 646 62 722 106 722 263 c 0
 722 338 715 428 696 527 c 1
 789 527 l 1x9f
EndSplineSet
EndChar
StartChar: uni0196
Encoding: 406 406 134
Width: 366
GlyphClass: 2
Flags: MW
HStem: -12 76<226.5 262.5 226.5 267.5> 669 20G<90 185 185 185>
VStem: 90 95<144 689>
AnchorPoint: "Anchor-14" 0 0 basechar 0
AnchorPoint: "Anchor-13" 0 0 basechar 0
AnchorPoint: "Anchor-12" 138 689 basechar 0
AnchorPoint: "Anchor-11" 0 0 basechar 0
AnchorPoint: "Anchor-10" 203 0 basechar 0
LayerCount: 2
Back
Fore
SplineSet
320 87 m 1
 356 26 l 1
 331 7 294 -12 241 -12 c 0
 149 -12 90 40 90 144 c 2
 90 689 l 1
 185 689 l 1
 185 138 l 2
 185 87 207 64 246 64 c 0
 279 64 297 73 320 87 c 1
EndSplineSet
Substitution2: "'c2sc' Capitals to Small Capitals lookup 26 subtable" uni0196.sc
Substitution2: "'aalt' Access All Alternates lookup 0 subtable" uni0196.sc
Position2: "'cpsp' Capital Spacing lookup 0 subtable" dx=5 dy=0 dh=10 dv=0
EndChar
StartChar: uni0197
Encoding: 407 407 135
Width: 313
GlyphClass: 2
Flags: MW
HStem: 0 21G<109 204 109 109> 322 74<15 109 15 109 204 298> 669 20G<109 204 204 204>
VStem: 109 95<0 322 0 322 396 689>
AnchorPoint: "Anchor-14" 0 0 basechar 0
AnchorPoint: "Anchor-13" 0 0 basechar 0
AnchorPoint: "Anchor-12" 156 689 basechar 0
AnchorPoint: "Anchor-11" 214 0 basechar 0
AnchorPoint: "Anchor-10" 156 0 basechar 0
LayerCount: 2
Back
Fore
SplineSet
298 396 m 1
 298 322 l 1
 204 322 l 1
 204 0 l 1
 109 0 l 1
 109 322 l 1
 15 322 l 1
 15 396 l 1
 109 396 l 1
 109 689 l 1
 204 689 l 1
 204 396 l 1
 298 396 l 1
EndSplineSet
Substitution2: "'c2sc' Capitals to Small Capitals lookup 26 subtable" uni0268.sc
Substitution2: "'aalt' Access All Alternates lookup 0 subtable" uni0268.sc
Position2: "'cpsp' Capital Spacing lookup 0 subtable" dx=5 dy=0 dh=10 dv=0
EndChar
StartChar: uni0198
Encoding: 408 408 143
Width: 617
GlyphClass: 2
Flags: MW
HStem: 0 21G<100 195 100 100 472 589 472 472> 624 77<507.5 537.5> 669 20G<100 195 195 195>
VStem: 100 95<0 689 0 689>
LayerCount: 2
Back
Fore
SplineSet
438 566 m 2xd0
 308 374 l 1
 589 0 l 1
 472 0 l 1
 200 368 l 1
 369 610 l 2
 413 673 450 701 517 701 c 0
 564 701 593 685 617 666 c 1
 583 605 l 1
 568 615 552 624 523 624 c 0
 492 624 472 616 438 566 c 2xd0
195 689 m 1xb0
 195 0 l 1
 100 0 l 1
 100 689 l 1
 195 689 l 1xb0
EndSplineSet
Substitution2: "'c2sc' Capitals to Small Capitals lookup 26 subtable" uni0199.sc
Substitution2: "'aalt' Access All Alternates lookup 0 subtable" uni0199.sc
Position2: "'cpsp' Capital Spacing lookup 0 subtable" dx=5 dy=0 dh=10 dv=0
EndChar
StartChar: uni0199
Encoding: 409 409 510
Width: 512
GlyphClass: 2
Flags: MW
HStem: 0 21G<95 187 95 95 402 402 402 512> 507 20G<387 490 490 490> 676 74<236 278.5>
VStem: 95 92<0 599 599 600 0 643>
LayerCount: 2
Back
Fore
SplineSet
265 676 m 0
 207 676 187 651 187 600 c 2
 187 0 l 1
 95 0 l 1
 95 599 l 2
 95 687 153 750 260 750 c 0
 310 750 344 741 386 723 c 1
 357 656 l 1
 323 671 292 676 265 676 c 0
296 294 m 1
 512 0 l 1
 402 0 l 1
 193 288 l 1
 387 527 l 1
 490 527 l 1
 296 294 l 1
EndSplineSet
Substitution2: "'smcp' Lowercase to Small Capitals lookup 27 subtable" uni0199.sc
Substitution2: "'aalt' Access All Alternates lookup 0 subtable" uni0199.sc
EndChar
StartChar: uni019A
Encoding: 410 410 515
Width: 313
GlyphClass: 2
Flags: MW
HStem: -12 76<224 234.5> 337 70<15 111 15 111 203 298> 719 20G<111 111> 730 20G<203 203>
VStem: 111 92<104 106 106 337 407 739 739 739>
AnchorPoint: "Anchor-14" 318 380 basechar 0
AnchorPoint: "Anchor-13" 214 739 basechar 0
AnchorPoint: "Anchor-12" 157 739 basechar 0
AnchorPoint: "Anchor-11" 0 0 basechar 0
AnchorPoint: "Anchor-10" 199 0 basechar 0
LayerCount: 2
Back
Fore
SplineSet
298 337 m 1xd8
 203 337 l 1
 203 106 l 2
 203 78 212 64 236 64 c 0
 249 64 260 66 270 70 c 1
 294 6 l 1
 274 -5 248 -12 221 -12 c 0
 154 -12 111 29 111 104 c 2
 111 337 l 1
 15 337 l 1
 15 407 l 1
 111 407 l 1
 111 739 l 1xe8
 203 750 l 1
 203 407 l 1
 298 407 l 1
 298 337 l 1xd8
EndSplineSet
Substitution2: "'smcp' Lowercase to Small Capitals lookup 27 subtable" uni019A.sc
Substitution2: "'aalt' Access All Alternates lookup 0 subtable" uni019A.sc
EndChar
StartChar: uni019D
Encoding: 413 413 171
Width: 683
GlyphClass: 2
Flags: MW
HStem: -213 74<19.5 55.5 19.5 85.5> 0 21G<456 583 456 456> 0 103<507 507 507 583 456 507> 585 104<176 176> 669 20G<100 224 224 224 494 583 583 583>
VStem: 100 89<-65 -59 -59 316> 494 89<313 689 0 689>
AnchorPoint: "Anchor-14" 0 0 basechar 0
AnchorPoint: "Anchor-13" 0 0 basechar 0
AnchorPoint: "Anchor-12" 353 689 basechar 0
AnchorPoint: "Anchor-11" 0 0 basechar 0
AnchorPoint: "Anchor-10" 343 0 basechar 0
LayerCount: 2
Back
Fore
SplineSet
494 689 m 1xce
 583 689 l 1
 583 0 l 1
 456 0 l 1
 176 585 l 1xd6
 181 528 189 444 189 316 c 2
 189 -59 l 2
 189 -161 130 -213 41 -213 c 0
 -12 -213 -49 -194 -74 -175 c 1
 -38 -116 l 1
 -15 -130 3 -139 36 -139 c 0
 75 -139 100 -118 100 -65 c 2
 100 689 l 1
 224 689 l 1
 507 103 l 1xae
 505 119 494 229 494 313 c 2
 494 689 l 1xce
EndSplineSet
Substitution2: "'ss01' Style Set 1 lookup 33 subtable" uni019D.ss01
Substitution2: "'salt' Stylistic Alternatives lookup 32 subtable" uni019D.ss01
Substitution2: "'c2sc' Capitals to Small Capitals lookup 26 subtable" uni0272.sc
AlternateSubs2: "'aalt' Access All Alternates lookup 1 subtable" uni0272.sc uni019D.ss01
Position2: "'cpsp' Capital Spacing lookup 0 subtable" dx=5 dy=0 dh=10 dv=0
EndChar
StartChar: uni019E
Encoding: 414 414 551
Width: 586
GlyphClass: 2
Flags: MW
HStem: -213 21G<496 496> -202 21G<404 404> 0 21G<95 187 95 95> 467 72<308.5 346.5> 507 20G<95 174 174 174>
VStem: 95 92<0 374 0 527> 404 92<-202 365 365 378 -213 404.5>
AnchorPoint: "Anchor-14" 0 0 basechar 0
AnchorPoint: "Anchor-13" 0 0 basechar 0
AnchorPoint: "Anchor-12" 298 527 basechar 0
AnchorPoint: "Anchor-11" 0 0 basechar 0
AnchorPoint: "Anchor-10" 293 0 basechar 0
LayerCount: 2
Back
Fore
SplineSet
343 539 m 0x76
 440 539 496 478 496 378 c 2
 496 -213 l 1xb6
 404 -202 l 1
 404 365 l 2
 404 444 372 467 321 467 c 0
 262 467 222 430 187 374 c 1x76
 187 0 l 1
 95 0 l 1
 95 527 l 1
 174 527 l 1x6e
 182 449 l 1
 218 503 274 539 343 539 c 0x76
EndSplineSet
EndChar
StartChar: uni019F
Encoding: 415 415 182
Width: 692
GlyphClass: 2
Flags: MW
HStem: -12 78<292.5 401 292.5 432.5> 316 70<154 538 154 538> 623 78<293 400.5>
VStem: 55 99<316 316 316 386 316 456.5> 538 99<316 316 386 386>
AnchorPoint: "Anchor-14" 0 0 basechar 0
AnchorPoint: "Anchor-13" 0 0 basechar 0
AnchorPoint: "Anchor-12" 346 689 basechar 0
AnchorPoint: "Anchor-11" 0 0 basechar 0
AnchorPoint: "Anchor-10" 0 0 basechar 0
LayerCount: 2
Back
Fore
SplineSet
346 701 m 0
 519 701 637 576 637 344 c 0
 637 116 519 -12 346 -12 c 0
 174 -12 55 112 55 343 c 0
 55 570 174 701 346 701 c 0
346 623 m 0
 240 623 165 554 154 386 c 1
 538 386 l 1
 528 554 455 623 346 623 c 0
346 66 m 0
 456 66 532 137 538 316 c 1
 154 316 l 1
 161 137 239 66 346 66 c 0
EndSplineSet
Substitution2: "'c2sc' Capitals to Small Capitals lookup 26 subtable" uni0275.sc
Substitution2: "'aalt' Access All Alternates lookup 0 subtable" uni0275.sc
Position2: "'cpsp' Capital Spacing lookup 0 subtable" dx=5 dy=0 dh=10 dv=0
EndChar
StartChar: ohorn
Encoding: 417 417 573
Width: 595
GlyphClass: 2
Flags: MW
HStem: -12 74<248 336 248 366.5> 465 74<249 328 218 336.5>
VStem: 57 99<194.5 332 194.5 344.5> 428 99<195 294.5 182.5 332.5> 513 77<508.5 541>
AnchorPoint: "Anchor-14" 0 0 basechar 0
AnchorPoint: "Anchor-13" 528 527 basechar 0
AnchorPoint: "Anchor-12" 292 527 basechar 0
AnchorPoint: "Anchor-11" 380 0 basechar 0
AnchorPoint: "Anchor-10" 292 0 basechar 0
LayerCount: 2
Back
Fore
SplineSet
590 529 m 0xe8
 590 469 556 431 495 420 c 1
 516 378 527 325 527 264 c 0xf0
 527 101 441 -12 292 -12 c 0
 142 -12 57 96 57 263 c 0
 57 426 143 539 293 539 c 0
 363 539 419 515 458 473 c 1
 496 476 513 493 513 524 c 0
 513 558 507 576 499 596 c 1
 571 611 l 1
 582 592 590 565 590 529 c 0xe8
292 62 m 0xf0
 380 62 428 126 428 264 c 0
 428 401 380 465 293 465 c 0
 205 465 156 401 156 263 c 0
 156 126 204 62 292 62 c 0xf0
EndSplineSet
Substitution2: "'smcp' Lowercase to Small Capitals lookup 27 subtable" ohorn.sc
Substitution2: "'aalt' Access All Alternates lookup 0 subtable" ohorn.sc
EndChar
StartChar: uni01A2
Encoding: 418 418 204
Width: 926
GlyphClass: 2
Flags: MW
HStem: -202 21G<731 826 731 731> -12 78<290 404 290 432.5> 623 78<288.5 377 260 405> 629 74<638 680>
VStem: 55 101<243.5 442.5 243.5 456.5> 536 101<244 400 230 443> 731 95<-202 543 -202 546 -202 574.5>
LayerCount: 2
Back
Fore
SplineSet
663 703 m 0xde
 771 703 826 646 826 543 c 2
 826 -202 l 1
 731 -202 l 1
 731 546 l 2
 731 603 704 629 656 629 c 0
 620 629 593 621 560 603 c 1xde
 608 543 637 456 637 344 c 0
 637 116 519 -12 346 -12 c 0
 174 -12 55 112 55 343 c 0
 55 570 174 701 346 701 c 0xee
 408 701 464 684 510 651 c 1
 560 685 604 703 663 703 c 0xde
346 66 m 0xee
 462 66 536 144 536 344 c 0
 536 542 464 623 346 623 c 0
 231 623 156 542 156 343 c 0
 156 144 234 66 346 66 c 0xee
EndSplineSet
Substitution2: "'c2sc' Capitals to Small Capitals lookup 26 subtable" uni01A3.sc
Substitution2: "'aalt' Access All Alternates lookup 0 subtable" uni01A3.sc
Position2: "'cpsp' Capital Spacing lookup 0 subtable" dx=5 dy=0 dh=10 dv=0
EndChar
StartChar: uni01A4
Encoding: 420 420 221
Width: 664
GlyphClass: 2
Flags: MW
HStem: 0 21G<183 278 183 183> 253 75<278 361 361 365 278 361> 615 74<278 363 278 278>
VStem: 10 87<551.5 580 551.5 602> 183 95<0 253 0 328 328 614 614 614> 531 101<416.5 526.5>
AnchorPoint: "Anchor-14" 0 0 basechar 0
AnchorPoint: "Anchor-13" 0 0 basechar 0
AnchorPoint: "Anchor-12" 374 689 basechar 0
AnchorPoint: "Anchor-11" 0 0 basechar 0
AnchorPoint: "Anchor-10" 374 0 basechar 0
LayerCount: 2
Back
Fore
SplineSet
364 689 m 2
 530 689 632 621 632 476 c 0
 632 318 517 253 365 253 c 2
 278 253 l 1
 278 0 l 1
 183 0 l 1
 183 614 l 1
 151 614 l 2
 114 614 97 596 97 564 c 0
 97 539 104 518 115 491 c 1
 51 459 l 1
 31 488 10 522 10 567 c 0
 10 637 59 689 156 689 c 2
 364 689 l 2
361 328 m 2
 463 328 531 358 531 475 c 0
 531 578 465 615 363 615 c 2
 278 615 l 1
 278 328 l 1
 361 328 l 2
EndSplineSet
Substitution2: "'c2sc' Capitals to Small Capitals lookup 26 subtable" uni01A5.sc
Substitution2: "'aalt' Access All Alternates lookup 0 subtable" uni01A5.sc
Position2: "'cpsp' Capital Spacing lookup 0 subtable" dx=5 dy=0 dh=10 dv=0
EndChar
StartChar: uni01A5
Encoding: 421 421 600
Width: 594
GlyphClass: 2
Flags: MW
HStem: -213 21G<95 95> -202 21G<187 187> -12 75<296.5 345 279 393> 466 73<308 353.5> 676 74<236 278.5>
VStem: 95 92<-202 48 -202 127 127 384 458 599 599 600> 433 99<195 332.5>
LayerCount: 2
Back
Fore
SplineSet
337 539 m 0x7e
 477 539 532 430 532 264 c 0
 532 104 461 -12 325 -12 c 0
 268 -12 221 7 187 48 c 1
 187 -202 l 1x7e
 95 -213 l 1xbe
 95 599 l 2
 95 687 153 750 260 750 c 0
 310 750 344 741 386 723 c 1
 357 656 l 1
 323 671 292 676 265 676 c 0
 207 676 187 651 187 600 c 2
 187 458 l 1
 226 512 279 539 337 539 c 0x7e
303 63 m 0
 387 63 433 126 433 264 c 0
 433 401 393 466 314 466 c 0
 258 466 215 426 187 384 c 1
 187 127 l 1
 214 86 255 63 303 63 c 0
EndSplineSet
Substitution2: "'ss01' Style Set 1 lookup 33 subtable" uni01A5.ss01
Substitution2: "'salt' Stylistic Alternatives lookup 32 subtable" uni01A5.ss01
Substitution2: "'smcp' Lowercase to Small Capitals lookup 27 subtable" uni01A5.sc
AlternateSubs2: "'aalt' Access All Alternates lookup 1 subtable" uni01A5.sc uni01A5.ss01
EndChar
StartChar: uni01A7
Encoding: 423 423 260
Width: 537
GlyphClass: 2
Flags: MW
HStem: -12 78<241 315 241 326> 623 78<245 309.5>
VStem: 40 99<145.5 218 145.5 249.5> 393 99<496.5 562>
LayerCount: 2
Back
Fore
SplineSet
280 701 m 0
 406 701 492 633 492 528 c 0
 492 419 420 368 288 327 c 0
 171 291 139 251 139 185 c 0
 139 106 203 66 279 66 c 0
 351 66 410 93 460 134 c 1
 512 77 l 1
 454 21 376 -12 276 -12 c 0
 132 -12 40 72 40 185 c 0
 40 314 134 362 244 396 c 0
 366 434 393 465 393 528 c 0
 393 596 343 623 276 623 c 0
 214 623 166 605 114 564 c 1
 62 621 l 1
 124 673 189 701 280 701 c 0
EndSplineSet
Substitution2: "'c2sc' Capitals to Small Capitals lookup 26 subtable" uni01A8.sc
Substitution2: "'aalt' Access All Alternates lookup 0 subtable" uni01A8.sc
Position2: "'cpsp' Capital Spacing lookup 0 subtable" dx=5 dy=0 dh=10 dv=0
EndChar
StartChar: uni01A8
Encoding: 424 424 654
Width: 457
GlyphClass: 2
Flags: MW
HStem: -12 74<205.5 263.5 205.5 277.5> 466 73<203.5 260>
VStem: 35 99<117.5 168.5 117.5 193> 322 97<377 419.5>
LayerCount: 2
Back
Fore
SplineSet
237 539 m 0
 350 539 419 478 419 397 c 0
 419 317 372 275 260 245 c 0
 158 218 134 194 134 143 c 0
 134 92 176 62 235 62 c 0
 292 62 341 81 385 112 c 1
 432 57 l 1
 386 17 322 -12 233 -12 c 0
 136 -12 35 38 35 146 c 0
 35 240 99 280 210 308 c 0
 298 330 322 354 322 400 c 0
 322 439 290 466 230 466 c 0
 177 466 136 451 88 422 c 1
 50 479 l 1
 103 517 163 539 237 539 c 0
EndSplineSet
Substitution2: "'smcp' Lowercase to Small Capitals lookup 27 subtable" uni01A8.sc
Substitution2: "'aalt' Access All Alternates lookup 0 subtable" uni01A8.sc
EndChar
StartChar: uni01AA
Encoding: 426 426 438
Width: 317
GlyphClass: 2
Flags: MW
HStem: -213 74<257.5 293.5 257.5 298.5> 476 72<63 78> 678 72<58 88.5>
VStem: -65 92<591.5 633.5 591.5 654.5> 121 92<-57 486 486 486 555 604>
LayerCount: 2
Back
Fore
SplineSet
351 -117 m 1
 387 -175 l 1
 362 -194 325 -213 272 -213 c 0
 181 -213 121 -160 121 -57 c 2
 121 486 l 1
 105 480 88 476 68 476 c 0
 -5 476 -65 528 -65 612 c 0
 -65 697 -5 750 72 750 c 0
 154 750 213 698 213 604 c 2
 213 -65 l 2
 213 -118 238 -139 277 -139 c 0
 310 -139 328 -130 351 -117 c 1
81 548 m 0
 93 548 106 550 121 555 c 1
 121 612 l 2
 121 657 103 678 74 678 c 0
 42 678 27 653 27 614 c 0
 27 569 45 548 81 548 c 0
EndSplineSet
EndChar
StartChar: uni01AC
Encoding: 428 428 256
Width: 555
GlyphClass: 2
Flags: MW
HStem: 0 21G<249 344 249 249> 608 81<134.5 545 159 249 344 535 344 344>
VStem: 10 89<549 575.5 549 601.5> 249 95<0 608 0 608>
LayerCount: 2
Back
Fore
SplineSet
545 689 m 1
 535 608 l 1
 344 608 l 1
 344 0 l 1
 249 0 l 1
 249 608 l 1
 153 608 l 2
 116 608 99 589 99 562 c 0
 99 536 108 517 119 494 c 1
 48 458 l 1
 29 487 10 523 10 565 c 0
 10 638 62 689 159 689 c 2
 545 689 l 1
EndSplineSet
Substitution2: "'c2sc' Capitals to Small Capitals lookup 26 subtable" uni01AD.sc
Substitution2: "'aalt' Access All Alternates lookup 0 subtable" uni01AD.sc
Position2: "'cpsp' Capital Spacing lookup 0 subtable" dx=5 dy=0 dh=10 dv=0
EndChar
StartChar: uni01AD
Encoding: 429 429 650
Width: 361
GlyphClass: 2
Flags: MW
HStem: -12 76<233 265.5> 456 71<9 101 9 101 193 308> 676 74<236 269>
VStem: 101 92<138 142 142 456 527 594 594 602>
LayerCount: 2
Back
Fore
SplineSet
256 64 m 0
 279 64 300 71 326 87 c 1
 361 24 l 1
 326 0 288 -12 243 -12 c 0
 154 -12 101 40 101 138 c 2
 101 456 l 1
 9 456 l 1
 9 527 l 1
 101 527 l 1
 101 594 l 2
 101 698 160 750 249 750 c 0
 299 750 336 731 361 712 c 1
 325 653 l 1
 302 667 284 676 254 676 c 0
 218 676 193 655 193 602 c 2
 193 527 l 1
 318 527 l 1
 308 456 l 1
 193 456 l 1
 193 142 l 2
 193 89 210 64 256 64 c 0
EndSplineSet
Substitution2: "'smcp' Lowercase to Small Capitals lookup 27 subtable" uni01AD.sc
Substitution2: "'aalt' Access All Alternates lookup 0 subtable" uni01AD.sc
EndChar
StartChar: uni01AE
Encoding: 430 430 261
Width: 517
GlyphClass: 2
Flags: MW
HStem: -213 76<347.5 383.5 347.5 388.5> 608 81<15 211 15 507 306 306 306 497>
VStem: 211 95<-57 608>
AnchorPoint: "Anchor-14" 259 345 basechar 0
AnchorPoint: "Anchor-13" 0 0 basechar 0
AnchorPoint: "Anchor-12" 259 689 basechar 0
AnchorPoint: "Anchor-11" 0 0 basechar 0
AnchorPoint: "Anchor-10" 259 0 basechar 0
LayerCount: 2
Back
Fore
SplineSet
306 -63 m 2
 306 -114 328 -137 367 -137 c 0
 400 -137 418 -128 441 -114 c 1
 477 -175 l 1
 452 -194 415 -213 362 -213 c 0
 270 -213 211 -161 211 -57 c 2
 211 608 l 1
 15 608 l 1
 15 689 l 1
 507 689 l 1
 497 608 l 1
 306 608 l 1
 306 -63 l 2
EndSplineSet
Substitution2: "'c2sc' Capitals to Small Capitals lookup 26 subtable" uni0288.sc
Substitution2: "'aalt' Access All Alternates lookup 0 subtable" uni0288.sc
Position2: "'cpsp' Capital Spacing lookup 0 subtable" dx=5 dy=0 dh=10 dv=0
EndChar
StartChar: Uhorn
Encoding: 431 431 277
Width: 676
GlyphClass: 2
Flags: MW
HStem: -12 80<281 379.5 281 407.5> 583 106<572 572>
VStem: 90 95<221 228 228 689> 476 96<228 583 636 689> 619 77<673 703>
AnchorPoint: "Anchor-14" 0 0 basechar 0
AnchorPoint: "Anchor-13" 634 689 basechar 0
AnchorPoint: "Anchor-12" 331 689 basechar 0
AnchorPoint: "Anchor-11" 428 0 basechar 0
AnchorPoint: "Anchor-10" 331 0 basechar 0
LayerCount: 2
Back
Fore
SplineSet
677 773 m 1
 688 754 696 727 696 691 c 0
 696 631 652 583 572 583 c 1
 572 221 l 2
 572 84 485 -12 330 -12 c 0
 173 -12 90 84 90 221 c 2
 90 689 l 1
 185 689 l 1
 185 228 l 2
 185 121 232 68 330 68 c 0
 429 68 476 121 476 228 c 2
 476 689 l 1
 572 689 l 1
 572 636 l 1
 604 642 619 660 619 686 c 0
 619 720 613 738 605 758 c 1
 677 773 l 1
EndSplineSet
Substitution2: "'c2sc' Capitals to Small Capitals lookup 26 subtable" uhorn.sc
Substitution2: "'aalt' Access All Alternates lookup 0 subtable" uhorn.sc
Position2: "'cpsp' Capital Spacing lookup 0 subtable" dx=5 dy=0 dh=10 dv=0
EndChar
StartChar: uni01B2
Encoding: 434 434 292
Width: 647
GlyphClass: 2
Flags: MW
HStem: -12 80<271 365 271 391> 624 77<438 452.5> 669 20G<90 185 185 185>
VStem: 90 95<211 216 216 689> 476 96<308 573 573 574>
AnchorPoint: "Anchor-14" 0 0 basechar 0
AnchorPoint: "Anchor-13" 0 0 basechar 0
AnchorPoint: "Anchor-12" 324 689 basechar 0
AnchorPoint: "Anchor-11" 0 0 basechar 0
AnchorPoint: "Anchor-10" 324 0 basechar 0
LayerCount: 2
Back
Fore
SplineSet
453 701 m 0xd8
 529 701 572 660 572 574 c 2
 572 301 l 2
 572 110 470 -12 312 -12 c 0
 173 -12 90 84 90 211 c 2
 90 689 l 1
 185 689 l 1xb8
 185 216 l 2
 185 121 230 68 312 68 c 0
 418 68 476 150 476 308 c 2
 476 573 l 2
 476 610 467 624 438 624 c 0
 422 624 411 622 401 618 c 1
 377 683 l 1
 397 694 423 701 453 701 c 0xd8
EndSplineSet
Substitution2: "'c2sc' Capitals to Small Capitals lookup 26 subtable" uni028B.sc
Substitution2: "'aalt' Access All Alternates lookup 0 subtable" uni028B.sc
Position2: "'cpsp' Capital Spacing lookup 0 subtable" dx=5 dy=0 dh=10 dv=0
EndChar
StartChar: uni01B6
Encoding: 438 438 725
Width: 437
GlyphClass: 2
Flags: MW
HStem: 0 77<126 396> 229 70<61 142 61 193 61 237 288 372> 449 78<48 302 48 404>
VStem: 25 382<0 77 69 77>
LayerCount: 2
Back
Fore
SplineSet
126 77 m 1
 407 77 l 1
 396 0 l 1
 25 0 l 1
 25 69 l 1
 142 229 l 1
 61 229 l 1
 61 299 l 1
 193 299 l 1
 302 449 l 1
 48 449 l 1
 48 527 l 1
 404 527 l 1
 404 457 l 1
 288 299 l 1
 372 299 l 1
 372 229 l 1
 237 229 l 1
 126 77 l 1
EndSplineSet
Substitution2: "'smcp' Lowercase to Small Capitals lookup 27 subtable" uni01B6.sc
Substitution2: "'aalt' Access All Alternates lookup 0 subtable" uni01B6.sc
EndChar
StartChar: uni01B9
Encoding: 441 441 446
Width: 481
GlyphClass: 2
Flags: MW
HStem: -213 75<224 302.5 224 314.5> 138 68<265 268 265 285 265 364> 451 76<161 450 161 161>
VStem: 30 99<-45.5 44 -45.5 60.5>
LayerCount: 2
Back
Fore
SplineSet
429 -74 m 1
 481 -123 l 1
 427 -182 362 -213 267 -213 c 0
 126 -213 30 -126 30 -6 c 0
 30 127 117 206 265 206 c 2
 268 206 l 1
 54 457 l 1
 54 527 l 1
 450 527 l 1
 450 451 l 1
 161 451 l 1
 364 205 l 1
 364 138 l 1
 285 138 l 2
 174 138 129 92 129 -4 c 0
 129 -87 179 -138 269 -138 c 0
 336 -138 381 -118 429 -74 c 1
EndSplineSet
Substitution2: "'smcp' Lowercase to Small Capitals lookup 27 subtable" uni01B9.sc
Substitution2: "'aalt' Access All Alternates lookup 0 subtable" uni01B9.sc
EndChar
StartChar: uni01BE
Encoding: 446 446 460
Width: 513
GlyphClass: 2
Flags: MW
HStem: -11 74<198.5 272 198.5 299> 545 70<84 162 84 162 254 362> 728 20G<254 254>
VStem: 162 92<437 545 437 545 437 545 615 738 738 738> 358 98<168 263>
AnchorPoint: "Anchor-14" 0 0 basechar 0
AnchorPoint: "Anchor-13" 0 0 basechar 0
AnchorPoint: "Anchor-12" 211 739 basechar 0
AnchorPoint: "Anchor-11" 0 0 basechar 0
AnchorPoint: "Anchor-10" 231 0 basechar 0
LayerCount: 2
Back
Fore
SplineSet
278 434 m 1
 363 416 456 355 456 212 c 0
 456 85 369 -11 229 -11 c 0
 149 -11 89 17 30 74 c 1
 80 126 l 1
 126 85 170 63 227 63 c 0
 317 63 358 122 358 214 c 0
 358 312 314 354 233 375 c 2
 162 391 l 1
 162 545 l 1
 84 545 l 1
 84 615 l 1
 162 615 l 1
 162 738 l 1
 254 748 l 1
 254 615 l 1
 362 615 l 1
 362 545 l 1
 254 545 l 1
 254 437 l 1
 278 434 l 1
EndSplineSet
EndChar
StartChar: uni01BF
Encoding: 447 447 701
Width: 589
GlyphClass: 2
Flags: MW
HStem: -213 21G<95 95> -202 21G<187 187> -10 21G<187 187> 465 74<316.5 368> 507 20G<95 174 174 174>
VStem: 95 92<-202 -10 -202 66 66 385> 433 99<291.5 390>
LayerCount: 2
Back
Fore
SplineSet
358 539 m 0x76
 457 539 532 472 532 354 c 0
 532 188 418 109 258 27 c 2
 187 -10 l 1
 187 -202 l 1x76
 95 -213 l 1
 95 527 l 1
 174 527 l 1xae
 182 451 l 1
 225 503 275 539 358 539 c 0x76
246 98 m 2
 369 164 433 231 433 352 c 0
 433 428 399 465 337 465 c 0
 276 465 228 434 187 385 c 1
 187 66 l 1
 246 98 l 2
EndSplineSet
Substitution2: "'smcp' Lowercase to Small Capitals lookup 27 subtable" uni01BF.sc
Substitution2: "'aalt' Access All Alternates lookup 0 subtable" uni01BF.sc
EndChar
